<svg width="62" height="81" fill="none" xmlns="http://www.w3.org/2000/svg"><path d="M48.786 54.002c.087.21.14.372.22.52.307.566.63 1.124.936 1.689.347.64.68 1.29 1.022 1.932.377.703.76 1.4 1.136 2.103.35.651.688 1.31 1.038 1.961.486.909.984 1.81 1.467 2.721.463.871.907 1.75 1.372 2.62.42.784.861 1.557 1.284 2.341.29.537.566 1.077.847 1.618.147.28.306.554.434.842.19.423.14 1.07-.283 1.396-.398.306-.841.328-1.317.19-.385-.11-.779-.183-1.17-.272-.3-.069-.598-.13-.895-.206-.343-.086-.681-.204-1.029-.27-.232-.045-.46-.08-.688-.15-.339-.107-.7-.143-1.047-.223-.354-.081-.704-.183-1.056-.268-.332-.077-.668-.142-1.038-.219-.175.425-.35.846-.522 1.27-.153.38-.303.762-.454 1.143-.133.341-.268.68-.396 1.022-.128.34-.243.689-.374 1.028-.148.38-.312.758-.463 1.139-.172.438-.303.895-.509 1.318-.26.54-.655.811-1.277.727-.391-.053-.677-.297-.865-.638-.339-.618-.662-1.243-.996-1.862-.427-.793-.863-1.582-1.288-2.377-.414-.778-.815-1.562-1.226-2.338-.407-.767-.826-1.524-1.235-2.289-.425-.798-.837-1.6-1.264-2.395-.423-.782-.865-1.554-1.286-2.338-.464-.869-.907-1.748-1.372-2.615-.42-.784-.859-1.557-1.286-2.337-.128-.235-.268-.466-.36-.714-.153-.399-.463-.645-.795-.869-.465-.312-.93-.624-1.412-.908-.38-.226-.773-.463-1.19-.59a1.568 1.568 0 0 0-1.08.074c-.802.343-1.53.8-2.218 1.33-.082.063-.182.108-.275.157-.414.221-.626.609-.834 1.003-.514.977-1.023 1.955-1.545 2.927-.42.785-.863 1.558-1.284 2.343-.626 1.167-1.244 2.342-1.863 3.514-.51.962-1.012 1.925-1.527 2.883-.416.773-.855 1.533-1.275 2.304-.392.718-.775 1.443-1.158 2.167-.513.97-1.024 1.944-1.538 2.916-.259.49-.733.75-1.25.66-.436-.075-.73-.345-.897-.757-.268-.665-.542-1.33-.803-1.996-.197-.504-.367-1.015-.562-1.518-.186-.481-.394-.955-.585-1.434-.141-.361-.265-.731-.407-1.093-.106-.272-.223-.54-.336-.806-.044-.011-.082-.033-.11-.027-.366.093-.727.195-1.092.286-.25.062-.507.06-.761.16-.328.126-.695.146-1.043.226-.365.084-.726.184-1.089.275-.243.06-.484.117-.73.168-.358.075-.717.14-1.073.22-.346.077-.69.157-1.03.254-.509.146-.976.135-1.387-.255-.292-.277-.445-.926-.261-1.276.336-.643.69-1.274 1.031-1.915.418-.786.828-1.575 1.244-2.362.4-.753.801-1.506 1.206-2.258.365-.678.744-1.35 1.109-2.03.36-.669.708-1.344 1.064-2.016.428-.806.855-1.61 1.286-2.415.46-.858.928-1.71 1.39-2.568.427-.794.852-1.589 1.268-2.387.064-.124.242-.224.115-.438-.376 0-.768-.012-1.161.002a4.188 4.188 0 0 1-1.835-.348c-.72-.31-1.282-.798-1.625-1.523-.19-.4-.274-.817-.372-1.247-.174-.776-.166-1.556-.064-2.313.122-.907.082-1.813.149-2.717.026-.343 0-.698-.06-1.037a1.454 1.454 0 0 0-.591-.935 8.899 8.899 0 0 0-1.574-.91c-.624-.287-1.217-.648-1.846-.925a7.747 7.747 0 0 1-1.533-.897c-.452-.337-.861-.725-1.167-1.208-.493-.784-.566-1.649-.367-2.51.206-.887.67-1.671 1.184-2.425.575-.842 1.153-1.684 1.686-2.552.324-.528.54-1.104.428-1.76a2.097 2.097 0 0 0-.281-.718 63.637 63.637 0 0 0-1.142-1.848c-.383-.6-.795-1.18-1.165-1.79-.529-.871-.883-1.795-.783-2.848.053-.571.263-1.072.586-1.53.399-.566.95-.951 1.523-1.326.69-.452 1.448-.764 2.178-1.132.648-.328 1.303-.647 1.93-1.015.4-.237.737-.57.912-1.026.024-.066.03-.14.037-.21.091-1.088.056-2.18-.048-3.262-.067-.67-.111-1.334-.089-1.999.027-.835.19-1.646.664-2.355.32-.481.741-.862 1.275-1.113a3.738 3.738 0 0 1 1.607-.372c.318 0 .646-.126.951-.082.82.117 1.647.047 2.46.148.524.067 1.044.118 1.564.085.358-.022.728-.067 1.06-.233.4-.204.673-.545.879-.928.356-.66.67-1.341 1.016-2.006.38-.738.736-1.493 1.177-2.196.38-.605.859-1.15 1.503-1.509.675-.376 1.407-.551 2.162-.39.64.14 1.25.392 1.824.732.865.511 1.677 1.096 2.505 1.661.49.333 1.007.632 1.545.876.288.13.624.283.965.173.334-.109.664-.238.974-.4.827-.431 1.571-.994 2.341-1.52a14.275 14.275 0 0 1 2.02-1.174c.54-.248 1.123-.43 1.754-.396.635.035 1.193.248 1.71.589.72.472 1.198 1.163 1.596 1.899.434.8.793 1.642 1.215 2.448.297.568.54 1.173.978 1.656.147.162.328.292.485.445.122.12.277.113.423.157a4.1 4.1 0 0 0 1.702.098c.783-.109 1.569-.09 2.355-.137.188-.012.376-.091.56-.082.593.026 1.2.017 1.775.14 1.148.245 2.016.91 2.498 2.002.122.275.129.599.21.893.229.825.171 1.667.087 2.493-.082.8-.102 1.598-.124 2.398-.009.334.013.669.011 1.004-.004.483.217.85.562 1.167.385.353.848.588 1.302.825.767.4 1.544.78 2.33 1.147.823.386 1.57.876 2.189 1.543.281.303.465.667.63 1.048.262.6.182 1.22.14 1.834-.015.23-.126.457-.21.678-.354.938-.936 1.747-1.479 2.578-.405.616-.838 1.214-1.217 1.848-.336.563-.584 1.172-.403 1.854.113.424.31.811.55 1.172.561.851 1.15 1.685 1.699 2.542.392.614.717 1.26.954 1.961.208.616.203 1.239.086 1.835-.141.702-.555 1.305-1.115 1.762-.443.36-.912.69-1.395.992-.343.215-.73.361-1.095.54-.803.398-1.622.765-2.401 1.204-.443.25-.883.558-1.04 1.106-.027.09-.07.181-.07.272.005 1.017-.046 2.039.043 3.047.068.778.13 1.551.086 2.325-.05.88-.252 1.728-.817 2.444a2.91 2.91 0 0 1-.911.755 4.195 4.195 0 0 1-2.112.519c-.41-.018-.823-.011-1.306-.011Zm.405-2.285.003-.035c.287 0 .573-.005.86 0 .315.004.614-.047.906-.173a.88.88 0 0 0 .515-.578 3.68 3.68 0 0 0 .166-1.235 44.708 44.708 0 0 0-.1-1.535c-.094-1.168-.172-2.34-.043-3.512.048-.448.192-.876.391-1.281.275-.56.702-.995 1.182-1.37a8.707 8.707 0 0 1 1.77-1.056 51.23 51.23 0 0 0 2.274-1.11 5.56 5.56 0 0 0 1.19-.814c.439-.392.419-.82.268-1.276-.192-.574-.549-1.075-.878-1.582-.611-.938-1.31-1.822-1.822-2.823-.223-.437-.443-.9-.533-1.374-.213-1.117-.051-2.207.535-3.193a52.87 52.87 0 0 1 1.634-2.546c.387-.572.796-1.133 1.038-1.782.186-.505.219-.966-.277-1.387a4.16 4.16 0 0 0-.777-.538c-.987-.512-1.987-.995-2.981-1.498-.721-.366-1.408-.791-1.983-1.368a3.567 3.567 0 0 1-.852-1.402 3.927 3.927 0 0 1-.215-1.334c.029-1.028.018-2.059.095-3.082.064-.847.157-1.682-.05-2.524-.107-.435-.379-.703-.775-.785-.476-.097-.96-.173-1.459-.124-.974.093-1.952.157-2.928.233-.83.066-1.633-.06-2.434-.266-.636-.164-1.142-.505-1.598-.957-.558-.552-.943-1.223-1.3-1.906-.426-.822-.79-1.68-1.21-2.506-.255-.5-.522-1-.963-1.374-.203-.173-.418-.319-.695-.266-.263.051-.546.087-.777.213-.573.312-1.135.65-1.67 1.021-.671.468-1.333.951-2.041 1.359a7.91 7.91 0 0 1-1.268.6c-.241.087-.494.078-.72.166-.34.133-.679.113-1.022.085-.164-.014-.32-.078-.482-.118-.262-.066-.538-.093-.78-.201-.834-.38-1.604-.87-2.363-1.383-.883-.598-1.718-1.283-2.745-1.655-.396-.144-.75-.122-1.069.128-.19.149-.367.332-.49.539-.302.5-.578 1.017-.844 1.537-.412.807-.784 1.636-1.208 2.433-.406.758-.921 1.438-1.663 1.902-.254.16-.557.241-.832.37-.39.18-.81.177-1.221.228-.39.046-.784.075-1.176.057-.774-.035-1.547-.108-2.321-.166-.071-.004-.144-.006-.215-.017a5.512 5.512 0 0 0-1.888.05c-.336.063-.61.24-.755.532-.121.25-.199.545-.21.825-.022.585-.044 1.178.04 1.755.11.762.13 1.524.135 2.289.007.724.08 1.46-.195 2.162-.124.317-.217.652-.39.94-.393.654-.964 1.134-1.615 1.522-.52.31-1.049.6-1.607.847a25.37 25.37 0 0 0-1.98.99c-.386.21-.782.421-1.087.762-.153.169-.328.31-.317.56.011.238-.026.502.067.706.203.454.453.89.721 1.311.6.94 1.235 1.855 1.828 2.799.332.53.589 1.11.702 1.724.206 1.114-.018 2.16-.571 3.15-.41.737-.892 1.423-1.357 2.124-.458.689-.956 1.354-1.27 2.134-.248.613-.166 1.09.347 1.513.162.133.339.246.516.361.93.599 1.963.993 2.943 1.492.724.367 1.426.762 2.023 1.322.79.74 1.173 1.664 1.233 2.733.018.299.024.598.018.897-.018.68.009 1.37-.084 2.04-.104.74-.13 1.479-.098 2.219.014.303.087.625.22.895.19.39.593.54.998.56.967.047 1.932.034 2.899-.072 1.056-.116 2.118-.233 3.167.068.192.056.38.127.575.166.448.091.813.326 1.158.614.628.521 1.071 1.186 1.443 1.893.42.797.783 1.624 1.186 2.43.277.557.558 1.11.979 1.58.24.268.53.475.89.421.329-.046.66-.15.955-.334.525-.326 1.067-.63 1.576-.98.777-.536 1.534-1.094 2.38-1.524.484-.248.986-.455 1.513-.55a4.067 4.067 0 0 1 2.04.162c.494.17.974.412 1.417.691.861.543 1.684 1.146 2.534 1.702.538.352 1.083.7 1.729.825a.837.837 0 0 0 .383-.03c.427-.121.67-.465.903-.806.542-.798.905-1.695 1.33-2.555.307-.618.6-1.243.985-1.819.383-.57.827-1.077 1.42-1.438.253-.153.536-.224.813-.32.372-.128.75-.256 1.135-.267a31.34 31.34 0 0 1 2.326.044c.615.02 1.233.093 1.85.146Zm-25.34 9.462c-.246-.055-.463-.133-.685-.15-.416-.034-.779-.225-1.102-.44a4.05 4.05 0 0 1-1.215-1.245 26.465 26.465 0 0 1-.938-1.608c-.275-.523-.487-1.077-.755-1.603-.285-.562-.553-1.143-.967-1.626-.166-.193-.367-.394-.598-.483a3.086 3.086 0 0 0-1.29-.204c-.22.011-.343.087-.438.28-.221.453-.45.906-.693 1.349-.42.769-.865 1.524-1.28 2.298-.42.784-.81 1.588-1.228 2.375-.413.776-.852 1.538-1.268 2.311-.476.889-.931 1.788-1.407 2.677-.531.993-1.078 1.977-1.614 2.967-.478.886-.951 1.775-1.418 2.668-.049.09-.051.208-.084.348.161-.036.263-.06.363-.08.382-.078.765-.15 1.148-.23.244-.051.487-.105.728-.167.354-.088.702-.192 1.058-.274.348-.08.7-.14 1.047-.213.255-.053.522-.076.755-.175.312-.135.628-.138.947-.118.354.02.62.206.788.519.093.173.17.357.246.54.137.34.272.679.402 1.022.188.494.366.99.556 1.483.201.525.412 1.048.622 1.57.128.322.265.643.367.89.075-.039.193-.056.226-.118 2.565-4.773 5.121-9.549 7.68-14.324a.326.326 0 0 0 .033-.102c.011-.037.011-.075.013-.137Zm22.211 14.804c.157-.374.292-.676.41-.982.194-.502.376-1.012.573-1.515.188-.481.394-.955.577-1.436.186-.483.332-.984.542-1.456.105-.235.235-.47.496-.618.39-.224.788-.173 1.18-.097.589.115 1.168.283 1.753.425.263.064.526.13.794.186.359.075.72.129 1.076.21.547.127 1.089.269 1.717.424-.06-.182-.08-.295-.13-.39-.354-.66-.715-1.316-1.07-1.977a502.694 502.694 0 0 1-2.363-4.463c-.338-.642-.677-1.287-1.022-1.927-.423-.78-.86-1.554-1.28-2.334-.42-.782-.827-1.573-1.248-2.357-.299-.559-.613-1.106-.91-1.664-.347-.65-.681-1.308-1.026-1.957-.074-.137-.178-.24-.366-.226-.376.022-.745.015-1.122.137a1.702 1.702 0 0 0-.807.53c-.419.485-.68 1.068-.974 1.624-.43.809-.784 1.658-1.209 2.47-.405.776-.934 1.461-1.662 1.97a2.704 2.704 0 0 1-1.014.455c-.265.055-.53.106-.803.162 0 .062-.018.115.002.15 2.565 4.811 5.135 9.62 7.704 14.428.038.066.098.124.182.228Z" fill="#4B6584" stroke="#4B6584" stroke-miterlimit="10"/><path d="M30.999 50.162c-.573 0-1.15.037-1.72-.011-.59-.052-1.173-.182-1.76-.28-.046-.009-.092-.024-.139-.029-.584-.035-1.142-.212-1.693-.376a20.082 20.082 0 0 1-2.107-.76 19.952 19.952 0 0 1-3.607-2.008c-1.563-1.086-2.904-2.397-4.072-3.884a20.056 20.056 0 0 1-1.472-2.176 13.431 13.431 0 0 1-1.09-2.25c-.192-.529-.415-1.045-.606-1.577-.09-.255-.128-.527-.197-.791-.093-.352-.192-.705-.287-1.057-.014-.047-.022-.093-.031-.14-.049-.281-.122-.56-.14-.842-.057-.917-.27-1.819-.223-2.747.037-.763-.011-1.527.148-2.287.113-.534.128-1.088.22-1.629.059-.348.176-.684.27-1.026.061-.228.13-.454.19-.684.236-.916.606-1.778.991-2.637.558-1.246 1.268-2.391 2.078-3.482a18.404 18.404 0 0 1 3.19-3.306 19.03 19.03 0 0 1 2.084-1.473c.773-.47 1.565-.898 2.408-1.23.5-.197.985-.434 1.494-.607.478-.162.978-.261 1.467-.392 1.094-.288 2.205-.441 3.331-.528.558-.042 1.116-.124 1.674-.08.83.065 1.657.167 2.483.269.445.055.89.128 1.33.217.312.062.615.162.92.252.226.067.445.164.673.211.467.093.884.32 1.324.474.788.28 1.527.663 2.25 1.068.57.32 1.12.676 1.654 1.053 1.14.806 2.2 1.713 3.123 2.763a24.922 24.922 0 0 1 1.507 1.897c.695.964 1.25 2.003 1.77 3.062.226.463.381.96.56 1.445.16.43.32.862.454 1.298.089.293.135.599.202.9.093.43.181.86.274 1.287.013.058.035.116.042.173.175 1.403.22 2.81.148 4.221-.022.464-.075.927-.15 1.385-.07.432-.188.858-.281 1.288-.071.323-.126.649-.206.968-.062.253-.142.5-.226.747-.135.388-.265.778-.425 1.157a35.67 35.67 0 0 1-.759 1.703c-.352.73-.77 1.42-1.221 2.092a19.275 19.275 0 0 1-2.304 2.786 21.679 21.679 0 0 1-2.107 1.85c-.414.319-.868.587-1.306.875-.784.514-1.625.926-2.472 1.319-.487.226-1.007.376-1.516.554-.456.157-.91.319-1.373.445-.34.093-.692.137-1.042.2-.514.093-1.03.181-1.545.27a2.965 2.965 0 0 1-.46.055c-.573.009-1.147.007-1.722.005Zm.015-2.34v.04l.18-.01c.783-.028 1.571.005 2.346-.17.414-.093.845-.117 1.257-.217.511-.126 1.013-.293 1.518-.452.38-.12.764-.24 1.131-.392.301-.125.58-.308.879-.44.936-.41 1.794-.954 2.616-1.552a14.485 14.485 0 0 0 2.14-1.877 23.1 23.1 0 0 0 1.368-1.609 15.187 15.187 0 0 0 1.88-3.195c.136-.31.262-.627.382-.944.148-.397.296-.793.42-1.197.1-.328.166-.665.243-1 .089-.378.186-.757.253-1.14.064-.377.097-.758.133-1.137.13-1.387.015-2.77-.138-4.148-.002-.025-.008-.047-.013-.071-.09-.403-.18-.809-.274-1.21-.053-.22-.124-.432-.184-.65-.069-.25-.109-.511-.202-.753a33.566 33.566 0 0 0-.613-1.495c-.179-.408-.354-.822-.58-1.206-.382-.656-.774-1.305-1.234-1.914-.346-.459-.69-.924-1.074-1.343-.916-1-1.923-1.908-3.08-2.632-.583-.364-1.143-.778-1.762-1.062-.57-.26-1.138-.527-1.733-.742-.611-.22-1.228-.408-1.85-.583a11.16 11.16 0 0 0-1.705-.341 21.104 21.104 0 0 0-2.213-.149c-.617-.006-1.237.058-1.855.113-.506.045-1.01.12-1.515.182-.012.002-.025.004-.036.009-.52.153-1.045.299-1.563.46-.56.174-1.124.335-1.668.548-.419.164-.808.403-1.213.605-1.135.563-2.169 1.283-3.134 2.096a15.742 15.742 0 0 0-2.43 2.56c-.657.873-1.26 1.777-1.717 2.774-.2.436-.423.864-.603 1.31-.154.38-.267.78-.387 1.176-.157.518-.334 1.035-.44 1.564-.135.676-.246 1.361-.303 2.046-.113 1.36-.025 2.718.146 4.07l.004.036c.148.598.286 1.198.452 1.79.166.59.318 1.188.555 1.748.41.969.877 1.91 1.45 2.799a16.87 16.87 0 0 0 2.136 2.695 16.463 16.463 0 0 0 3.808 2.916 16.81 16.81 0 0 0 2.251 1.063c.425.158.85.335 1.31.415.565.1 1.11.32 1.671.434.487.1.988.146 1.485.173.5.03 1.005.009 1.505.009Z" fill="#4B6584" stroke="#4B6584" stroke-miterlimit="10"/><path d="M43.457 27.507c-.582.04-.932-.344-1.115-.803a14.137 14.137 0 0 0-.945-1.916c-.678-1.16-1.554-2.134-2.557-3.012a11.478 11.478 0 0 0-2.071-1.42c-.432-.237-.883-.432-1.333-.636-.168-.078-.352-.124-.524-.19-.582-.222-.934-.856-.73-1.425.141-.393.4-.723.878-.77.325-.03.622.034.936.134.596.19 1.162.45 1.707.733.71.372 1.39.809 2.034 1.3.836.639 1.584 1.361 2.273 2.152.624.716 1.17 1.49 1.62 2.325.294.545.55 1.11.812 1.67.08.171.135.355.18.54.103.427-.229.936-.534 1.163-.193.146-.405.155-.63.155Z" fill="#4B6584" stroke="#4B6584" stroke-miterlimit="10"/></svg>