<svg width="77" height="79" fill="none" xmlns="http://www.w3.org/2000/svg"><path d="M42.968 45.025c-.089-.13-.156-.257-.25-.358-1.137-1.257-2.28-2.51-3.42-3.765-.138-.151-.262-.312-.4-.463-.19-.206-.292-.217-.544-.103-.463.208-.922.423-1.394.612-.661.266-1.35.439-2.05.586-.729.151-1.453.136-2.183.138-.833.004-1.606-.23-2.318-.63-.876-.491-1.617-1.132-2.096-2.025-.21-.39-.365-.8-.407-1.246-.025-.25-.103-.496-.112-.746-.024-.603.114-1.187.247-1.773.323-1.402 1.03-2.61 1.884-3.75.187-.247.185-.296-.046-.497-.09-.08-.2-.14-.274-.233-.323-.4-.386-.764-.03-1.202.286-.35.847-.41 1.21-.136.191.144.367.307.543.458.452-.329.875-.669 1.33-.963 1.124-.726 2.356-1.183 3.71-1.226.913-.031 1.79.133 2.543.715.526.406.893.917 1.002 1.564.09.531-.27 1.328-.906 1.578-.308.12-.6.125-.927.048a27.068 27.068 0 0 0-2.327-.457c-.788-.111-1.485.152-2.082.668-.183.158-.174.232.018.44.514.558 1.038 1.108 1.547 1.67.622.687 1.232 1.383 1.847 2.074.291.327.347.324.739.149.514-.23 1.035-.45 1.563-.65a18.24 18.24 0 0 1 1.548-.517 6.565 6.565 0 0 1 1.252-.242c.743-.057 1.487-.04 2.215.156.66.178 1.296.41 1.869.781.628.408 1.213.869 1.69 1.453.512.63.815 1.334.888 2.148a7.144 7.144 0 0 1-.046 1.619 6.577 6.577 0 0 1-.49 1.676 12.426 12.426 0 0 1-1.735 2.922c-.067.084-.12.18-.205.31.203.18.403.362.608.54.218.188.448.366.661.559.277.248.388.665.234.985-.156.331-.4.568-.813.566-.262-.002-.496-.037-.699-.234-.31-.303-.641-.586-.966-.876-.248-.22-.3-.224-.544-.004-.458.41-.933.794-1.476 1.097-.477.265-.969.47-1.499.607-.59.152-1.184.288-1.795.25-1.427-.087-2.732-.502-3.794-1.498-.421-.395-.753-.858-.811-1.435-.027-.257.04-.557.163-.79A1.82 1.82 0 0 1 37 44.6c.28-.044.608.037.882.143.332.127.633.337.944.517.47.27.925.558 1.474.674.593.125 1.139.015 1.669-.224.35-.154.674-.364 1-.684Zm-2.806-5.55c.272.306.513.587.764.859a694.692 694.692 0 0 0 3.027 3.231c.271.288.371.268.608-.067.336-.481.645-.972.806-1.547.251-.891.225-1.74-.403-2.475-.604-.709-1.397-.992-2.34-.906-.807.072-1.513.428-2.243.715-.07.028-.123.107-.219.19Zm-4.244-2.393c-1.207-1.343-2.387-2.644-3.666-3.864-.089.062-.16.092-.204.145-.666.792-1.085 1.668-.96 2.732.055.476.263.866.603 1.198.72.697 1.613.743 2.517.56.487-.1.944-.35 1.41-.545.097-.044.177-.134.3-.226ZM51.473 13.533c.002.286-.076.542-.25.775-1.2 1.615-2.36 3.262-3.718 4.756a37.797 37.797 0 0 1-4.098 3.904c-.661.54-1.33 1.075-2.035 1.555-.608.415-1.359.185-1.704-.45-.318-.588-.096-1.158.36-1.496.992-.73 1.945-1.5 2.874-2.308a32.27 32.27 0 0 0 3.073-3.072c1.202-1.373 2.262-2.854 3.329-4.329.316-.438.864-.594 1.452-.405.41.134.715.585.717 1.07ZM37.28 54.801c.01.474-.284.757-.614 1.018-.79.63-1.592 1.246-2.362 1.9a31.586 31.586 0 0 0-3.944 4.011c-.595.72-1.147 1.472-1.713 2.216-.332.439-.646.89-.98 1.327-.305.4-.833.586-1.296.446-.499-.152-.784-.505-.873-1.005-.053-.3.06-.573.232-.812.352-.496.708-.992 1.082-1.474.72-.93 1.423-1.87 2.18-2.77 1.27-1.507 2.695-2.865 4.214-4.124.694-.575 1.414-1.123 2.128-1.674.684-.524 1.477-.244 1.809.393.084.162.093.364.138.548Z" fill="#4B6584"/><path d="M3.267 49.748c.143-.55.343-1.09.546-1.621.106-.283.22-.566.338-.845.033-.079.067-.156.098-.235-.26.626-.11.253-.044.108.075-.171.15-.345.231-.516.368-.8.766-1.586 1.192-2.358a39.167 39.167 0 0 1 2.69-4.215 37.312 37.312 0 0 1 .812-1.075c-.365.476.056-.066.147-.18a42.273 42.273 0 0 1 6.247-6.25c.158-.13.318-.258.479-.385.151-.118.37-.235.492-.382-.194.233-.2.152-.09.068a41.696 41.696 0 0 1 .853-.628c.713-.51 1.44-1 2.18-1.47a47.784 47.784 0 0 1 4.947-2.73c1.832-.876 3.716-1.629 5.518-2.572a44.254 44.254 0 0 0 4.721-2.85c4.65-3.228 8.698-7.374 11.377-12.346 1.185-2.199 2.245-4.63 2.655-7.107.029-.175.051-.357.073-.53L45.88 2.79l2.815 2.683 6.758 6.442 8.173 7.791 7.062 6.732c1.136 1.084 2.242 2.218 3.418 3.258l.05.046c-.144-.533-.288-1.066-.43-1.602-.145.558-.353 1.102-.562 1.637-.047.119-.093.24-.142.358l-.087.208a2.124 2.124 0 0 0-.045.108c-.113.274.183-.42.09-.211a34.814 34.814 0 0 1-1.704 3.388 38.621 38.621 0 0 1-1.72 2.727c-.351.509-.714 1.009-1.086 1.503-.094.123-.19.245-.283.368-.19.246.26-.329.067-.085-.05.061-.098.125-.15.186-.22.274-.443.546-.667.816a45.051 45.051 0 0 1-7.116 6.776c-.285.22.234-.176.045-.033a47.076 47.076 0 0 1-1.35.985 49.079 49.079 0 0 1-2.344 1.553 55.031 55.031 0 0 1-5.34 2.925c-1.916.917-3.87 1.735-5.742 2.747a44.268 44.268 0 0 0-4.859 3.039c-4.534 3.28-8.51 7.49-10.798 12.607-.701 1.566-1.285 3.181-1.632 4.862-.18.868-.346 1.772-.357 2.663l-.002.099 2.85-1.163-2.776-2.788-6.67-6.697-8.072-8.102c-2.328-2.337-4.655-4.674-6.982-7.008-1.131-1.137-2.24-2.304-3.4-3.414l-.05-.048c-.612-.615-1.754-.652-2.362 0-.617.662-.655 1.67 0 2.328l2.777 2.788 6.67 6.696 8.072 8.103 6.981 7.008c1.132 1.134 2.23 2.317 3.4 3.414.019.015.034.033.05.048 1.018 1.02 2.853.255 2.85-1.163 0-.14.01-.28.02-.419.014-.167.03-.336.05-.502.022-.182.095-.615-.02.134.02-.125.035-.248.055-.373.23-1.4.628-2.774 1.14-4.097.08-.208.165-.414.252-.62.138-.332-.192.438-.01.021l.172-.38c.22-.475.455-.943.704-1.403a26.859 26.859 0 0 1 2.403-3.684c.071-.093.27-.332-.067.083.051-.061.1-.125.15-.189a31.67 31.67 0 0 1 1.721-1.966c1.086-1.14 2.26-2.2 3.494-3.183.16-.127.323-.252.483-.38.292-.228-.307.228-.007.007l.252-.189a42.014 42.014 0 0 1 3.425-2.278 50.974 50.974 0 0 1 5.614-2.886c3.592-1.589 7.035-3.485 10.206-5.788 4.821-3.502 9.037-7.805 12.168-12.853a36.738 36.738 0 0 0 2.576-4.983c.321-.755.637-1.525.855-2.317l.03-.1c.146-.565.002-1.19-.43-1.602-.938-.896-1.878-1.789-2.815-2.684l-6.759-6.441c-2.723-2.598-5.45-5.194-8.173-7.792l-7.061-6.73c-1.138-1.085-2.252-2.206-3.419-3.26L48.24.47a1.7 1.7 0 0 0-1.824-.34c-.666.276-.938.83-1.027 1.503.122-.91.027-.217-.018-.002-.08.397-.178.792-.287 1.182-.172.61-.372 1.213-.592 1.806-.139.368-.288.735-.44 1.097.273-.65-.013.024-.09.197a29.634 29.634 0 0 1-1.808 3.355A29.578 29.578 0 0 1 40.7 11.39c-.093.125-.187.25-.282.373l-.145.186c.34-.447.091-.116.013-.02a34.289 34.289 0 0 1-2.706 2.993 37.095 37.095 0 0 1-3.2 2.8c-.09.07-.487.316-.069.057-.721.45-1.383 1.013-2.09 1.483-.758.502-1.533.98-2.321 1.435-1.73.998-3.53 1.871-5.367 2.663-3.416 1.473-6.67 3.313-9.642 5.536-4.595 3.434-8.547 7.66-11.478 12.565A38.374 38.374 0 0 0 .92 46.444c-.316.76-.626 1.534-.84 2.328l-.029.1c-.218.832.276 1.826 1.167 2.026.864.193 1.815-.259 2.049-1.15Z" fill="#4B6584"/></svg>