<svg width="66" height="60" fill="none" xmlns="http://www.w3.org/2000/svg"><path d="M8.934 34.133c2.848 4.397 5.4 9.026 8.627 13.129 3.204 4.074 7.09 7.619 10.578 11.512-2.41-2.28-4.895-4.488-7.218-6.852-5.955-6.07-10.836-12.945-15.148-20.25C3.59 27.974 1.367 24.33.5 20.052-.504 15.106-.106 10.38 2.708 6.045 6.008.963 11.822-1.028 17.72.505c4.802 1.248 7.846 4.611 10.618 8.238 1.958 2.566 3.397 5.522 5.102 8.356.13-.193.381-.566.64-.937 3.019-4.318 6.83-7.656 12.107-8.763 8.525-1.784 17.019 1.979 19.347 10.917 1.2 4.601-.015 8.766-2.508 12.651-2.12 3.307-5.057 5.841-8.039 8.33-4.968 4.148-9.926 8.31-14.011 13.378-.591.733-1.1 1.532-1.66 2.29-1.27 1.714-2.553 3.421-4.014 5.035.105-.28.173-.583.321-.84 2.647-4.582 5.802-8.792 9.029-12.994 2.544-3.313 5.594-6.003 8.545-8.851.125-.119.201-.286.304-.433l-.242-.266c-1.833 1.548-3.73 3.03-5.486 4.66-3.679 3.415-7.72 6.484-10.413 10.85-1.293 2.098-2.703 4.122-4.06 6.18l-.391-.262c2.157-3.118 4.235-6.297 6.495-9.344 4.108-5.535 9.341-9.99 14.347-14.67 3.007-2.811 5.5-6.115 6.376-10.28 1.302-6.2-3.988-11.515-10.316-10.952-6.965.623-10.384 5.147-13.034 10.711-.736 1.546-1.023 3.299-1.574 4.935-1.152 3.415-.97 7.232-3.153 10.33-1.222-2.665-.54-5.443-.463-8.186.034-1.187.005-2.373.005-3.56-.201 0-.406.003-.608.006v5.196l-.315.011-.276-1.166-.623.39c-.048-.223-.116-.39-.11-.555.184-6.022-1.448-11.549-4.589-16.654-1.75-2.845-3.937-5.3-6.734-7.186-3.869-2.605-8.354-1.713-10.876 2.18-2.191 3.38-2.28 7.065-1.242 10.762 1.785 6.365 4.801 12.155 8.667 17.527 1.515 2.103 2.704 4.46 4.355 6.444 2.769 3.327 5.8 6.438 8.699 9.66a46.15 46.15 0 0 1 3.271 4.038c-1.532-1.316-3.152-2.545-4.573-3.97-3.161-3.173-6.047-6.64-9.373-9.626-3.308-2.976-5.241-6.895-7.942-10.27l-.378.309-.011.008Z" fill="#4B6584"/></svg>