<svg width="94" height="66" fill="none" xmlns="http://www.w3.org/2000/svg"><path d="M15.3 4.595a3273.007 3273.007 0 0 0-2.768 17.444c-.821 5.264-1.628 10.53-2.412 15.8A1029.804 1029.804 0 0 0 7.97 52.947c-.484 3.625-.992 7.26-1.262 10.908-.02.264-.037.528-.051.792-.04.727.641 1.346 1.332 1.346H71.21c.856 0 1.713.014 2.57 0h.11c.781 0 1.25-.621 1.332-1.346a1749.653 1749.653 0 0 1 2.056-17.112c.318-2.534.641-5.068.972-7.6.087-.666.174-1.331.263-1.997l.123-.923c.01-.084.051-.39-.004.022.01-.084.023-.169.034-.251.026-.196.051-.393.078-.589.176-1.32.355-2.641.538-3.962.697-5.057 1.423-10.11 2.248-15.147.599-3.658 1.194-7.345 2.12-10.936.073-.282.149-.562.229-.842.242-.841-.43-1.703-1.285-1.703H19.261c-.855 0-1.711-.014-2.566 0h-.11c-.697 0-1.365.62-1.333 1.346.032.729.586 1.346 1.333 1.346h63.332c.855 0 1.712.025 2.566 0 .037-.002.073 0 .11 0L81.31 4.597c-.953 3.313-1.505 6.76-2.08 10.157-.838 4.96-1.565 9.938-2.261 14.921-.745 5.33-1.445 10.667-2.12 16.007-.542 4.285-1.066 8.572-1.576 12.861-.238 2.003-.547 4.016-.704 6.028-.001.026-.005.053-.009.08l1.333-1.345H10.671c-.854 0-1.714-.026-2.569 0h-.11l1.332 1.345c.175-3.271.637-6.537 1.06-9.783l.104-.804.045-.341c.009-.068.02-.136.026-.206a307.036 307.036 0 0 1 .238-1.759c.164-1.193.33-2.385.496-3.578.368-2.606.745-5.21 1.13-7.813.78-5.287 1.587-10.572 2.406-15.853.674-4.34 1.358-8.681 2.049-13.02.323-2.034.66-4.063.979-6.096.003-.03.009-.056.014-.085.112-.692-.177-1.482-.93-1.656-.644-.15-1.52.195-1.64.938Z" fill="#4B6584"/><path d="M81.307 5.311c.316 1.314.62 2.63.922 3.948a642.686 642.686 0 0 1 2.244 10.186c.983 4.633 1.916 9.279 2.783 13.935.942 5.05 1.809 10.114 2.539 15.2.09.632.18 1.261.265 1.893.02.14.037.282.056.422l.03.23c-.058-.43-.019-.144-.006-.053.042.329.087.659.128.987.15 1.188.293 2.378.422 3.568.24 2.207.443 4.418.57 6.636.031.51.056 1.017.077 1.527l2.275-.951c-.965-.786-1.93-1.572-2.895-2.36l-4.59-3.742-1.062-.866c-.563-.46-1.33-.556-1.885 0a46.969 46.969 0 0 1-2.026 1.884 62.477 62.477 0 0 1-2.754 2.302l-.148.113-.37.284c-.447.335-.897.664-1.355.983a31.365 31.365 0 0 1-3.316 2.046c-.618.327-.854 1.25-.477 1.841.406.635 1.162.833 1.823.483 2.096-1.11 4.03-2.503 5.89-3.977a60.547 60.547 0 0 0 3.907-3.375c.238-.224.476-.45.71-.682h-1.886c.965.786 1.93 1.572 2.894 2.36l4.59 3.741 1.063.867c.43.35.918.508 1.455.278.469-.2.842-.696.819-1.23-.195-4.684-.737-9.35-1.37-13.992-.691-5.08-1.532-10.14-2.45-15.182-.87-4.782-1.814-9.55-2.81-14.307A640.575 640.575 0 0 0 85.016 9.52c-.368-1.619-.705-3.253-1.128-4.86l-.016-.066c-.165-.683-.968-1.159-1.64-.94a1.377 1.377 0 0 0-.924 1.656Z" fill="#4B6584"/><path d="M83.97 55.478h-9.165c-.696 0-1.364.62-1.332 1.346.032.729.586 1.346 1.332 1.346h9.165c.697 0 1.365-.62 1.333-1.346-.032-.729-.585-1.346-1.333-1.346Z" fill="#4B6584"/><path d="M19.557 18.03S17.965 53.717.881 60.254h44.43c3.74 0 7.506.158 11.246-.095 5.455-.368 11.546-2.159 14.46-7.259.762-1.333 1.247-2.812 1.494-4.328 2.122-13.075 3.185-25.507 4.67-30.544" fill="#fff"/><path d="M18.669 18.029a64.567 64.567 0 0 1-.282 3.566 101.192 101.192 0 0 1-.322 2.826c-.021.17-.045.34-.066.511.037-.28-.002.018-.01.081l-.045.325c-.224 1.622-.485 3.239-.785 4.848-.702 3.769-1.612 7.507-2.833 11.139a60.596 60.596 0 0 1-1.297 3.5c-.046.11-.09.222-.137.333l-.003.007-.094.22c-.2.466-.404.927-.617 1.384-.823 1.766-1.755 3.485-2.84 5.102a29.992 29.992 0 0 1-1.007 1.412 33 33 0 0 1-.554.693c-.59.712-1.22 1.39-1.893 2.026a20.11 20.11 0 0 1-.993.877c-.082.069-.165.135-.249.203a4.77 4.77 0 0 1-.112.088c.152-.118.022-.018-.016.013-.179.134-.358.269-.541.398a16.586 16.586 0 0 1-2.849 1.615c-.044.02-.197.083-.016.007l-.131.054c-.11.045-.22.088-.33.131-.413.16-.706.517-.637.985.066.436.421.78.873.78h24.302c8.107 0 16.215-.047 24.323.035 6.296.065 13.439.127 18.735-3.88 2.673-2.02 4.478-4.9 5.08-8.23.706-3.893 1.196-7.84 1.722-11.762.459-3.417.889-6.837 1.372-10.252.355-2.507.71-5.028 1.285-7.495.1-.436.213-.872.339-1.301.325-1.11-1.39-1.585-1.713-.478-.625 2.137-.961 4.366-1.295 6.566-.489 3.203-.898 6.417-1.32 9.63a578.887 578.887 0 0 1-1.578 11.323c-.281 1.848-.475 3.748-1.12 5.514a10.753 10.753 0 0 1-2.4 3.804c-4.31 4.435-11.045 4.77-16.852 4.78-3.977.006-7.951-.05-11.928-.05H.884l.237 1.763c3.589-1.384 6.483-3.934 8.792-6.99 2.413-3.194 4.145-6.873 5.53-10.623 1.364-3.698 2.37-7.526 3.15-11.391.64-3.171 1.124-6.373 1.476-9.588.16-1.461.368-2.963.377-4.436 0-.022.002-.043.003-.065.022-.484-.424-.897-.888-.897-.503.002-.87.413-.892.899Z" fill="#4B6584"/><path d="M27.582 27.03a52.51 52.51 0 0 1-.15 2.304 93.892 93.892 0 0 1-.426 4.09l-.05.39c-.025.195.032-.238.002-.01-.01.084-.023.169-.034.253-.039.28-.078.56-.119.838a74.115 74.115 0 0 1-1.48 7.524 51.403 51.403 0 0 1-1.15 3.905 41.748 41.748 0 0 1-.877 2.346l-.04.093a31.244 31.244 0 0 1-.49 1.098 24.122 24.122 0 0 1-1.83 3.273c-.169.252-.343.497-.524.74l-.053.071c-.104.139.136-.175.03-.039l-.123.158a13.626 13.626 0 0 1-1.464 1.59 11.74 11.74 0 0 1-.618.533c-.365.294-.327.965 0 1.269.387.358.867.313 1.256 0 1.905-1.535 3.326-3.645 4.433-5.815 1.248-2.445 2.16-5.062 2.888-7.709.693-2.53 1.215-5.107 1.622-7.698.329-2.096.588-4.203.775-6.317.083-.944.186-1.9.197-2.85l.002-.04c.017-.47-.422-.92-.889-.898a.92.92 0 0 0-.888.901ZM38.513 27.03a95.084 95.084 0 0 1-.167 2.47c-.158 2.04-.354 4.078-.588 6.111a132.13 132.13 0 0 1-.23 1.87l-.058.445c-.027.2.028-.212-.004.021-.012.096-.025.19-.039.284-.044.327-.09.653-.136.98-.192 1.337-.407 2.67-.65 3.998-.465 2.545-1.02 5.084-1.822 7.544a28.842 28.842 0 0 1-.729 1.999l-.03.074c-.06.149.093-.218.029-.069l-.086.198a21.03 21.03 0 0 1-.323.705c-.21.43-.435.852-.69 1.256-.113.181-.23.36-.357.531l-.09.124c-.084.113.153-.194.065-.084a1.06 1.06 0 0 1-.037.046 5.888 5.888 0 0 1-.592.655c-.337.323-.346.948 0 1.27a.901.901 0 0 0 1.257 0c1.462-1.399 2.303-3.423 2.978-5.298.867-2.408 1.453-4.917 1.942-7.427.526-2.692.924-5.41 1.258-8.131.265-2.157.481-4.32.657-6.484.082-1.012.19-2.033.214-3.049l.001-.04c.025-.471-.426-.92-.888-.898-.5.025-.858.396-.885.899ZM49.549 27.03a95.084 95.084 0 0 1-.167 2.47c-.158 2.04-.354 4.078-.588 6.111a132.13 132.13 0 0 1-.23 1.87l-.058.445c-.027.2.028-.212-.004.021a183.003 183.003 0 0 1-.176 1.263c-.191 1.338-.406 2.671-.648 3.999-.465 2.545-1.022 5.084-1.823 7.544a28.842 28.842 0 0 1-.729 1.999l-.03.074c-.06.149.093-.218.029-.069l-.086.198a21.03 21.03 0 0 1-.323.705c-.21.43-.435.852-.69 1.256a8.92 8.92 0 0 1-.357.531l-.09.124c-.084.113.153-.194.066-.084a.991.991 0 0 1-.038.046 5.888 5.888 0 0 1-.592.655c-.337.323-.346.948 0 1.27a.901.901 0 0 0 1.257 0c1.462-1.399 2.303-3.423 2.978-5.298.867-2.408 1.453-4.917 1.942-7.427.526-2.692.924-5.41 1.258-8.131.265-2.157.481-4.32.657-6.484.082-1.012.19-2.033.214-3.049l.001-.04c.025-.471-.426-.92-.888-.898-.5.025-.858.396-.885.899ZM61.65 27.03a95.528 95.528 0 0 1-.168 2.47c-.158 2.04-.353 4.078-.588 6.111a132.13 132.13 0 0 1-.229 1.87l-.059.445c-.026.2.029-.212-.003.021-.013.096-.025.19-.04.284-.044.327-.09.653-.136.98-.192 1.337-.407 2.67-.649 3.998-.465 2.545-1.021 5.084-1.823 7.544a28.922 28.922 0 0 1-.728 1.999l-.03.074c-.06.149.092-.218.028-.069l-.085.198a21.03 21.03 0 0 1-.324.705c-.21.43-.435.852-.689 1.256a8.873 8.873 0 0 1-.448.655c-.083.113.153-.194.066-.084l-.037.046c-.068.085-.135.17-.206.25a5.91 5.91 0 0 1-.386.405c-.338.323-.346.948 0 1.27a.901.901 0 0 0 1.256 0c1.462-1.399 2.303-3.423 2.978-5.298.867-2.408 1.454-4.917 1.942-7.427.526-2.692.924-5.41 1.258-8.131.265-2.157.482-4.32.658-6.484.081-1.012.19-2.033.213-3.049l.002-.04c.025-.471-.427-.92-.889-.898-.499.025-.86.396-.884.899Z" fill="#4B6584"/><path d="M20.194 33.614h46.731c.63 0 1.263.009 1.894 0h.084c.465 0 .91-.413.888-.897-.021-.487-.39-.898-.888-.898H22.17c-.63 0-1.263-.009-1.894 0h-.084c-.465 0-.91.413-.888.898.021.486.391.897.889.897ZM20.194 42.182H65.804c.617 0 1.234.01 1.85 0h.08c.466 0 .91-.412.889-.897-.022-.486-.391-.897-.889-.897H22.123c-.616 0-1.233-.009-1.85 0h-.08c-.465 0-.91.413-.888.897.021.487.391.898.889.898ZM17.33 51.078H63.555c.624 0 1.247.009 1.871 0h.082c.465 0 .91-.413.888-.898-.021-.486-.39-.897-.888-.897H19.282c-.624 0-1.247-.009-1.871 0h-.082c-.465 0-.91.413-.888.898.021.484.389.897.888.897ZM28.47 23.777h-7.216l.889.897v-2.572l-.889.898h7.216l-.888-.898v2.572c0 .47.408.919.888.897.482-.022.889-.395.889-.897v-2.572a.906.906 0 0 0-.889-.897h-7.216c-.48 0-.888.411-.888.897v2.572c0 .484.407.897.888.897h7.216c.466 0 .91-.413.889-.897-.022-.486-.39-.897-.889-.897ZM38.55 23.777h-7.216l.889.897v-2.572l-.889.898h7.216l-.888-.898v2.572c0 .47.409.919.888.897.482-.022.889-.395.889-.897v-2.572a.906.906 0 0 0-.889-.897h-7.216c-.48 0-.888.411-.888.897v2.572c0 .484.407.897.888.897h7.216c.466 0 .91-.413.889-.897-.022-.486-.391-.897-.889-.897ZM50.011 23.777h-7.216l.889.897v-2.572l-.889.898h7.216l-.888-.898v2.572c0 .47.408.919.888.897.481-.022.888-.395.888-.897v-2.572a.906.906 0 0 0-.888-.897h-7.216c-.48 0-.888.411-.888.897v2.572c0 .484.407.897.888.897h7.216c.465 0 .91-.413.888-.897-.02-.486-.39-.897-.888-.897ZM61.259 23.777h-7.216l.888.897v-2.572l-.888.898h7.216l-.889-.898v2.572c0 .47.409.919.889.897.481-.022.888-.395.888-.897v-2.572a.906.906 0 0 0-.888-.897h-7.216c-.48 0-.889.411-.889.897v2.572c0 .484.407.897.889.897h7.216c.465 0 .91-.413.888-.897-.021-.486-.39-.897-.888-.897ZM72.51 23.777h-7.216l.888.897v-2.572l-.888.898h7.216l-.889-.898v2.572c0 .47.409.919.889.897.481-.022.888-.395.888-.897v-2.572a.906.906 0 0 0-.888-.897h-7.216c-.48 0-.889.411-.889.897v2.572c0 .484.407.897.889.897h7.216c.465 0 .91-.413.888-.897-.021-.486-.39-.897-.888-.897ZM78.533 4.715l-.75 4.433a9512.032 9512.032 0 0 0-1.46 8.644l.856-.659H21.9c-.748 0-1.501-.023-2.25 0-.031.002-.061 0-.093 0l.888.898a9321.195 9321.195 0 0 1 1.023-11.465l.145-1.612c.042-.483-.44-.897-.889-.897-.517 0-.846.413-.888.897l-.393 4.407-.63 7.058-.145 1.611c-.042.485.443.898.889.898H74.836c.75 0 1.5.016 2.249 0h.094c.357 0 .793-.277.857-.659l.75-4.432c.396-2.342.792-4.686 1.186-7.027l.274-1.617c.08-.478-.126-.966-.62-1.104-.428-.12-1.013.146-1.093.626Z" fill="#4B6584"/><path d="M64.658 8.129a7.386 7.386 0 0 1-.281-.022c-.059-.005-.338-.032-.12-.01a7.437 7.437 0 0 1-1.134-.255 4.98 4.98 0 0 1-.274-.096c-.059-.021-.297-.127-.124-.046a5.778 5.778 0 0 1-.514-.264 5.494 5.494 0 0 1-.242-.153c-.053-.035-.248-.193-.106-.071a4.253 4.253 0 0 1-.31-.286 2.659 2.659 0 0 1-.133-.15c-.02-.024-.04-.061-.064-.08.023.02.116.16.048.062a5.258 5.258 0 0 1-.408-.716c-.063-.135.026.055.028.068-.004-.029-.027-.07-.037-.099a5.135 5.135 0 0 1-.226-.825l-.018-.106c-.028-.15.01.063.01.079-.004-.153-.033-.305-.038-.458a5.178 5.178 0 0 1 .016-.62l.01-.107c.015-.161-.028.166-.007.054.054-.278.109-.549.206-.816.013-.032.027-.065.038-.097.028-.09-.043.099-.041.095.037-.054.057-.127.087-.187.064-.129.137-.254.219-.375.02-.028.04-.055.058-.084.059-.095-.122.144-.048.06.04-.044.075-.092.114-.137.098-.108.206-.201.31-.3.083-.077-.152.108-.058.045.029-.02.055-.041.084-.06a2.486 2.486 0 0 1 .332-.197c.03-.016.06-.028.092-.044.139-.069-.152.053-.05.021.122-.038.237-.082.36-.111.064-.016.13-.027.195-.041.144-.031-.076.01-.089.01.041 0 .084-.009.125-.012.124-.011.248-.015.373-.011.066.002.133.005.199.013.241.021-.162-.035.035.003.267.05.512.135.77.217.106.034-.175-.082-.075-.032.03.014.06.027.09.043a3.31 3.31 0 0 1 .595.359c.091.06-.159-.133-.042-.034.057.048.112.095.167.145.109.1.205.208.302.318.121.138-.108-.156.022.03.04.06.08.12.115.183.036.063.071.126.102.19.103.212-.049-.154.014.027.048.139.085.275.117.417.04.185-.014-.208.005.027.006.073.01.149.01.224 0 .077-.008.153-.013.228-.006.086-.05.074.012-.084-.016.037-.016.09-.023.129-.035.172-.089.339-.153.504-.17.438.187 1.005.62 1.104.512.118.91-.158 1.093-.627.544-1.39.1-2.966-.984-3.956-1.065-.973-2.543-1.42-3.957-1.126-1.473.307-2.548 1.544-2.936 2.97-.378 1.395-.193 2.98.512 4.239 1.004 1.79 3.09 2.505 5.02 2.625.465.029.91-.434.888-.897-.023-.511-.39-.865-.888-.897ZM73.736 8.129a7.418 7.418 0 0 1-.281-.022c-.059-.005-.338-.032-.12-.01a7.439 7.439 0 0 1-1.134-.255 4.98 4.98 0 0 1-.274-.096c-.059-.021-.297-.127-.125-.046a5.792 5.792 0 0 1-.513-.264 5.49 5.49 0 0 1-.242-.153c-.053-.035-.248-.193-.106-.071a4.23 4.23 0 0 1-.31-.286 2.7 2.7 0 0 1-.133-.15c-.02-.024-.04-.061-.064-.08.023.02.116.16.048.062a5.279 5.279 0 0 1-.409-.716c-.062-.135.027.055.029.068-.004-.029-.027-.07-.037-.099a5.173 5.173 0 0 1-.226-.825l-.018-.106c-.028-.15.01.063.01.079-.004-.153-.033-.305-.038-.458a5.13 5.13 0 0 1 .002-.405c.003-.072.008-.144.014-.216l.01-.106c.015-.161-.028.166-.007.054.054-.278.109-.549.207-.816.012-.032.026-.065.037-.097.028-.09-.043.099-.041.095.037-.054.057-.127.087-.187a3.16 3.16 0 0 1 .218-.375c.02-.028.041-.055.06-.084.058-.095-.123.144-.049.06.04-.044.075-.092.114-.137.098-.108.206-.201.31-.3.083-.077-.152.108-.058.045.029-.02.055-.041.084-.06l.152-.098c.06-.036.12-.068.18-.099.03-.016.06-.028.092-.044.139-.069-.152.053-.05.021.121-.038.237-.082.36-.111.064-.016.13-.027.195-.041.144-.031-.076.01-.089.01.041 0 .084-.009.125-.012a3.237 3.237 0 0 1 .572.002c.241.021-.162-.035.035.003.267.05.512.135.77.217.106.034-.175-.082-.075-.032.03.014.06.027.09.043a3.31 3.31 0 0 1 .515.301l.08.058c.091.06-.159-.133-.042-.034.057.048.112.095.167.145.109.1.205.208.302.318.121.138-.108-.156.022.03a2.762 2.762 0 0 1 .217.373c.102.212-.049-.154.014.027.048.139.085.275.117.417.04.185-.014-.208.005.027.006.073.01.149.01.224 0 .077-.008.153-.013.228-.006.086-.05.074.012-.084-.016.037-.016.09-.023.129-.035.172-.089.339-.153.504-.17.438.187 1.005.62 1.104.512.118.91-.158 1.093-.627.544-1.39.1-2.966-.984-3.956C74.032.242 72.554-.205 71.14.089c-1.473.307-2.548 1.544-2.936 2.97-.378 1.395-.193 2.98.512 4.239 1.004 1.79 3.09 2.505 5.02 2.625.465.029.91-.434.888-.897-.021-.511-.39-.865-.888-.897ZM29.641 8.129a7.407 7.407 0 0 1-.28-.022c-.06-.005-.338-.032-.12-.01a7.439 7.439 0 0 1-1.134-.255 4.98 4.98 0 0 1-.275-.096c-.058-.021-.297-.127-.124-.046a5.805 5.805 0 0 1-.514-.264 5.55 5.55 0 0 1-.241-.153c-.054-.035-.25-.193-.107-.071a4.232 4.232 0 0 1-.31-.286 2.7 2.7 0 0 1-.132-.15c-.02-.024-.041-.061-.064-.08.023.02.115.16.048.062a5.268 5.268 0 0 1-.409-.716c-.062-.135.027.055.028.068-.003-.029-.026-.07-.037-.099a5.173 5.173 0 0 1-.226-.825c-.007-.036-.012-.072-.017-.106-.029-.15.008.063.008.079-.003-.153-.032-.305-.037-.458a5.178 5.178 0 0 1 .002-.405c.003-.072.009-.144.014-.216l.01-.106c.015-.161-.028.166-.006.054.053-.278.108-.549.206-.816.012-.032.027-.065.037-.097.029-.09-.042.099-.04.095.037-.054.056-.127.086-.187.064-.129.137-.254.219-.375.02-.028.04-.055.059-.084.058-.095-.123.144-.048.06.039-.044.074-.092.113-.137.098-.108.206-.201.311-.3.082-.077-.152.108-.058.045.028-.02.055-.041.083-.06a2.505 2.505 0 0 1 .332-.197c.03-.016.06-.028.093-.044.138-.069-.153.053-.05.021.12-.038.236-.082.359-.111.064-.016.13-.027.195-.041.144-.031-.076.01-.088.01.04 0 .083-.009.124-.012.124-.011.249-.015.373-.011.066.002.133.005.2.013.24.021-.163-.035.035.003.266.05.511.135.77.217.106.034-.175-.082-.076-.032.03.014.06.027.091.043a3.31 3.31 0 0 1 .515.301l.08.058c.09.06-.16-.133-.042-.034.056.048.112.095.167.145.108.1.204.208.302.318.12.138-.109-.156.021.03a2.805 2.805 0 0 1 .217.373c.103.212-.048-.154.014.027.048.139.085.275.117.417.041.185-.014-.208.006.027.005.073.009.149.009.224 0 .077-.008.153-.013.228-.005.086-.05.074.012-.084-.016.037-.015.09-.023.129-.035.172-.088.339-.152.504-.17.438.186 1.005.62 1.104.512.118.91-.158 1.093-.627.543-1.39.099-2.966-.985-3.956C29.938.242 28.46-.205 27.045.089c-1.473.307-2.548 1.544-2.935 2.97-.379 1.395-.194 2.98.511 4.239 1.004 1.79 3.09 2.505 5.02 2.625.466.029.91-.434.889-.897-.024-.511-.391-.865-.889-.897ZM38.719 8.129a7.418 7.418 0 0 1-.28-.022c-.06-.005-.338-.032-.12-.01a7.439 7.439 0 0 1-1.134-.255 4.98 4.98 0 0 1-.275-.096c-.058-.021-.296-.127-.124-.046a5.792 5.792 0 0 1-.514-.264 5.49 5.49 0 0 1-.241-.153c-.054-.035-.25-.193-.107-.071a4.23 4.23 0 0 1-.31-.286 2.66 2.66 0 0 1-.132-.15c-.02-.024-.041-.061-.064-.08.023.02.115.16.048.062a5.279 5.279 0 0 1-.41-.716c-.061-.135.028.055.03.068-.004-.029-.027-.07-.038-.099a5.173 5.173 0 0 1-.226-.825c-.007-.036-.012-.072-.017-.106-.029-.15.008.063.008.079-.003-.153-.032-.305-.037-.458a5.13 5.13 0 0 1 .002-.405l.014-.216.01-.106c.015-.161-.028.166-.006.054.053-.278.108-.549.206-.816.012-.032.026-.065.037-.097.029-.09-.043.099-.04.095.037-.054.056-.127.086-.187a3.16 3.16 0 0 1 .219-.375c.02-.028.04-.055.059-.084.058-.095-.123.144-.048.06.039-.044.074-.092.113-.137.098-.108.206-.201.311-.3.082-.077-.153.108-.058.045.028-.02.055-.041.083-.06a2.529 2.529 0 0 1 .332-.197c.03-.016.06-.028.093-.044.138-.069-.153.053-.05.021.12-.038.236-.082.359-.111.064-.016.13-.027.195-.041.144-.031-.076.01-.088.01.04 0 .083-.009.124-.012.124-.011.249-.015.373-.011.066.002.133.005.2.013.24.021-.163-.035.035.003.266.05.511.135.769.217.107.034-.174-.082-.075-.032.03.014.06.027.091.043a3.31 3.31 0 0 1 .515.301l.08.058c.09.06-.16-.133-.042-.034.056.048.112.095.167.145.108.1.204.208.302.318.12.138-.109-.156.021.03a2.762 2.762 0 0 1 .217.373c.103.212-.048-.154.014.027.048.139.085.275.117.417.041.185-.014-.208.006.027.005.073.009.149.009.224 0 .077-.008.153-.013.228-.005.086-.05.074.013-.084-.017.037-.017.09-.024.129-.035.172-.088.339-.152.504-.171.438.186 1.005.62 1.104.511.118.91-.158 1.093-.627.543-1.39.099-2.966-.985-3.956-1.064-.973-2.543-1.42-3.957-1.126-1.473.307-2.548 1.544-2.935 2.97-.379 1.395-.194 2.98.511 4.239 1.004 1.79 3.09 2.505 5.02 2.625.466.029.91-.434.889-.897-.024-.511-.391-.865-.889-.897ZM62.005 13.702H39.192c-1.045 0-2.099-.037-3.142 0h-.044l.888.898v-3.751l-.888.897h22.813c1.045 0 2.098.038 3.141 0h.045l-.889-.897v3.75c0 .47.41.92.889.898.481-.022.888-.395.888-.897v-3.751a.906.906 0 0 0-.888-.897H39.192c-1.047 0-2.097-.024-3.142 0h-.044c-.48 0-.889.41-.889.897v3.75c0 .485.407.898.889.898h22.813c1.046 0 2.097.023 3.141 0h.045c.465 0 .91-.413.888-.897-.021-.487-.39-.898-.888-.898Z" fill="#4B6584"/></svg>