<svg width="65" height="80" fill="none" xmlns="http://www.w3.org/2000/svg"><path d="M20.53 56.34c1.226 1.92 2.325 3.94 3.713 5.732 1.379 1.778 3.052 3.327 4.554 5.027-1.038-.995-2.108-1.96-3.105-2.993-2.564-2.651-4.664-5.652-6.52-8.842-.94-1.614-1.898-3.206-2.27-5.074-.432-2.159-.262-4.222.95-6.115 1.422-2.22 3.922-3.089 6.46-2.419 2.068.545 3.379 2.014 4.572 3.597.843 1.12 1.462 2.41 2.197 3.648.056-.085.164-.249.276-.409 1.3-1.885 2.941-3.342 5.211-3.825 3.668-.78 7.325.863 8.328 4.767.517 2.008-.005 3.827-1.079 5.525-.912 1.444-2.177 2.55-3.46 3.637-2.14 1.812-4.274 3.629-6.032 5.842-.255.32-.474.67-.715 1-.547.748-1.099 1.493-1.729 2.198.046-.123.075-.254.14-.367 1.138-2 2.498-3.84 3.886-5.674 1.094-1.447 2.407-2.62 3.678-3.864.054-.053.087-.125.13-.19-.036-.038-.07-.078-.105-.117-.79.676-1.605 1.323-2.361 2.036-1.584 1.49-3.324 2.83-4.482 4.738-.557.916-1.164 1.799-1.748 2.698-.056-.04-.112-.076-.17-.116.93-1.361 1.823-2.75 2.796-4.079 1.767-2.416 4.02-4.36 6.174-6.404 1.293-1.227 2.366-2.67 2.743-4.487.561-2.708-1.717-5.03-4.44-4.781-2.996.271-4.47 2.247-5.609 4.677-.317.674-.44 1.44-.678 2.155-.495 1.49-.416 3.157-1.358 4.509-.526-1.164-.232-2.376-.199-3.573.014-.518.002-1.036.002-1.555l-.261.002v2.268l-.135.006-.118-.51c-.078.048-.155.097-.27.172-.018-.098-.05-.17-.047-.243.079-2.63-.623-5.042-1.975-7.271-.754-1.243-1.695-2.315-2.898-3.138-1.665-1.137-3.597-.748-4.682.952-.943 1.475-.98 3.085-.533 4.698.767 2.78 2.067 5.308 3.73 7.653.651.918 1.164 1.947 1.873 2.813 1.192 1.453 2.497 2.811 3.744 4.218.495.559.967 1.137 1.408 1.762-.66-.574-1.358-1.111-1.969-1.733-1.361-1.385-2.602-2.899-4.033-4.204-1.425-1.3-2.257-3.01-3.419-4.484-.054.047-.11.092-.164.137Z" fill="#4B6584"/><mask id="a" fill="#fff"><path d="M30.176 79.993c-9.583 0-19.165-.002-28.748.004-.369 0-.694-.063-.988-.305-.242-.2-.387-.451-.406-.744-.029-.412-.068-.842.02-1.239.187-.865-.01-1.748.143-2.598.162-.907.09-1.813.16-2.718.06-.775.045-1.559.147-2.329.133-.998.021-2.012.166-2.994.13-.88.08-1.753.15-2.624.069-.87.03-1.753.164-2.608.143-.917-.014-1.845.145-2.74.156-.877.085-1.75.152-2.623.07-.87.033-1.753.165-2.608.14-.917-.014-1.845.145-2.74.156-.877.085-1.75.152-2.623.07-.877.03-1.768.167-2.632.143-.91-.018-1.828.143-2.715.158-.877.085-1.75.155-2.624.07-.87.03-1.752.164-2.608.143-.916-.012-1.844.145-2.74.155-.877.085-1.75.153-2.623.067-.877.029-1.768.166-2.632.143-.91-.014-1.826.145-2.715.131-.747.06-1.489.15-2.225a1.53 1.53 0 0 1 .484-.94c.254-.24.482-.508.73-.756.222-.223.461-.43.684-.655.241-.244.464-.506.707-.748.279-.28.575-.54.853-.817.188-.187.354-.396.54-.586.22-.224.45-.441.68-.656.178-.168.343-.367.551-.483.248-.136.534-.279.805-.281 3.58-.018 7.162-.012 10.743-.012.07 0 .14-.004.209 0 .203.016.288-.06.286-.281-.011-.79-.01-1.579-.002-2.368.008-.985.004-1.97.05-2.952.018-.357.163-.711.25-1.067.01-.037.021-.076.023-.115.025-.336.147-.639.298-.936.093-.183.124-.398.193-.595.049-.137.105-.274.174-.401.137-.246.283-.49.435-.727.163-.254.325-.508.505-.748.178-.238.363-.473.566-.69.285-.3.58-.59.886-.87.275-.251.557-.501.857-.72.203-.148.454-.23.669-.367.35-.223.725-.407.858-.877.074-.256.279-.475.426-.712.17-.275.325-.562.514-.824.145-.201.323-.379.499-.555.28-.283.565-.564.858-.834.213-.195.434-.381.666-.551.305-.223.616-.438.94-.633.287-.172.591-.322.897-.461.17-.078.361-.11.54-.174.235-.086.465-.186.697-.28a.446.446 0 0 1 .087-.025c.45-.066.9-.152 1.35-.191.644-.057 1.29-.106 1.933-.102.426.002.855.076 1.275.16.371.075.733.198 1.094.311.277.088.555.176.816.299.25.117.478.283.72.418.222.125.46.229.674.363.238.15.468.319.689.495.23.185.452.38.665.586.247.238.489.486.717.742.188.211.362.438.526.67.155.22.294.45.431.682.132.225.256.455.377.686.084.162.16.326.232.494.08.186.142.375.22.56.111.26.221.513.256.806.04.342.164.674.246 1.01.025.105.048.215.05.322.014.532.029 1.063.029 1.594.002 2.798.002 5.596.002 8.393 0 .461 0 .461.448.461 5.152 0 10.303-.002 15.452.004.503 0 .917.24 1.215.647a.95.95 0 0 1 .162.479c.075 1.428.133 2.856.201 4.284.046.988.031 1.987.178 2.96.131.879-.017 1.766.137 2.624.165.914.09 1.828.16 2.74.06.76.047 1.528.148 2.282.133.999.023 2.013.166 2.995.128.887.08 1.767.149 2.648.068.869.029 1.752.166 2.608.145.91-.015 1.828.145 2.715.16.893.085 1.782.155 2.671.068.846.03 1.706.162 2.538.145.924-.01 1.86.147 2.762.155.893.085 1.782.155 2.671.068.861.033 1.735.164 2.585.142.908-.01 1.828.145 2.715.157.893.085 1.782.155 2.67.068.87.03 1.753.164 2.61.142.9-.011 1.812.145 2.691.159.893.07 1.784.159 2.67.04.403.07.806.12 1.206.067.54-.18.934-.538 1.29-.35.35-.69.709-1.042 1.059-.338.336-.692.658-1.03.994-.275.272-.536.56-.809.834-.346.35-.698.692-1.046 1.04-.22.22-.425.457-.66.662-.208.185-.448.322-.75.289-.114-.012-.232-.002-.348-.002h-28.59Zm29.551-56.908c-.146.045-.228.049-.28.09-.118.095-.22.21-.329.32-.499.504-.992 1.012-1.496 1.51-.265.262-.449.522-.399.942.09.736.01 1.479.124 2.225.149.973.132 1.973.2 2.96.053.78 0 1.559.12 2.346.142.938.018 1.901.16 2.855.13.883.112 1.785.178 2.678.061.819-.016 1.64.13 2.462.152.865.003 1.758.142 2.645.153.973.132 1.973.197 2.96.053.78 0 1.559.12 2.344.143.93.018 1.885.159 2.831.131.889.114 1.801.18 2.702.06.819-.014 1.639.13 2.462.15.865.003 1.758.142 2.645.151.965.13 1.957.198 2.936.054.787-.004 1.575.121 2.368.145.914.014 1.854.155 2.784.137.904.135 1.832.176 2.749.029.654.029 1.313.046 1.969.002.096.058.192.062.287.018.38.045.76.023 1.14-.007.136-.121.279-.214.398-.186.242-.373.496-.733.48-.03-.002-.06.047-.093.055a.398.398 0 0 1-.158.008c-.087-.018-.17-.063-.257-.072-.31-.036-.758-.405-.815-.71a8.444 8.444 0 0 1-.131-.957c-.058-.877-.083-1.758-.15-2.635-.07-.881-.003-1.763-.154-2.65-.154-.91-.011-1.854-.15-2.785-.124-.829-.095-1.679-.159-2.515-.07-.897.004-1.795-.157-2.696-.154-.865 0-1.76-.14-2.645-.138-.871-.101-1.77-.169-2.655-.068-.881 0-1.762-.153-2.65-.154-.896-.008-1.822-.147-2.738-.127-.842-.096-1.71-.162-2.562-.07-.889.002-1.78-.155-2.672-.157-.887-.004-1.807-.145-2.716-.131-.85-.097-1.723-.164-2.585-.07-.889-.02-1.777-.151-2.672-.141-.967-.033-1.966-.164-2.948-.103-.77-.103-1.551-.145-2.329-.066-1.21-.136-2.419-.194-3.63-.017-.38-.002-.762-.002-1.166H39.927v.28c0 2.03.002 4.063-.002 6.095 0 .361.01.699-.276 1.021-.2.225-.38.34-.654.41-.205.053-.387.012-.567-.025-.168-.035-.357-.113-.47-.236-.25-.274-.37-.6-.367-1.002.02-2.087.01-4.173.01-6.26v-.283H22.745v.299c0 1.953-.004 3.907.004 5.86.002.454-.026.897-.316 1.263-.116.146-.284.318-.45.343-.368.057-.748.112-1.106-.119a.948.948 0 0 1-.431-.62c-.055-.257-.043-.528-.043-.794-.004-1.962-.002-3.923-.002-5.884 0-.368 0-.37-.358-.37H5.487c-.07.56-.155 1.085-.2 1.614-.075.902.014 1.809-.129 2.72-.131.85-.098 1.723-.164 2.584-.068.89.002 1.78-.155 2.673-.154.889-.004 1.807-.145 2.715-.131.85-.098 1.724-.164 2.585-.068.889.002 1.78-.155 2.673-.155.88-.002 1.791-.143 2.692-.133.858-.099 1.739-.166 2.608-.068.889.002 1.78-.155 2.673-.155.88-.002 1.791-.143 2.692-.133.857-.099 1.739-.166 2.608-.068.889.005 1.78-.157 2.672-.157.864.002 1.759-.14 2.646-.14.887-.102 1.801-.17 2.702-.065.865-.03 1.73-.144 2.602-.143 1.094-.035 2.215-.178 3.323-.083.647-.095 1.303-.132 1.956-.058 1.037-.023 2.08-.181 3.114-.064.412-.022.842-.024 1.264 0 .092.008.182.014.295h40.109c5.26 0 10.52 0 15.779-.002.1 0 .209.049.29-.104.073-.138.228-.232.346-.347.242-.235.49-.465.725-.706.224-.228.433-.47.658-.699.241-.244.492-.479.74-.719.298-.29.596-.578.891-.87.16-.158.325-.316.474-.486.13-.146.066-.324.048-.496-.096-.887-.007-1.778-.162-2.673-.158-.92.002-1.87-.149-2.809-.131-.817-.093-1.66-.158-2.49-.072-.89 0-1.78-.157-2.674-.158-.912 0-1.854-.147-2.787-.137-.864-.1-1.755-.166-2.632-.066-.881.004-1.762-.153-2.647-.155-.881-.002-1.792-.143-2.694-.137-.864-.1-1.755-.166-2.632-.066-.881.002-1.762-.155-2.647-.155-.881 0-1.792-.143-2.694-.137-.864-.1-1.755-.166-2.632-.068-.88-.008-1.762-.151-2.647-.15-.928-.016-1.887-.155-2.833-.118-.805-.099-1.631-.153-2.446-.063-.944-.007-1.889-.166-2.835-.137-.814-.021-1.65-.128-2.483-.152-1.193-.145-2.409-.195-3.616-.023-.397-.01-.793-.01-1.252ZM37.572 19.03c.011-.04.025-.063.023-.084-.064-1.641.126-3.286-.102-4.927-.078-.55-.18-1.08-.32-1.618-.12-.463-.351-.861-.539-1.28-.168-.38-.478-.699-.737-1.035-.216-.281-.398-.594-.706-.795-.08-.053-.146-.13-.22-.196-.184-.168-.348-.363-.553-.498-.35-.228-.723-.42-1.089-.625-.11-.062-.216-.146-.336-.182-.24-.072-.487-.117-.733-.173-.029-.006-.054-.026-.081-.036-.255-.086-.509-.246-.764-.246-.944.004-1.899-.191-2.833.117-.278.092-.574.135-.81.188-.083.225-.178.404-.21.592-.068.377-.144.76-.146 1.14-.015 3.18-.013 6.358-.017 9.537 0 .037.012.074.02.117 3.393.004 6.775.004 10.153.004Zm4.671.006c.006-.076.012-.123.012-.168-.004-3.197-.008-6.39-.015-9.587 0-.17-.01-.346-.047-.512-.071-.316-.172-.625-.251-.938-.064-.248-.114-.498-.172-.748-.006-.03-.025-.054-.04-.082-.185-.336-.357-.68-.556-1.006-.21-.348-.416-.707-.682-1.01-.327-.371-.712-.69-1.075-1.026a3.914 3.914 0 0 0-.472-.388c-.155-.106-.329-.182-.5-.264-.272-.131-.544-.262-.823-.377-.182-.075-.375-.12-.56-.186-.227-.082-.441-.22-.674-.248a19.44 19.44 0 0 0-1.904-.15c-.348-.008-.698.076-1.046.13-.256.041-.509.104-.762.157-.014.002-.023.02-.037.025-.218.094-.437.19-.657.28-.163.064-.343.095-.49.183-.317.186-.626.387-.922.606-.34.252-.675.516-.978.809-.081.078-.32.19-.126.422.162-.037.336-.116.51-.11.318.008.635.065.952.102.398.047.798-.022 1.199.14.43.174.907.24 1.363.352.023.006.046.006.068.016.193.095.384.193.578.29.102.052.207.1.311.15.166.076.34.136.495.228.2.12.383.262.572.395.279.195.57.373.83.59.306.257.588.547.872.83.18.18.365.357.518.56.194.256.356.538.532.807.191.295.4.583.565.893.137.258.222.545.332.819.145.36.31.713.428 1.08.063.197.075.407.139.614.122.392.176.82.181 1.234.022 1.602.014 3.204.018 4.806v.282h2.314Zm-2.316 4.835h15.222c.077 0 .154.002.232-.004.044-.004.102-.004.13-.031.376-.38.747-.762 1.12-1.145.271-.277.54-.555.809-.834.087-.092.168-.19.253-.285-.125-.02-.25-.055-.375-.055-5.667-.002-11.335-.002-17.002-.002-.047 0-.093.004-.14 0-.183-.02-.26.043-.253.246.016.43.004.86.004 1.29v.82Zm-17.161 0H37.203c.398 0 .398 0 .398-.412v-1.547c0-.399 0-.399-.406-.399H23.087c-.023 0-.046.002-.07 0-.205-.027-.286.041-.278.268.015.586.004 1.172.006 1.758 0 .098.011.197.021.332Zm-15.521 0H20.01c.319 0 .384-.066.386-.4.002-.548.002-1.095 0-1.642 0-.277-.035-.316-.305-.316-3.471-.002-6.942-.002-10.413.006a.585.585 0 0 0-.34.14c-.265.223-.52.458-.764.704a74.42 74.42 0 0 0-1.216 1.256c-.047.049-.06.13-.114.252Zm17.806-4.837c.097-.92.04-9.538-.075-9.677-.162.2-.325.393-.483.592-.219.276-.503.524-.63.838-.146.354-.424.622-.523 1.005-.096.377-.319.72-.416 1.098-.1.398-.16.816-.166 1.228-.021 1.563-.013 3.124-.015 4.687 0 .074.008.15.013.23l2.296-.001Z"/></mask><path d="M30.176 79.993c-9.583 0-19.165-.002-28.748.004-.369 0-.694-.063-.988-.305-.242-.2-.387-.451-.406-.744-.029-.412-.068-.842.02-1.239.187-.865-.01-1.748.143-2.598.162-.907.09-1.813.16-2.718.06-.775.045-1.559.147-2.329.133-.998.021-2.012.166-2.994.13-.88.08-1.753.15-2.624.069-.87.03-1.753.164-2.608.143-.917-.014-1.845.145-2.74.156-.877.085-1.75.152-2.623.07-.87.033-1.753.165-2.608.14-.917-.014-1.845.145-2.74.156-.877.085-1.75.152-2.623.07-.877.03-1.768.167-2.632.143-.91-.018-1.828.143-2.715.158-.877.085-1.75.155-2.624.07-.87.03-1.752.164-2.608.143-.916-.012-1.844.145-2.74.155-.877.085-1.75.153-2.623.067-.877.029-1.768.166-2.632.143-.91-.014-1.826.145-2.715.131-.747.06-1.489.15-2.225a1.53 1.53 0 0 1 .484-.94c.254-.24.482-.508.73-.756.222-.223.461-.43.684-.655.241-.244.464-.506.707-.748.279-.28.575-.54.853-.817.188-.187.354-.396.54-.586.22-.224.45-.441.68-.656.178-.168.343-.367.551-.483.248-.136.534-.279.805-.281 3.58-.018 7.162-.012 10.743-.012.07 0 .14-.004.209 0 .203.016.288-.06.286-.281-.011-.79-.01-1.579-.002-2.368.008-.985.004-1.97.05-2.952.018-.357.163-.711.25-1.067.01-.037.021-.076.023-.115.025-.336.147-.639.298-.936.093-.183.124-.398.193-.595.049-.137.105-.274.174-.401.137-.246.283-.49.435-.727.163-.254.325-.508.505-.748.178-.238.363-.473.566-.69.285-.3.58-.59.886-.87.275-.251.557-.501.857-.72.203-.148.454-.23.669-.367.35-.223.725-.407.858-.877.074-.256.279-.475.426-.712.17-.275.325-.562.514-.824.145-.201.323-.379.499-.555.28-.283.565-.564.858-.834.213-.195.434-.381.666-.551.305-.223.616-.438.94-.633.287-.172.591-.322.897-.461.17-.078.361-.11.54-.174.235-.086.465-.186.697-.28a.446.446 0 0 1 .087-.025c.45-.066.9-.152 1.35-.191.644-.057 1.29-.106 1.933-.102.426.002.855.076 1.275.16.371.075.733.198 1.094.311.277.088.555.176.816.299.25.117.478.283.72.418.222.125.46.229.674.363.238.15.468.319.689.495.23.185.452.38.665.586.247.238.489.486.717.742.188.211.362.438.526.67.155.22.294.45.431.682.132.225.256.455.377.686.084.162.16.326.232.494.08.186.142.375.22.56.111.26.221.513.256.806.04.342.164.674.246 1.01.025.105.048.215.05.322.014.532.029 1.063.029 1.594.002 2.798.002 5.596.002 8.393 0 .461 0 .461.448.461 5.152 0 10.303-.002 15.452.004.503 0 .917.24 1.215.647a.95.95 0 0 1 .162.479c.075 1.428.133 2.856.201 4.284.046.988.031 1.987.178 2.96.131.879-.017 1.766.137 2.624.165.914.09 1.828.16 2.74.06.76.047 1.528.148 2.282.133.999.023 2.013.166 2.995.128.887.08 1.767.149 2.648.068.869.029 1.752.166 2.608.145.91-.015 1.828.145 2.715.16.893.085 1.782.155 2.671.068.846.03 1.706.162 2.538.145.924-.01 1.86.147 2.762.155.893.085 1.782.155 2.671.068.861.033 1.735.164 2.585.142.908-.01 1.828.145 2.715.157.893.085 1.782.155 2.67.068.87.03 1.753.164 2.61.142.9-.011 1.812.145 2.691.159.893.07 1.784.159 2.67.04.403.07.806.12 1.206.067.54-.18.934-.538 1.29-.35.35-.69.709-1.042 1.059-.338.336-.692.658-1.03.994-.275.272-.536.56-.809.834-.346.35-.698.692-1.046 1.04-.22.22-.425.457-.66.662-.208.185-.448.322-.75.289-.114-.012-.232-.002-.348-.002h-28.59Zm29.551-56.908c-.146.045-.228.049-.28.09-.118.095-.22.21-.329.32-.499.504-.992 1.012-1.496 1.51-.265.262-.449.522-.399.942.09.736.01 1.479.124 2.225.149.973.132 1.973.2 2.96.053.78 0 1.559.12 2.346.142.938.018 1.901.16 2.855.13.883.112 1.785.178 2.678.061.819-.016 1.64.13 2.462.152.865.003 1.758.142 2.645.153.973.132 1.973.197 2.96.053.78 0 1.559.12 2.344.143.93.018 1.885.159 2.831.131.889.114 1.801.18 2.702.06.819-.014 1.639.13 2.462.15.865.003 1.758.142 2.645.151.965.13 1.957.198 2.936.054.787-.004 1.575.121 2.368.145.914.014 1.854.155 2.784.137.904.135 1.832.176 2.749.029.654.029 1.313.046 1.969.002.096.058.192.062.287.018.38.045.76.023 1.14-.007.136-.121.279-.214.398-.186.242-.373.496-.733.48-.03-.002-.06.047-.093.055a.398.398 0 0 1-.158.008c-.087-.018-.17-.063-.257-.072-.31-.036-.758-.405-.815-.71a8.444 8.444 0 0 1-.131-.957c-.058-.877-.083-1.758-.15-2.635-.07-.881-.003-1.763-.154-2.65-.154-.91-.011-1.854-.15-2.785-.124-.829-.095-1.679-.159-2.515-.07-.897.004-1.795-.157-2.696-.154-.865 0-1.76-.14-2.645-.138-.871-.101-1.77-.169-2.655-.068-.881 0-1.762-.153-2.65-.154-.896-.008-1.822-.147-2.738-.127-.842-.096-1.71-.162-2.562-.07-.889.002-1.78-.155-2.672-.157-.887-.004-1.807-.145-2.716-.131-.85-.097-1.723-.164-2.585-.07-.889-.02-1.777-.151-2.672-.141-.967-.033-1.966-.164-2.948-.103-.77-.103-1.551-.145-2.329-.066-1.21-.136-2.419-.194-3.63-.017-.38-.002-.762-.002-1.166H39.927v.28c0 2.03.002 4.063-.002 6.095 0 .361.01.699-.276 1.021-.2.225-.38.34-.654.41-.205.053-.387.012-.567-.025-.168-.035-.357-.113-.47-.236-.25-.274-.37-.6-.367-1.002.02-2.087.01-4.173.01-6.26v-.283H22.745v.299c0 1.953-.004 3.907.004 5.86.002.454-.026.897-.316 1.263-.116.146-.284.318-.45.343-.368.057-.748.112-1.106-.119a.948.948 0 0 1-.431-.62c-.055-.257-.043-.528-.043-.794-.004-1.962-.002-3.923-.002-5.884 0-.368 0-.37-.358-.37H5.487c-.07.56-.155 1.085-.2 1.614-.075.902.014 1.809-.129 2.72-.131.85-.098 1.723-.164 2.584-.068.89.002 1.78-.155 2.673-.154.889-.004 1.807-.145 2.715-.131.85-.098 1.724-.164 2.585-.068.889.002 1.78-.155 2.673-.155.88-.002 1.791-.143 2.692-.133.858-.099 1.739-.166 2.608-.068.889.002 1.78-.155 2.673-.155.88-.002 1.791-.143 2.692-.133.857-.099 1.739-.166 2.608-.068.889.005 1.78-.157 2.672-.157.864.002 1.759-.14 2.646-.14.887-.102 1.801-.17 2.702-.065.865-.03 1.73-.144 2.602-.143 1.094-.035 2.215-.178 3.323-.083.647-.095 1.303-.132 1.956-.058 1.037-.023 2.08-.181 3.114-.064.412-.022.842-.024 1.264 0 .092.008.182.014.295h40.109c5.26 0 10.52 0 15.779-.002.1 0 .209.049.29-.104.073-.138.228-.232.346-.347.242-.235.49-.465.725-.706.224-.228.433-.47.658-.699.241-.244.492-.479.74-.719.298-.29.596-.578.891-.87.16-.158.325-.316.474-.486.13-.146.066-.324.048-.496-.096-.887-.007-1.778-.162-2.673-.158-.92.002-1.87-.149-2.809-.131-.817-.093-1.66-.158-2.49-.072-.89 0-1.78-.157-2.674-.158-.912 0-1.854-.147-2.787-.137-.864-.1-1.755-.166-2.632-.066-.881.004-1.762-.153-2.647-.155-.881-.002-1.792-.143-2.694-.137-.864-.1-1.755-.166-2.632-.066-.881.002-1.762-.155-2.647-.155-.881 0-1.792-.143-2.694-.137-.864-.1-1.755-.166-2.632-.068-.88-.008-1.762-.151-2.647-.15-.928-.016-1.887-.155-2.833-.118-.805-.099-1.631-.153-2.446-.063-.944-.007-1.889-.166-2.835-.137-.814-.021-1.65-.128-2.483-.152-1.193-.145-2.409-.195-3.616-.023-.397-.01-.793-.01-1.252ZM37.572 19.03c.011-.04.025-.063.023-.084-.064-1.641.126-3.286-.102-4.927-.078-.55-.18-1.08-.32-1.618-.12-.463-.351-.861-.539-1.28-.168-.38-.478-.699-.737-1.035-.216-.281-.398-.594-.706-.795-.08-.053-.146-.13-.22-.196-.184-.168-.348-.363-.553-.498-.35-.228-.723-.42-1.089-.625-.11-.062-.216-.146-.336-.182-.24-.072-.487-.117-.733-.173-.029-.006-.054-.026-.081-.036-.255-.086-.509-.246-.764-.246-.944.004-1.899-.191-2.833.117-.278.092-.574.135-.81.188-.083.225-.178.404-.21.592-.068.377-.144.76-.146 1.14-.015 3.18-.013 6.358-.017 9.537 0 .037.012.074.02.117 3.393.004 6.775.004 10.153.004Zm4.671.006c.006-.076.012-.123.012-.168-.004-3.197-.008-6.39-.015-9.587 0-.17-.01-.346-.047-.512-.071-.316-.172-.625-.251-.938-.064-.248-.114-.498-.172-.748-.006-.03-.025-.054-.04-.082-.185-.336-.357-.68-.556-1.006-.21-.348-.416-.707-.682-1.01-.327-.371-.712-.69-1.075-1.026a3.914 3.914 0 0 0-.472-.388c-.155-.106-.329-.182-.5-.264-.272-.131-.544-.262-.823-.377-.182-.075-.375-.12-.56-.186-.227-.082-.441-.22-.674-.248a19.44 19.44 0 0 0-1.904-.15c-.348-.008-.698.076-1.046.13-.256.041-.509.104-.762.157-.014.002-.023.02-.037.025-.218.094-.437.19-.657.28-.163.064-.343.095-.49.183-.317.186-.626.387-.922.606-.34.252-.675.516-.978.809-.081.078-.32.19-.126.422.162-.037.336-.116.51-.11.318.008.635.065.952.102.398.047.798-.022 1.199.14.43.174.907.24 1.363.352.023.006.046.006.068.016.193.095.384.193.578.29.102.052.207.1.311.15.166.076.34.136.495.228.2.12.383.262.572.395.279.195.57.373.83.59.306.257.588.547.872.83.18.18.365.357.518.56.194.256.356.538.532.807.191.295.4.583.565.893.137.258.222.545.332.819.145.36.31.713.428 1.08.063.197.075.407.139.614.122.392.176.82.181 1.234.022 1.602.014 3.204.018 4.806v.282h2.314Zm-2.316 4.835h15.222c.077 0 .154.002.232-.004.044-.004.102-.004.13-.031.376-.38.747-.762 1.12-1.145.271-.277.54-.555.809-.834.087-.092.168-.19.253-.285-.125-.02-.25-.055-.375-.055-5.667-.002-11.335-.002-17.002-.002-.047 0-.093.004-.14 0-.183-.02-.26.043-.253.246.016.43.004.86.004 1.29v.82Zm-17.161 0H37.203c.398 0 .398 0 .398-.412v-1.547c0-.399 0-.399-.406-.399H23.087c-.023 0-.046.002-.07 0-.205-.027-.286.041-.278.268.015.586.004 1.172.006 1.758 0 .098.011.197.021.332Zm-15.521 0H20.01c.319 0 .384-.066.386-.4.002-.548.002-1.095 0-1.642 0-.277-.035-.316-.305-.316-3.471-.002-6.942-.002-10.413.006a.585.585 0 0 0-.34.14c-.265.223-.52.458-.764.704a74.42 74.42 0 0 0-1.216 1.256c-.047.049-.06.13-.114.252Zm17.806-4.837c.097-.92.04-9.538-.075-9.677-.162.2-.325.393-.483.592-.219.276-.503.524-.63.838-.146.354-.424.622-.523 1.005-.096.377-.319.72-.416 1.098-.1.398-.16.816-.166 1.228-.021 1.563-.013 3.124-.015 4.687 0 .074.008.15.013.23l2.296-.001Z" fill="#4B6584" stroke="#4B6584" stroke-width="2" mask="url(#a)"/></svg>