<svg width="16" height="16" fill="none" xmlns="http://www.w3.org/2000/svg"><path d="M15.5 11.69v2.25a1.499 1.499 0 0 1-1.635 1.5 14.843 14.843 0 0 1-6.472-2.302 14.625 14.625 0 0 1-4.5-4.5A14.842 14.842 0 0 1 .59 2.135 1.5 1.5 0 0 1 2.083.5h2.25a1.5 1.5 0 0 1 1.5 1.29 9.63 9.63 0 0 0 .525 2.108A1.5 1.5 0 0 1 6.02 5.48l-.952.953a12 12 0 0 0 4.5 4.5l.952-.953a1.5 1.5 0 0 1 1.582-.337c.681.253 1.388.43 2.108.525a1.5 1.5 0 0 1 1.29 1.522Z" fill="#A4B0BE" stroke="#A4B0BE" stroke-width=".5" stroke-linecap="round" stroke-linejoin="round"/></svg>