<svg width="162" height="52" fill="none" xmlns="http://www.w3.org/2000/svg"><path d="m25 5.03 4.181 13.383a1.5 1.5 0 0 0 1.432 1.053h13.69l-11.125 8.406a1.5 1.5 0 0 0-.528 1.644l4.219 13.503-10.965-8.285a1.5 1.5 0 0 0-1.808 0L13.13 43.02l4.219-13.503a1.5 1.5 0 0 0-.527-1.644L5.697 19.466h13.69a1.5 1.5 0 0 0 1.432-1.053L25 5.03ZM81 5.03l4.181 13.383a1.5 1.5 0 0 0 1.432 1.053h13.69l-11.126 8.406a1.5 1.5 0 0 0-.527 1.644l4.219 13.503-10.965-8.285a1.5 1.5 0 0 0-1.808 0L69.13 43.02l4.219-13.503a1.5 1.5 0 0 0-.527-1.644l-11.126-8.406h13.69a1.5 1.5 0 0 0 1.432-1.053L81 5.03ZM137 5.03l4.181 13.383a1.5 1.5 0 0 0 1.432 1.053h13.69l-11.126 8.406a1.5 1.5 0 0 0-.527 1.644l4.219 13.503-10.965-8.285a1.5 1.5 0 0 0-1.808 0l-10.965 8.285 4.219-13.503a1.5 1.5 0 0 0-.527-1.644l-11.126-8.406h13.69a1.5 1.5 0 0 0 1.432-1.053L137 5.03Z" stroke="#4B6584" stroke-width="3" stroke-linejoin="round"/></svg>