<svg width="26" height="23" fill="none" xmlns="http://www.w3.org/2000/svg"><path d="M17.5 17.917H9.256c-1.19 0-2.244-.78-2.565-1.898L3.904 6.577C3.805 6.235 3.476 6 3.1 6H.917a.916.916 0 1 1 0-1.833H3.1c1.19 0 2.242.78 2.564 1.897l.522 1.77h14.02c.572 0 1.115.272 1.451.728.334.453.43 1.02.264 1.555l-1.89 6.002a2.66 2.66 0 0 1-2.53 1.798Zm2.707-8.25h.01-.01ZM10.083 22.5a1.835 1.835 0 0 1-1.833-1.833c0-1.012.822-1.834 1.833-1.834 1.011 0 1.834.823 1.834 1.834a1.835 1.835 0 0 1-1.834 1.833Zm0-1.834ZM16.5 22.5a1.835 1.835 0 0 1-1.833-1.833c0-1.012.822-1.834 1.833-1.834 1.011 0 1.833.823 1.833 1.834A1.835 1.835 0 0 1 16.5 22.5Zm0-1.834Z" fill="#A4B0BE"/><circle cx="21.5" cy="7" r="4.5" fill="#6A4D67"/></svg>