<svg width="66" height="60" viewBox="0 0 66 60" fill="none" xmlns="http://www.w3.org/2000/svg">
<path d="M8.93369 34.1325C11.782 38.5296 14.3347 43.1589 17.5611 47.2616C20.7648 51.336 24.6507 54.8809 28.1386 58.774C25.7281 56.4947 23.2436 54.2863 20.9211 51.9221C14.9658 45.8516 10.085 38.977 5.77266 31.672C3.58951 27.9742 1.36656 24.3302 0.499548 20.052C-0.503907 15.1056 -0.105936 10.38 2.70829 6.04515C6.0086 0.962813 11.8218 -1.02765 17.7203 0.504129C22.5215 1.75277 25.566 5.11645 28.3376 8.74346C30.2962 11.3087 31.7346 14.2647 33.4402 17.0989C33.5709 16.9063 33.8211 16.5326 34.0798 16.1617C37.0986 11.8438 40.9106 8.50562 46.1866 7.39855C54.7117 5.61478 63.2055 9.37769 65.5337 18.3164C66.7333 22.9174 65.5194 27.0823 63.0264 30.967C60.9058 34.274 57.9694 36.8081 54.9874 39.2969C50.0185 43.4449 45.0609 47.607 40.976 52.6752C40.3847 53.4085 39.8759 54.207 39.3159 54.9658C38.0452 56.6788 36.7632 58.3861 35.3021 60C35.4073 59.7197 35.4755 59.4167 35.6233 59.1591C38.2698 54.5779 41.4252 50.3676 44.6516 46.1659C47.1957 42.8531 50.2459 40.1633 53.1966 37.3149C53.3216 37.196 53.3984 37.029 53.5007 36.8817C53.4211 36.794 53.3387 36.7034 53.2591 36.6156C51.4256 38.1644 49.5295 39.6452 47.7728 41.2761C44.0944 44.6907 40.0522 47.7599 37.3602 52.1259C36.0668 54.224 34.6568 56.2484 33.3009 58.3068C33.1701 58.2191 33.0393 58.1313 32.9086 58.0435C35.0662 54.9262 37.1441 51.7465 39.404 48.6999C43.5117 43.1646 48.745 38.7108 53.7509 34.0305C56.7584 31.219 59.2514 27.9148 60.1269 23.7498C61.4289 17.5491 56.1387 12.2346 49.811 12.798C42.8465 13.4209 39.4268 17.9455 36.7774 23.5091C36.0412 25.0551 35.7541 26.8077 35.2026 28.4442C34.0513 31.8589 34.2333 35.6756 32.0501 38.7731C30.8278 36.1088 31.51 33.3312 31.5868 30.5876C31.6209 29.4012 31.5924 28.2149 31.5924 27.0285C31.3906 27.0285 31.1859 27.0314 30.9841 27.0342V32.2298C30.8789 32.2326 30.7738 32.2383 30.6686 32.2411C30.5776 31.8589 30.4866 31.4738 30.3928 31.0746C30.2109 31.1878 30.0347 31.2983 29.7703 31.4653C29.722 31.2416 29.6537 31.0746 29.6594 30.9104C29.8442 24.888 28.2125 19.3611 25.0714 14.2562C23.3203 11.4106 21.1343 8.95581 18.3372 7.07011C14.4683 4.46523 9.98262 5.35712 7.46119 9.25027C5.26951 12.6309 5.18139 16.3146 6.21896 20.0124C8.00414 26.3773 11.0202 32.1675 14.8862 37.5386C16.4013 39.6423 17.5896 41.9981 19.2411 43.9829C22.0099 47.3097 25.0401 50.4214 27.9396 53.6435C29.0909 54.9205 30.1853 56.2484 31.2115 57.6811C29.6793 56.3645 28.059 55.1357 26.6377 53.7115C23.4767 50.5375 20.5914 47.0719 17.2655 44.0848C13.9566 41.109 12.0236 37.1904 9.32313 33.8154L8.94506 34.124L8.93369 34.1325Z" fill="#4B6584"/>
</svg>
