<svg width="94" height="66" viewBox="0 0 94 66" fill="none" xmlns="http://www.w3.org/2000/svg">
<path d="M15.3001 4.5954C15.0282 6.27144 14.7599 7.94749 14.4916 9.62354C13.8306 13.7616 13.1767 17.8997 12.5317 22.0396C11.7108 27.3028 10.9041 32.5696 10.1205 37.8382C9.37245 42.8699 8.64216 47.9053 7.96873 52.9478C7.48542 56.5726 6.97724 60.2082 6.70716 63.8564C6.68761 64.1202 6.66984 64.384 6.65563 64.6478C6.61654 65.3746 7.29708 65.9937 7.98827 65.9937C8.57642 65.9937 9.16278 65.9937 9.75092 65.9937C11.3501 65.9937 12.9493 65.9937 14.5484 65.9937C16.9134 65.9937 19.2784 65.9937 21.6434 65.9937C24.5291 65.9937 27.4147 65.9937 30.3003 65.9937C33.4489 65.9937 36.5975 65.9937 39.7443 65.9937C42.9462 65.9937 46.1499 65.9937 49.3518 65.9937C52.3156 65.9937 55.2776 65.9937 58.2414 65.9937C60.7557 65.9937 63.27 65.9937 65.7842 65.9937C67.5931 65.9937 69.4001 65.9937 71.209 65.9937C72.0654 65.9937 72.9219 66.008 73.7783 65.9937C73.8156 65.9937 73.8512 65.9937 73.8885 65.9937C74.6703 65.9937 75.1394 65.3728 75.2211 64.6478C75.4077 62.9987 75.6014 61.3513 75.7968 59.704C76.2766 55.6467 76.7688 51.5893 77.277 47.5356C77.595 45.0018 77.9184 42.468 78.2489 39.936C78.336 39.2702 78.423 38.6045 78.5119 37.9387C78.5527 37.6318 78.5936 37.325 78.6345 37.0163C78.6451 36.932 78.686 36.6269 78.6309 37.0379C78.6416 36.9535 78.654 36.8692 78.6647 36.7866C78.6913 36.591 78.7162 36.3936 78.7429 36.198C78.9188 34.8773 79.0982 33.5566 79.2813 32.2358C79.9778 27.179 80.7045 22.1257 81.529 17.0886C82.1278 13.4314 82.723 9.74377 83.6488 6.15301C83.7216 5.87128 83.798 5.59134 83.878 5.3114C84.1196 4.46978 83.448 3.60843 82.5933 3.60843C82.0016 3.60843 81.4117 3.60843 80.82 3.60843C79.2191 3.60843 77.6181 3.60843 76.0172 3.60843C73.6522 3.60843 71.2854 3.60843 68.9204 3.60843C66.0348 3.60843 63.1491 3.60843 60.2635 3.60843C57.1025 3.60843 53.9432 3.60843 50.7822 3.60843C47.5785 3.60843 44.3766 3.60843 41.1729 3.60843C38.1985 3.60843 35.224 3.60843 32.2478 3.60843C29.7335 3.60843 27.2192 3.60843 24.705 3.60843C22.8908 3.60843 21.0749 3.60843 19.2607 3.60843C18.406 3.60843 17.5496 3.59408 16.6949 3.60843C16.6576 3.60843 16.622 3.60843 16.5847 3.60843C15.8882 3.60843 15.2201 4.22753 15.2521 4.95429C15.2841 5.68285 15.8384 6.30016 16.5847 6.30016C17.1764 6.30016 17.7663 6.30016 18.358 6.30016C19.959 6.30016 21.5599 6.30016 23.1609 6.30016C25.5259 6.30016 27.8927 6.30016 30.2577 6.30016C33.1433 6.30016 36.0289 6.30016 38.9145 6.30016C42.0756 6.30016 45.2348 6.30016 48.3959 6.30016C51.5995 6.30016 54.8014 6.30016 58.0051 6.30016C60.9796 6.30016 63.9541 6.30016 66.9303 6.30016C69.4446 6.30016 71.9588 6.30016 74.4731 6.30016C76.2872 6.30016 78.1032 6.30016 79.9174 6.30016C80.772 6.30016 81.6285 6.32528 82.4832 6.30016C82.5205 6.29836 82.556 6.30016 82.5933 6.30016C82.1651 5.7331 81.7369 5.16425 81.3087 4.59719C80.3563 7.90981 79.8036 11.357 79.2297 14.754C78.391 19.7139 77.6643 24.6918 76.9678 29.6751C76.2233 35.0047 75.5232 40.3415 74.848 45.6819C74.306 49.9671 73.7819 54.2541 73.2719 58.543C73.0338 60.5456 72.7246 62.559 72.5683 64.5706C72.5665 64.5975 72.5629 64.6245 72.5594 64.6514C73.0036 64.2028 73.4478 63.7541 73.892 63.3055C73.3039 63.3055 72.7175 63.3055 72.1294 63.3055C70.5302 63.3055 68.931 63.3055 67.3319 63.3055C64.9669 63.3055 62.6019 63.3055 60.2369 63.3055C57.3512 63.3055 54.4656 63.3055 51.58 63.3055C48.4314 63.3055 45.2828 63.3055 42.136 63.3055C38.9341 63.3055 35.7304 63.3055 32.5285 63.3055C29.5647 63.3055 26.6027 63.3055 23.6389 63.3055C21.1246 63.3055 18.6103 63.3055 16.0961 63.3055C14.2872 63.3055 12.4802 63.3055 10.6713 63.3055C9.81666 63.3055 8.95666 63.2804 8.10199 63.3055C8.06468 63.3073 8.02914 63.3055 7.99183 63.3055C8.43604 63.7541 8.88026 64.2028 9.32447 64.6514C9.49861 61.38 9.96059 58.1141 10.3835 54.8679C10.419 54.6005 10.4528 54.3313 10.4883 54.0639C10.5025 53.9509 10.5185 53.836 10.5327 53.723C10.5416 53.6548 10.5523 53.5866 10.5594 53.5166C10.5008 53.9886 10.5434 53.6315 10.5576 53.5292C10.6358 52.9388 10.7158 52.3484 10.7975 51.758C10.961 50.5647 11.1262 49.3731 11.2932 48.1798C11.661 45.5742 12.0377 42.9704 12.4233 40.3666C13.2034 35.0801 14.0101 29.7953 14.8292 24.5142C15.5026 20.1733 16.1867 15.8325 16.8779 11.4934C17.2013 9.46024 17.5371 7.43068 17.857 5.39753C17.8605 5.36882 17.8658 5.3419 17.8712 5.31319C17.9831 4.62052 17.6935 3.83095 16.9401 3.65688C16.2969 3.50794 15.4209 3.85248 15.3001 4.5954Z" fill="#4B6584"/>
<path d="M81.3069 5.31123C81.6232 6.62479 81.927 7.94194 82.2291 9.25909C83.0055 12.6471 83.7518 16.044 84.4732 19.4446C85.4558 24.0779 86.3887 28.7239 87.2558 33.3805C88.1975 38.4302 89.0646 43.4942 89.7949 48.5798C89.8856 49.2115 89.9744 49.8413 90.0597 50.473C90.0792 50.613 90.097 50.7547 90.1165 50.8947C90.1272 50.9719 90.1361 51.0472 90.1468 51.1244C90.0881 50.6955 90.1272 50.9808 90.1396 51.0723C90.1823 51.4007 90.2267 51.7309 90.2676 52.0593C90.4186 53.2473 90.5608 54.437 90.6905 55.6267C90.9304 57.834 91.1329 60.0448 91.2608 62.2627C91.291 62.7724 91.3159 63.2802 91.3372 63.7899C92.096 63.4722 92.8547 63.1546 93.6116 62.8388C92.6468 62.0528 91.682 61.2668 90.7171 60.479C89.1872 59.2319 87.6574 57.9847 86.1275 56.7375C85.7739 56.4486 85.4185 56.1597 85.0649 55.8708C84.5017 55.4114 83.7358 55.3145 83.1797 55.8708C82.5276 56.5222 81.8435 57.1431 81.1541 57.755C80.4433 58.3849 79.7201 58.9986 78.9827 59.5944C78.7837 59.7541 78.5847 59.912 78.3839 60.0699C78.2276 60.1937 78.6451 59.8689 78.3999 60.0573C78.3502 60.095 78.3022 60.1327 78.2524 60.1704C78.1281 60.2655 78.0055 60.3606 77.8811 60.4539C77.4351 60.7895 76.9855 61.1179 76.5271 61.4373C75.461 62.182 74.3611 62.8765 73.2115 63.483C72.5931 63.8096 72.3568 64.7338 72.7335 65.3241C73.1404 65.9594 73.8956 66.1568 74.5566 65.8069C76.6533 64.6979 78.5865 63.3036 80.4469 61.8303C81.7955 60.7626 83.1015 59.6338 84.3542 58.4549C84.5923 58.2305 84.8304 58.0044 85.0632 57.773C84.4341 57.773 83.8069 57.773 83.1779 57.773C84.1427 58.5589 85.1076 59.3449 86.0724 60.1327C87.6023 61.3799 89.1322 62.627 90.662 63.8742C91.0156 64.1631 91.371 64.452 91.7246 64.7409C92.1546 65.0909 92.6432 65.2488 93.1798 65.0191C93.6489 64.8199 94.0221 64.3228 93.999 63.7899C93.8035 59.1045 93.2616 54.4388 92.629 49.7965C91.9378 44.7163 91.0974 39.6576 90.1787 34.6151C89.3081 29.8328 88.3646 25.0649 87.3695 20.3077C86.6161 16.7062 85.8308 13.1101 85.0152 9.52108C84.6474 7.90246 84.3098 6.26769 83.8869 4.66162C83.8815 4.64009 83.8762 4.61676 83.8709 4.59523C83.7056 3.91153 82.9025 3.43599 82.2308 3.65492C81.5325 3.88641 81.1292 4.57728 81.3069 5.31123Z" fill="#4B6584"/>
<path d="M83.9704 55.478C82.938 55.478 81.9056 55.478 80.8715 55.478C79.2261 55.478 77.5808 55.478 75.9354 55.478C75.5587 55.478 75.182 55.478 74.8053 55.478C74.1088 55.478 73.4407 56.0971 73.4727 56.8239C73.5046 57.5525 74.059 58.1698 74.8053 58.1698C75.8377 58.1698 76.87 58.1698 77.9042 58.1698C79.5495 58.1698 81.1949 58.1698 82.8403 58.1698C83.217 58.1698 83.5937 58.1698 83.9704 58.1698C84.6669 58.1698 85.335 57.5507 85.303 56.8239C85.271 56.0953 84.7184 55.478 83.9704 55.478Z" fill="#4B6584"/>
<path d="M19.5574 18.0291C19.5574 18.0291 17.9653 53.7177 0.880829 60.255C2.97575 60.255 5.07244 60.255 7.16736 60.255C12.0342 60.255 16.901 60.255 21.7696 60.255C27.2832 60.255 32.795 60.255 38.3086 60.255C40.6434 60.255 42.9764 60.255 45.3112 60.255C49.0515 60.255 52.8167 60.413 56.557 60.1599C62.0119 59.7921 68.103 58.0012 71.0171 52.9012C71.7794 51.5679 72.2644 50.0893 72.5114 48.573C74.633 35.4983 75.6956 23.0662 77.181 18.0291" fill="white"/>
<path d="M18.669 18.0289C18.6157 19.2205 18.5055 20.4102 18.3865 21.5946C18.326 22.1939 18.2621 22.7915 18.191 23.389C18.1501 23.7336 18.1093 24.0763 18.0648 24.4209C18.0435 24.5913 18.0204 24.7618 17.9991 24.9323C18.0364 24.6524 17.9973 24.9502 17.9884 25.013C17.9742 25.1207 17.9582 25.2302 17.944 25.3378C17.7201 26.9601 17.4589 28.5769 17.1586 30.1865C16.4568 33.955 15.547 37.6929 14.3263 41.3249C14.0029 42.2885 13.6547 43.2468 13.2833 44.1925C13.1998 44.4042 13.1163 44.6142 13.0292 44.8242C12.983 44.9354 12.9386 45.0467 12.8924 45.1579C12.9564 45.0072 12.9013 45.1364 12.8888 45.1651C12.8569 45.2387 12.8267 45.3123 12.7947 45.3858C12.5957 45.8506 12.3913 46.3118 12.1781 46.7694C11.3554 48.5351 10.4226 50.2543 9.33868 51.8711C9.07926 52.2587 8.81095 52.6391 8.53376 53.0142C8.46624 53.1039 8.39872 53.1936 8.3312 53.2833C8.44847 53.129 8.24946 53.3874 8.21925 53.4269C8.07355 53.6117 7.92607 53.7948 7.77682 53.976C7.1869 54.6884 6.55611 55.3667 5.88446 56.002C5.56285 56.3053 5.23235 56.5978 4.8912 56.8795C4.80946 56.9477 4.72595 57.0141 4.64244 57.0823C4.60512 57.1128 4.56781 57.1415 4.53049 57.1702C4.68153 57.0518 4.55182 57.1523 4.5145 57.1828C4.33504 57.3173 4.15558 57.4519 3.97256 57.5811C3.25115 58.089 2.49243 58.543 1.70173 58.9288C1.51161 59.0221 1.31793 59.11 1.12425 59.1962C1.07983 59.2159 0.927019 59.2787 1.10826 59.2034C1.06384 59.2213 1.02119 59.2392 0.976772 59.2572C0.866606 59.302 0.756441 59.3451 0.646276 59.3882C0.234044 59.5479 -0.059138 59.905 0.0101596 60.3734C0.0759034 60.8094 0.431275 61.1522 0.882598 61.1522C8.9833 61.1522 17.084 61.1522 25.1847 61.1522C33.2925 61.1522 41.4003 61.1055 49.5082 61.188C55.8036 61.2527 62.9466 61.3155 68.2434 57.3084C70.9158 55.2878 72.7211 52.4076 73.3234 49.0789C74.0288 45.1848 74.5192 41.2388 75.0452 37.316C75.5036 33.8993 75.9336 30.479 76.4169 27.0641C76.7723 24.5573 77.1277 22.036 77.7016 19.5686C77.8029 19.1325 77.9148 18.6965 78.041 18.2676C78.3661 17.1586 76.6515 16.6831 76.3281 17.7903C75.7026 19.9275 75.3668 22.1562 75.0328 24.3563C74.5441 27.5594 74.1354 30.7733 73.7126 33.9855C73.215 37.7647 72.7068 41.5402 72.1347 45.3087C71.854 47.157 71.6603 49.0573 71.0153 50.8231C70.4911 52.2605 69.6613 53.5507 68.6147 54.6274C64.3041 59.0616 57.5698 59.3972 51.763 59.4061C47.7864 59.4133 43.8115 59.3577 39.8349 59.3577C35.837 59.3577 31.8408 59.3577 27.8429 59.3577C19.8293 59.3577 11.8174 59.3577 3.80376 59.3577C2.83004 59.3577 1.85809 59.3577 0.884375 59.3577C0.962557 59.9445 1.04252 60.5331 1.1207 61.1199C4.70996 59.7363 7.60446 57.1863 9.9126 54.1303C12.3256 50.9362 14.058 47.2575 15.4422 43.507C16.8068 39.8086 17.8125 35.9809 18.5926 32.1156C19.2322 28.9448 19.7173 25.7434 20.0691 22.5277C20.2291 21.067 20.4369 19.565 20.4458 18.0917C20.4458 18.0702 20.4476 18.0487 20.4494 18.0271C20.4707 17.5426 20.0247 17.1299 19.561 17.1299C19.0581 17.1317 18.6903 17.5426 18.669 18.0289Z" fill="#4B6584"/>
<path d="M27.5817 27.03C27.5533 27.798 27.4947 28.5679 27.4325 29.3341C27.3632 30.1829 27.2814 31.0299 27.189 31.8769C27.1322 32.3937 27.0718 32.9087 27.006 33.4237C26.99 33.5529 26.9723 33.6839 26.9563 33.8131C26.9314 34.0087 26.9883 33.5763 26.958 33.8042C26.9474 33.8885 26.9349 33.9729 26.9243 34.0572C26.8852 34.3371 26.8461 34.6171 26.8052 34.8952C26.4339 37.4254 25.9559 39.9413 25.3251 42.4195C24.9911 43.7348 24.6126 45.0394 24.1755 46.3243C23.9605 46.9559 23.7313 47.584 23.4861 48.2049C23.4239 48.361 23.3617 48.5153 23.2977 48.6697C23.2853 48.7002 23.2728 48.7307 23.2586 48.763C23.1911 48.9281 23.3297 48.5979 23.2799 48.7091C23.2444 48.7935 23.2089 48.8778 23.1733 48.9604C23.0436 49.2636 22.9086 49.5633 22.7682 49.8612C22.2369 50.9953 21.6381 52.0971 20.938 53.1343C20.7692 53.3856 20.5951 53.6314 20.4139 53.8737C20.3961 53.897 20.3783 53.9221 20.3606 53.9454C20.2575 54.0836 20.4974 53.7696 20.3908 53.906C20.3499 53.958 20.309 54.0118 20.2682 54.0639C20.1722 54.1841 20.0745 54.3043 19.975 54.4228C19.609 54.857 19.2198 55.2698 18.804 55.6538C18.605 55.8386 18.3971 56.0163 18.1857 56.1868C17.8214 56.4811 17.8587 57.1522 18.1857 57.4555C18.573 57.8144 19.0528 57.7695 19.4419 57.4555C21.3467 55.9212 22.7682 53.8109 23.8752 51.6413C25.1226 49.1955 26.0359 46.5791 26.7626 43.9322C27.4556 41.402 27.978 38.8251 28.3849 36.2339C28.7136 34.1379 28.973 32.0312 29.1596 29.9173C29.2431 28.9734 29.3461 28.017 29.3568 27.0677C29.3568 27.0551 29.3586 27.0408 29.3586 27.0264C29.3764 26.5563 28.9375 26.1076 28.4702 26.1292C27.9744 26.1561 27.6013 26.5275 27.5817 27.03Z" fill="#4B6584"/>
<path d="M38.5129 27.0299C38.4703 27.8536 38.4099 28.6772 38.3459 29.4991C38.1878 31.5394 37.9923 33.578 37.7578 35.6111C37.6849 36.2356 37.6103 36.8583 37.5286 37.481C37.509 37.6299 37.4895 37.7771 37.4699 37.926C37.4433 38.1252 37.4983 37.7143 37.4664 37.9475C37.4539 38.0427 37.4415 38.1378 37.4273 38.2311C37.3828 38.5577 37.3366 38.8843 37.2905 39.2109C37.0986 40.5478 36.8836 41.8811 36.6419 43.209C36.1764 45.7536 35.6202 48.2927 34.8188 50.753C34.6412 51.3003 34.4493 51.844 34.2396 52.3788C34.1916 52.5026 34.1419 52.6282 34.0903 52.752C34.0797 52.7772 34.0708 52.8005 34.0601 52.8256C33.9997 52.9746 34.1525 52.6085 34.0886 52.7574C34.0601 52.8238 34.0317 52.8884 34.0033 52.9548C33.9002 53.1917 33.7918 53.4268 33.6799 53.66C33.4702 54.0907 33.2445 54.5124 32.9904 54.9162C32.8767 55.0974 32.7595 55.2751 32.6333 55.4473C32.6031 55.4886 32.5729 55.5299 32.5427 55.5712C32.4592 55.6842 32.6955 55.3774 32.6084 55.4868C32.596 55.503 32.5835 55.5191 32.5711 55.5335C32.5036 55.6178 32.4361 55.7022 32.365 55.7829C32.2424 55.9247 32.1145 56.0593 31.9794 56.1885C31.6418 56.5115 31.6329 57.136 31.9794 57.4572C32.3419 57.7927 32.875 57.8017 33.2357 57.4572C34.698 56.0593 35.5385 54.0351 36.2137 52.1599C37.0808 49.7517 37.6671 47.243 38.1558 44.7325C38.6817 42.0408 39.0798 39.3239 39.4138 36.6017C39.6786 34.4447 39.8953 32.2824 40.0712 30.1182C40.153 29.1061 40.2614 28.0851 40.2845 27.0694C40.2845 27.055 40.2862 27.0425 40.2862 27.0281C40.3111 26.558 39.8598 26.1093 39.3978 26.1309C38.8985 26.156 38.5396 26.5275 38.5129 27.0299Z" fill="#4B6584"/>
<path d="M49.549 27.0299C49.5064 27.8536 49.446 28.6772 49.382 29.4991C49.2239 31.5394 49.0284 33.578 48.7939 35.6111C48.721 36.2356 48.6464 36.8583 48.5647 37.481C48.5451 37.6299 48.5256 37.7771 48.506 37.926C48.4794 38.1252 48.5344 37.7143 48.5025 37.9475C48.49 38.0427 48.4776 38.1378 48.4634 38.2311C48.419 38.5577 48.3728 38.8843 48.3266 39.2109C48.1347 40.5478 47.9197 41.8811 47.678 43.209C47.2125 45.7536 46.6563 48.2927 45.8549 50.753C45.6773 51.3003 45.4854 51.844 45.2757 52.3788C45.2277 52.5026 45.178 52.6282 45.1264 52.752C45.1158 52.7772 45.1069 52.8005 45.0962 52.8256C45.0358 52.9746 45.1886 52.6085 45.1246 52.7574C45.0962 52.8238 45.0678 52.8884 45.0394 52.9548C44.9363 53.1917 44.8279 53.4268 44.716 53.66C44.5063 54.0907 44.2806 54.5124 44.0266 54.9162C43.9128 55.0974 43.7956 55.2751 43.6694 55.4473C43.6392 55.4886 43.609 55.5299 43.5788 55.5712C43.4953 55.6842 43.7316 55.3774 43.6445 55.4868C43.6321 55.503 43.6197 55.5191 43.6072 55.5335C43.5397 55.6178 43.4722 55.7022 43.4011 55.7829C43.2785 55.9247 43.1506 56.0593 43.0155 56.1885C42.6779 56.5115 42.669 57.136 43.0155 57.4572C43.378 57.7927 43.9111 57.8017 44.2718 57.4572C45.7341 56.0593 46.5746 54.0351 47.2498 52.1599C48.1169 49.7517 48.7032 47.243 49.1919 44.7325C49.7178 42.0408 50.1159 39.3239 50.4499 36.6017C50.7147 34.4447 50.9314 32.2824 51.1073 30.1182C51.1891 29.1061 51.2975 28.0851 51.3206 27.0694C51.3206 27.055 51.3223 27.0425 51.3223 27.0281C51.3472 26.558 50.8959 26.1093 50.4339 26.1309C49.9346 26.156 49.5757 26.5275 49.549 27.0299Z" fill="#4B6584"/>
<path d="M61.6495 27.0299C61.6068 27.8536 61.5464 28.6772 61.4824 29.4991C61.3243 31.5394 61.1288 33.578 60.8943 35.6111C60.8214 36.2356 60.7468 36.8583 60.6651 37.481C60.6455 37.6299 60.626 37.7771 60.6064 37.926C60.5798 38.1252 60.6349 37.7143 60.6029 37.9475C60.5905 38.0427 60.578 38.1378 60.5638 38.2311C60.5194 38.5577 60.4732 38.8843 60.427 39.2109C60.2351 40.5478 60.0201 41.8811 59.7784 43.209C59.3129 45.7536 58.7567 48.2927 57.9554 50.753C57.7777 51.3003 57.5858 51.844 57.3761 52.3788C57.3281 52.5026 57.2784 52.6282 57.2269 52.752C57.2162 52.7772 57.2073 52.8005 57.1967 52.8256C57.1362 52.9746 57.289 52.6085 57.2251 52.7574C57.1967 52.8238 57.1682 52.8884 57.1398 52.9548C57.0367 53.1917 56.9283 53.4268 56.8164 53.66C56.6067 54.0907 56.3811 54.5124 56.127 54.9162C56.0133 55.0974 55.896 55.2751 55.7698 55.4473C55.7396 55.4886 55.7094 55.5299 55.6792 55.5712C55.5957 55.6842 55.832 55.3774 55.745 55.4868C55.7325 55.503 55.7201 55.5191 55.7076 55.5335C55.6401 55.6178 55.5726 55.7022 55.5015 55.7829C55.3789 55.9247 55.251 56.0593 55.116 56.1885C54.7783 56.5115 54.7695 57.136 55.116 57.4572C55.4784 57.7927 56.0115 57.8017 56.3722 57.4572C57.8345 56.0593 58.675 54.0351 59.3502 52.1599C60.2173 49.7517 60.8037 47.243 61.2923 44.7325C61.8183 42.0408 62.2163 39.3239 62.5503 36.6017C62.8151 34.4447 63.0319 32.2824 63.2078 30.1182C63.2895 29.1061 63.3979 28.0851 63.421 27.0694C63.421 27.055 63.4228 27.0425 63.4228 27.0281C63.4476 26.558 62.9963 26.1093 62.5343 26.1309C62.035 26.156 61.6743 26.5275 61.6495 27.0299Z" fill="#4B6584"/>
<path d="M20.1935 33.6139C20.6306 33.6139 21.0677 33.6139 21.5048 33.6139C22.6847 33.6139 23.8627 33.6139 25.0426 33.6139C26.791 33.6139 28.5394 33.6139 30.2879 33.6139C32.4201 33.6139 34.5541 33.6139 36.6863 33.6139C39.014 33.6139 41.3417 33.6139 43.6712 33.6139C46.038 33.6139 48.403 33.6139 50.7697 33.6139C52.9606 33.6139 55.1515 33.6139 57.3423 33.6139C59.2009 33.6139 61.0595 33.6139 62.9164 33.6139C64.2526 33.6139 65.5888 33.6139 66.9249 33.6139C67.5557 33.6139 68.1883 33.6229 68.8191 33.6139C68.8475 33.6139 68.8742 33.6139 68.9026 33.6139C69.3681 33.6139 69.8124 33.2012 69.791 32.7167C69.7697 32.2304 69.4001 31.8194 68.9026 31.8194C68.4655 31.8194 68.0284 31.8194 67.5913 31.8194C66.4114 31.8194 65.2334 31.8194 64.0535 31.8194C62.3051 31.8194 60.5567 31.8194 58.8083 31.8194C56.676 31.8194 54.542 31.8194 52.4098 31.8194C50.0821 31.8194 47.7544 31.8194 45.4249 31.8194C43.0582 31.8194 40.6932 31.8194 38.3264 31.8194C36.1355 31.8194 33.9446 31.8194 31.7538 31.8194C29.8952 31.8194 28.0366 31.8194 26.1798 31.8194C24.8436 31.8194 23.5074 31.8194 22.1712 31.8194C21.5404 31.8194 20.9078 31.8104 20.277 31.8194C20.2486 31.8194 20.2219 31.8194 20.1935 31.8194C19.728 31.8194 19.2838 32.2321 19.3051 32.7167C19.3264 33.203 19.696 33.6139 20.1935 33.6139Z" fill="#4B6584"/>
<path d="M20.1935 42.1825C20.62 42.1825 21.0464 42.1825 21.4746 42.1825C22.626 42.1825 23.7774 42.1825 24.9271 42.1825C26.6329 42.1825 28.3404 42.1825 30.0462 42.1825C32.1287 42.1825 34.2094 42.1825 36.2919 42.1825C38.5645 42.1825 40.8371 42.1825 43.1079 42.1825C45.4178 42.1825 47.726 42.1825 50.0359 42.1825C52.1752 42.1825 54.3128 42.1825 56.4521 42.1825C58.2663 42.1825 60.0787 42.1825 61.8929 42.1825C63.1971 42.1825 64.5013 42.1825 65.8055 42.1825C66.4221 42.1825 67.0387 42.1915 67.6552 42.1825C67.6819 42.1825 67.7085 42.1825 67.7352 42.1825C68.2007 42.1825 68.645 41.7698 68.6236 41.2853C68.6023 40.799 68.2327 40.388 67.7352 40.388C67.3088 40.388 66.8823 40.388 66.4541 40.388C65.3027 40.388 64.1513 40.388 63.0016 40.388C61.2959 40.388 59.5883 40.388 57.8825 40.388C55.8 40.388 53.7193 40.388 51.6368 40.388C49.3642 40.388 47.0916 40.388 44.8208 40.388C42.5109 40.388 40.2027 40.388 37.8928 40.388C35.7535 40.388 33.6159 40.388 31.4766 40.388C29.6624 40.388 27.85 40.388 26.0358 40.388C24.7316 40.388 23.4274 40.388 22.1232 40.388C21.5066 40.388 20.89 40.379 20.2735 40.388C20.2468 40.388 20.2202 40.388 20.1935 40.388C19.728 40.388 19.2838 40.8008 19.3051 41.2853C19.3264 41.7716 19.696 42.1825 20.1935 42.1825Z" fill="#4B6584"/>
<path d="M17.3292 51.0778C17.761 51.0778 18.1928 51.0778 18.6245 51.0778C19.7902 51.0778 20.954 51.0778 22.1196 51.0778C23.8538 51.0778 25.5881 51.0778 27.3223 51.0778C29.4225 51.0778 31.5245 51.0778 33.6248 51.0778C35.9418 51.0778 38.2588 51.0778 40.5759 51.0778C42.8982 51.0778 45.2224 51.0778 47.5447 51.0778C49.7249 51.0778 51.9069 51.0778 54.0871 51.0778C55.9173 51.0778 57.7475 51.0778 59.5794 51.0778C60.9049 51.0778 62.2305 51.0778 63.556 51.0778C64.1797 51.0778 64.8034 51.0867 65.427 51.0778C65.4537 51.0778 65.4821 51.0778 65.5088 51.0778C65.9743 51.0778 66.4185 50.665 66.3972 50.1805C66.3759 49.6942 66.0063 49.2833 65.5088 49.2833C65.077 49.2833 64.6452 49.2833 64.2135 49.2833C63.0478 49.2833 61.884 49.2833 60.7184 49.2833C58.9841 49.2833 57.2499 49.2833 55.5157 49.2833C53.4155 49.2833 51.3134 49.2833 49.2132 49.2833C46.8962 49.2833 44.5791 49.2833 42.2621 49.2833C39.9398 49.2833 37.6156 49.2833 35.2933 49.2833C33.1131 49.2833 30.9311 49.2833 28.7509 49.2833C26.9207 49.2833 25.0905 49.2833 23.2586 49.2833C21.933 49.2833 20.6075 49.2833 19.282 49.2833C18.6583 49.2833 18.0346 49.2743 17.4109 49.2833C17.3843 49.2833 17.3559 49.2833 17.3292 49.2833C16.8637 49.2833 16.4194 49.696 16.4408 50.1805C16.4621 50.665 16.8299 51.0778 17.3292 51.0778Z" fill="#4B6584"/>
<path d="M28.4701 23.7766C26.3663 23.7766 24.2625 23.7766 22.1587 23.7766C21.8567 23.7766 21.5564 23.7766 21.2543 23.7766C21.551 24.0763 21.846 24.3741 22.1427 24.6738C22.1427 23.8161 22.1427 22.9583 22.1427 22.1023C21.846 22.402 21.551 22.6999 21.2543 22.9996C23.3581 22.9996 25.4619 22.9996 27.5657 22.9996C27.8678 22.9996 28.1681 22.9996 28.4701 22.9996C28.1734 22.6999 27.8784 22.402 27.5817 22.1023C27.5817 22.9601 27.5817 23.8178 27.5817 24.6738C27.5817 25.144 27.9904 25.5926 28.4701 25.5711C28.9517 25.5495 29.3586 25.1763 29.3586 24.6738C29.3586 23.8161 29.3586 22.9583 29.3586 22.1023C29.3586 21.6178 28.9517 21.2051 28.4701 21.2051C26.3663 21.2051 24.2625 21.2051 22.1587 21.2051C21.8567 21.2051 21.5564 21.2051 21.2543 21.2051C20.7746 21.2051 20.3659 21.616 20.3659 22.1023C20.3659 22.9601 20.3659 23.8178 20.3659 24.6738C20.3659 25.1583 20.7728 25.5711 21.2543 25.5711C23.3581 25.5711 25.4619 25.5711 27.5657 25.5711C27.8678 25.5711 28.1681 25.5711 28.4701 25.5711C28.9357 25.5711 29.3799 25.1583 29.3586 24.6738C29.3372 24.1875 28.9694 23.7766 28.4701 23.7766Z" fill="#4B6584"/>
<path d="M38.5502 23.7766C36.4464 23.7766 34.3426 23.7766 32.2388 23.7766C31.9368 23.7766 31.6365 23.7766 31.3344 23.7766C31.6312 24.0763 31.9261 24.3741 32.2228 24.6738C32.2228 23.8161 32.2228 22.9583 32.2228 22.1023C31.9261 22.402 31.6312 22.6999 31.3344 22.9996C33.4382 22.9996 35.542 22.9996 37.6458 22.9996C37.9479 22.9996 38.2482 22.9996 38.5502 22.9996C38.2535 22.6999 37.9586 22.402 37.6618 22.1023C37.6618 22.9601 37.6618 23.8178 37.6618 24.6738C37.6618 25.144 38.0705 25.5926 38.5502 25.5711C39.0318 25.5495 39.4387 25.1763 39.4387 24.6738C39.4387 23.8161 39.4387 22.9583 39.4387 22.1023C39.4387 21.6178 39.0318 21.2051 38.5502 21.2051C36.4464 21.2051 34.3426 21.2051 32.2388 21.2051C31.9368 21.2051 31.6365 21.2051 31.3344 21.2051C30.8547 21.2051 30.446 21.616 30.446 22.1023C30.446 22.9601 30.446 23.8178 30.446 24.6738C30.446 25.1583 30.8529 25.5711 31.3344 25.5711C33.4382 25.5711 35.542 25.5711 37.6458 25.5711C37.9479 25.5711 38.2482 25.5711 38.5502 25.5711C39.0158 25.5711 39.46 25.1583 39.4387 24.6738C39.4174 24.1875 39.0478 23.7766 38.5502 23.7766Z" fill="#4B6584"/>
<path d="M50.011 23.7766C47.9072 23.7766 45.8034 23.7766 43.6996 23.7766C43.3975 23.7766 43.0972 23.7766 42.7952 23.7766C43.0919 24.0763 43.3869 24.3741 43.6836 24.6738C43.6836 23.8161 43.6836 22.9583 43.6836 22.1023C43.3869 22.402 43.0919 22.6999 42.7952 22.9996C44.899 22.9996 47.0028 22.9996 49.1066 22.9996C49.4086 22.9996 49.7089 22.9996 50.011 22.9996C49.7143 22.6999 49.4193 22.402 49.1226 22.1023C49.1226 22.9601 49.1226 23.8178 49.1226 24.6738C49.1226 25.144 49.5312 25.5926 50.011 25.5711C50.4925 25.5495 50.8994 25.1763 50.8994 24.6738C50.8994 23.8161 50.8994 22.9583 50.8994 22.1023C50.8994 21.6178 50.4925 21.2051 50.011 21.2051C47.9072 21.2051 45.8034 21.2051 43.6996 21.2051C43.3975 21.2051 43.0972 21.2051 42.7952 21.2051C42.3154 21.2051 41.9067 21.616 41.9067 22.1023C41.9067 22.9601 41.9067 23.8178 41.9067 24.6738C41.9067 25.1583 42.3136 25.5711 42.7952 25.5711C44.899 25.5711 47.0028 25.5711 49.1066 25.5711C49.4086 25.5711 49.7089 25.5711 50.011 25.5711C50.4765 25.5711 50.9207 25.1583 50.8994 24.6738C50.8781 24.1875 50.5085 23.7766 50.011 23.7766Z" fill="#4B6584"/>
<path d="M61.2586 23.7766C59.1548 23.7766 57.051 23.7766 54.9471 23.7766C54.6451 23.7766 54.3448 23.7766 54.0427 23.7766C54.3395 24.0763 54.6344 24.3741 54.9312 24.6738C54.9312 23.8161 54.9312 22.9583 54.9312 22.1023C54.6344 22.402 54.3395 22.6999 54.0427 22.9996C56.1465 22.9996 58.2503 22.9996 60.3541 22.9996C60.6562 22.9996 60.9565 22.9996 61.2586 22.9996C60.9618 22.6999 60.6669 22.402 60.3701 22.1023C60.3701 22.9601 60.3701 23.8178 60.3701 24.6738C60.3701 25.144 60.7788 25.5926 61.2586 25.5711C61.7401 25.5495 62.147 25.1763 62.147 24.6738C62.147 23.8161 62.147 22.9583 62.147 22.1023C62.147 21.6178 61.7401 21.2051 61.2586 21.2051C59.1548 21.2051 57.051 21.2051 54.9471 21.2051C54.6451 21.2051 54.3448 21.2051 54.0427 21.2051C53.563 21.2051 53.1543 21.616 53.1543 22.1023C53.1543 22.9601 53.1543 23.8178 53.1543 24.6738C53.1543 25.1583 53.5612 25.5711 54.0427 25.5711C56.1465 25.5711 58.2503 25.5711 60.3541 25.5711C60.6562 25.5711 60.9565 25.5711 61.2586 25.5711C61.7241 25.5711 62.1683 25.1583 62.147 24.6738C62.1257 24.1875 61.7579 23.7766 61.2586 23.7766Z" fill="#4B6584"/>
<path d="M72.5096 23.7766C70.4058 23.7766 68.302 23.7766 66.1982 23.7766C65.8961 23.7766 65.5959 23.7766 65.2938 23.7766C65.5905 24.0763 65.8855 24.3741 66.1822 24.6738C66.1822 23.8161 66.1822 22.9583 66.1822 22.1023C65.8855 22.402 65.5905 22.6999 65.2938 22.9996C67.3976 22.9996 69.5014 22.9996 71.6052 22.9996C71.9073 22.9996 72.2076 22.9996 72.5096 22.9996C72.2129 22.6999 71.9179 22.402 71.6212 22.1023C71.6212 22.9601 71.6212 23.8178 71.6212 24.6738C71.6212 25.144 72.0299 25.5926 72.5096 25.5711C72.9911 25.5495 73.3981 25.1763 73.3981 24.6738C73.3981 23.8161 73.3981 22.9583 73.3981 22.1023C73.3981 21.6178 72.9911 21.2051 72.5096 21.2051C70.4058 21.2051 68.302 21.2051 66.1982 21.2051C65.8961 21.2051 65.5959 21.2051 65.2938 21.2051C64.814 21.2051 64.4054 21.616 64.4054 22.1023C64.4054 22.9601 64.4054 23.8178 64.4054 24.6738C64.4054 25.1583 64.8123 25.5711 65.2938 25.5711C67.3976 25.5711 69.5014 25.5711 71.6052 25.5711C71.9073 25.5711 72.2076 25.5711 72.5096 25.5711C72.9752 25.5711 73.4194 25.1583 73.3981 24.6738C73.3767 24.1875 73.0089 23.7766 72.5096 23.7766Z" fill="#4B6584"/>
<path d="M78.5332 4.71546C78.2827 6.19232 78.0339 7.66918 77.7834 9.14783C77.3871 11.4896 76.9909 13.8332 76.5964 16.175C76.5058 16.7134 76.4152 17.2517 76.3228 17.7919C76.6089 17.5729 76.8931 17.3522 77.1792 17.1333C76.6657 17.1333 76.154 17.1333 75.6405 17.1333C74.2439 17.1333 72.849 17.1333 71.4524 17.1333C69.3877 17.1333 67.323 17.1333 65.2565 17.1333C62.7262 17.1333 60.1978 17.1333 57.6675 17.1333C54.9063 17.1333 52.145 17.1333 49.3838 17.1333C46.5977 17.1333 43.8098 17.1333 41.0237 17.1333C38.4241 17.1333 35.8263 17.1333 33.2268 17.1333C31.0306 17.1333 28.8344 17.1333 26.6382 17.1333C25.0586 17.1333 23.4789 17.1333 21.8993 17.1333C21.1513 17.1333 20.3979 17.11 19.6498 17.1333C19.6178 17.1351 19.5876 17.1333 19.5556 17.1333C19.8524 17.433 20.1473 17.7308 20.4441 18.0305C20.5756 16.5608 20.707 15.093 20.8368 13.6233C21.0464 11.2707 21.2561 8.91814 21.4675 6.56557C21.5155 6.02902 21.5635 5.49068 21.6115 4.95413C21.6541 4.47141 21.1726 4.05688 20.723 4.05688C20.206 4.05688 19.8772 4.46962 19.8346 4.95413C19.7031 6.42381 19.5716 7.8917 19.4419 9.36138C19.2322 11.7139 19.0226 14.0665 18.8111 16.4191C18.7632 16.9556 18.7152 17.494 18.6672 18.0305C18.6246 18.515 19.1096 18.9278 19.5556 18.9278C20.0691 18.9278 20.5809 18.9278 21.0944 18.9278C22.491 18.9278 23.8858 18.9278 25.2825 18.9278C27.3472 18.9278 29.4119 18.9278 31.4784 18.9278C34.0086 18.9278 36.5371 18.9278 39.0673 18.9278C41.8286 18.9278 44.5898 18.9278 47.3511 18.9278C50.1372 18.9278 52.9251 18.9278 55.7112 18.9278C58.3107 18.9278 60.9085 18.9278 63.5081 18.9278C65.7043 18.9278 67.9005 18.9278 70.0967 18.9278C71.6763 18.9278 73.2559 18.9278 74.8355 18.9278C75.5854 18.9278 76.3352 18.9439 77.085 18.9278C77.117 18.9278 77.1472 18.9278 77.1792 18.9278C77.5364 18.9278 77.9717 18.6514 78.0357 18.2692C78.2862 16.7923 78.535 15.3155 78.7855 13.8368C79.1817 11.495 79.578 9.15142 79.9724 6.80962C80.0631 6.27128 80.1537 5.73293 80.2461 5.19279C80.326 4.71546 80.1199 4.22736 79.626 4.08919C79.1977 3.96896 78.6132 4.23454 78.5332 4.71546Z" fill="#4B6584"/>
<path d="M64.6577 8.1287C64.5635 8.12331 64.4711 8.11613 64.377 8.10716C64.3183 8.10178 64.0394 8.07486 64.2579 8.0964C64.0678 8.07666 63.8759 8.03538 63.6875 7.99231C63.4974 7.94925 63.3091 7.899 63.1243 7.84158C63.0319 7.81287 62.9395 7.78057 62.8489 7.74647C62.7902 7.72494 62.5521 7.61906 62.7245 7.69982C62.5503 7.61906 62.378 7.53472 62.211 7.43603C62.1292 7.38758 62.0475 7.33553 61.9693 7.28349C61.916 7.2476 61.7206 7.08969 61.8627 7.21172C61.7561 7.1202 61.6513 7.02868 61.5535 6.92639C61.5073 6.87794 61.4629 6.8277 61.4203 6.77566C61.4007 6.75233 61.3794 6.71464 61.3563 6.6967C61.3794 6.71644 61.4718 6.85641 61.4043 6.75771C61.2479 6.52802 61.1146 6.29294 60.9956 6.04171C60.9334 5.90713 61.0222 6.09734 61.024 6.1099C61.0205 6.08119 60.9974 6.03992 60.9867 6.01121C60.9618 5.94481 60.9387 5.87841 60.9174 5.81022C60.8712 5.66666 60.8321 5.51952 60.7984 5.37058C60.7841 5.30956 60.7717 5.24855 60.761 5.18574C60.7539 5.14985 60.7486 5.11396 60.7433 5.07987C60.7148 4.92913 60.7522 5.14268 60.7522 5.15883C60.7486 5.0063 60.7202 4.85376 60.7148 4.70123C60.7095 4.56665 60.7113 4.43206 60.7166 4.29568C60.7202 4.2239 60.7255 4.15212 60.7308 4.08034C60.7344 4.04445 60.7379 4.00856 60.7415 3.97447C60.7557 3.81296 60.7131 4.13956 60.7344 4.0283C60.7877 3.75016 60.8428 3.47919 60.9405 3.21181C60.9529 3.17951 60.9672 3.14721 60.9778 3.11491C61.0063 3.02519 60.9352 3.21361 60.937 3.21002C60.9743 3.15618 60.9938 3.08261 61.024 3.02339C61.088 2.89419 61.1608 2.76857 61.2426 2.64834C61.2621 2.61963 61.2834 2.59272 61.3012 2.564C61.3598 2.4689 61.1786 2.70756 61.2532 2.62322C61.2923 2.58015 61.3279 2.5317 61.367 2.48684C61.4647 2.37917 61.5731 2.28586 61.6779 2.18716C61.7596 2.11 61.5251 2.29483 61.6193 2.23202C61.6477 2.21228 61.6744 2.19075 61.7028 2.17281C61.7525 2.13871 61.8041 2.10641 61.8556 2.07411C61.9142 2.03822 61.9746 2.00592 62.0351 1.97541C62.0653 1.95926 62.0955 1.9467 62.1275 1.93055C62.266 1.86236 61.9746 1.98438 62.0777 1.95208C62.1985 1.9144 62.314 1.86954 62.4366 1.84083C62.5006 1.82468 62.5663 1.81391 62.6321 1.79955C62.776 1.76905 62.5557 1.81032 62.5432 1.81032C62.5841 1.81032 62.6267 1.80135 62.6676 1.79776C62.792 1.78699 62.9164 1.7834 63.0408 1.78699C63.1065 1.78879 63.174 1.79237 63.2398 1.79955C63.4814 1.82109 63.0781 1.76546 63.2753 1.80314C63.5418 1.85339 63.787 1.93773 64.0447 2.02027C64.1513 2.05437 63.8705 1.93773 63.9701 1.98797C64.0003 2.00233 64.0305 2.01489 64.0607 2.03104C64.1211 2.05975 64.1797 2.09026 64.2384 2.12256C64.3539 2.18537 64.4676 2.25535 64.576 2.33251C64.6026 2.35225 64.6293 2.37199 64.6559 2.38994C64.7465 2.44916 64.496 2.25715 64.6133 2.35584C64.6701 2.40429 64.7252 2.45095 64.7803 2.5012C64.8887 2.60169 64.9846 2.70936 65.0824 2.81882C65.2032 2.95699 64.974 2.6627 65.1037 2.84933C65.1446 2.90854 65.1836 2.96956 65.2192 3.03236C65.2547 3.09517 65.2903 3.15798 65.3205 3.22258C65.4235 3.43433 65.2725 3.06825 65.3347 3.2495C65.3827 3.38767 65.42 3.52405 65.452 3.66582C65.4928 3.85065 65.4377 3.45766 65.4573 3.69273C65.4626 3.76631 65.4662 3.84168 65.4662 3.91704C65.4662 3.99421 65.4591 4.06957 65.4537 4.14494C65.4484 4.23108 65.404 4.21852 65.4662 4.0606C65.4502 4.09829 65.4502 4.15033 65.4431 4.18981C65.4075 4.36208 65.3542 4.52896 65.2903 4.69406C65.1197 5.13191 65.4768 5.69897 65.9104 5.79766C66.4221 5.9161 66.8201 5.63975 67.0032 5.17139C67.5469 3.78066 67.1027 2.20511 66.0188 1.21455C64.9544 0.241941 63.4761 -0.204885 62.0617 0.0894102C60.5887 0.396267 59.5137 1.63267 59.1263 3.05928C58.7479 4.4536 58.9327 6.03812 59.6381 7.29785C60.642 9.08875 62.728 9.80295 64.6577 9.92318C65.1232 9.95189 65.5675 9.48892 65.5461 9.02594C65.523 8.51451 65.1552 8.161 64.6577 8.1287Z" fill="#4B6584"/>
<path d="M73.7356 8.1287C73.6415 8.12331 73.5491 8.11613 73.4549 8.10716C73.3963 8.10178 73.1173 8.07486 73.3359 8.0964C73.1457 8.07666 72.9538 8.03538 72.7655 7.99231C72.5754 7.94925 72.387 7.899 72.2022 7.84158C72.1098 7.81287 72.0174 7.78057 71.9268 7.74647C71.8682 7.72494 71.6301 7.61906 71.8024 7.69982C71.6283 7.61906 71.4559 7.53472 71.2889 7.43603C71.2072 7.38758 71.1254 7.33553 71.0473 7.28349C70.994 7.2476 70.7985 7.08969 70.9406 7.21172C70.834 7.1202 70.7292 7.02868 70.6315 6.92639C70.5853 6.87794 70.5409 6.8277 70.4982 6.77566C70.4787 6.75233 70.4573 6.71464 70.4342 6.6967C70.4573 6.71644 70.5497 6.85641 70.4822 6.75771C70.3259 6.52802 70.1926 6.29294 70.0735 6.04171C70.0113 5.90713 70.1002 6.09734 70.102 6.1099C70.0984 6.08119 70.0753 6.03992 70.0647 6.01121C70.0398 5.94481 70.0167 5.87841 69.9954 5.81022C69.9492 5.66666 69.9101 5.51952 69.8763 5.37058C69.8621 5.30956 69.8496 5.24855 69.839 5.18574C69.8319 5.14985 69.8266 5.11396 69.8212 5.07987C69.7928 4.92913 69.8301 5.14268 69.8301 5.15883C69.8266 5.0063 69.7981 4.85376 69.7928 4.70123C69.7875 4.56665 69.7892 4.43206 69.7946 4.29568C69.7981 4.2239 69.8035 4.15212 69.8088 4.08034C69.8123 4.04445 69.8159 4.00856 69.8194 3.97447C69.8337 3.81296 69.791 4.13956 69.8123 4.0283C69.8656 3.75016 69.9207 3.47919 70.0185 3.21181C70.0309 3.17951 70.0451 3.14721 70.0558 3.11491C70.0842 3.02519 70.0131 3.21361 70.0149 3.21002C70.0522 3.15618 70.0718 3.08261 70.102 3.02339C70.1659 2.89419 70.2388 2.76857 70.3205 2.64834C70.3401 2.61963 70.3614 2.59272 70.3792 2.564C70.4378 2.4689 70.2566 2.70756 70.3312 2.62322C70.3703 2.58015 70.4058 2.5317 70.4449 2.48684C70.5426 2.37917 70.651 2.28586 70.7558 2.18716C70.8376 2.11 70.603 2.29483 70.6972 2.23202C70.7256 2.21228 70.7523 2.19075 70.7807 2.17281C70.8305 2.13871 70.882 2.10641 70.9335 2.07411C70.9922 2.03822 71.0526 2.00592 71.113 1.97541C71.1432 1.95926 71.1734 1.9467 71.2054 1.93055C71.344 1.86236 71.0526 1.98438 71.1556 1.95208C71.2765 1.9144 71.392 1.86954 71.5146 1.84083C71.5785 1.82468 71.6443 1.81391 71.71 1.79955C71.8539 1.76905 71.6336 1.81032 71.6212 1.81032C71.662 1.81032 71.7047 1.80135 71.7456 1.79776C71.8699 1.78699 71.9943 1.7834 72.1187 1.78699C72.1844 1.78879 72.252 1.79237 72.3177 1.79955C72.5594 1.82109 72.156 1.76546 72.3533 1.80314C72.6198 1.85339 72.865 1.93773 73.1226 2.02027C73.2292 2.05437 72.9485 1.93773 73.048 1.98797C73.0782 2.00233 73.1084 2.01489 73.1386 2.03104C73.199 2.05975 73.2577 2.09026 73.3163 2.12256C73.4318 2.18537 73.5455 2.25535 73.6539 2.33251C73.6806 2.35225 73.7072 2.37199 73.7339 2.38994C73.8245 2.44916 73.574 2.25715 73.6912 2.35584C73.7481 2.40429 73.8032 2.45095 73.8583 2.5012C73.9666 2.60169 74.0626 2.70936 74.1603 2.81882C74.2811 2.95699 74.0519 2.6627 74.1816 2.84933C74.2225 2.90854 74.2616 2.96956 74.2971 3.03236C74.3327 3.09517 74.3682 3.15798 74.3984 3.22258C74.5015 3.43433 74.3504 3.06825 74.4126 3.2495C74.4606 3.38767 74.4979 3.52405 74.5299 3.66582C74.5708 3.85065 74.5157 3.45766 74.5352 3.69273C74.5406 3.76631 74.5441 3.84168 74.5441 3.91704C74.5441 3.99421 74.537 4.06957 74.5317 4.14494C74.5263 4.23108 74.4819 4.21852 74.5441 4.0606C74.5281 4.09829 74.5281 4.15033 74.521 4.18981C74.4855 4.36208 74.4322 4.52896 74.3682 4.69406C74.1976 5.13191 74.5548 5.69897 74.9883 5.79766C75.5001 5.9161 75.8981 5.63975 76.0811 5.17139C76.6248 3.78066 76.1806 2.20511 75.0967 1.21455C74.0324 0.241941 72.554 -0.204885 71.1397 0.0894102C69.6666 0.396267 68.5916 1.63267 68.2043 3.05928C67.8258 4.4536 68.0106 6.03812 68.716 7.29785C69.7199 9.08875 71.806 9.80295 73.7356 9.92318C74.2012 9.95189 74.6454 9.48892 74.6241 9.02594C74.6028 8.51451 74.2349 8.161 73.7356 8.1287Z" fill="#4B6584"/>
<path d="M29.6411 8.1287C29.5469 8.12331 29.4545 8.11613 29.3603 8.10716C29.3017 8.10178 29.0227 8.07486 29.2413 8.0964C29.0512 8.07666 28.8593 8.03538 28.6709 7.99231C28.4808 7.94925 28.2924 7.899 28.1076 7.84158C28.0152 7.81287 27.9228 7.78057 27.8322 7.74647C27.7736 7.72494 27.5355 7.61906 27.7078 7.69982C27.5337 7.61906 27.3614 7.53472 27.1943 7.43603C27.1126 7.38758 27.0309 7.33553 26.9527 7.28349C26.8994 7.2476 26.7039 7.08969 26.8461 7.21172C26.7395 7.1202 26.6346 7.02868 26.5369 6.92639C26.4907 6.87794 26.4463 6.8277 26.4036 6.77566C26.3841 6.75233 26.3628 6.71464 26.3397 6.6967C26.3628 6.71644 26.4552 6.85641 26.3876 6.75771C26.2313 6.52802 26.098 6.29294 25.979 6.04171C25.9168 5.90713 26.0056 6.09734 26.0074 6.1099C26.0038 6.08119 25.9807 6.03992 25.9701 6.01121C25.9452 5.94481 25.9221 5.87841 25.9008 5.81022C25.8546 5.66666 25.8155 5.51952 25.7817 5.37058C25.7675 5.30956 25.7551 5.24855 25.7444 5.18574C25.7373 5.14985 25.732 5.11396 25.7266 5.07987C25.6982 4.92913 25.7355 5.14268 25.7355 5.15883C25.732 5.0063 25.7035 4.85376 25.6982 4.70123C25.6929 4.56665 25.6947 4.43206 25.7 4.29568C25.7035 4.2239 25.7089 4.15212 25.7142 4.08034C25.7178 4.04445 25.7213 4.00856 25.7249 3.97447C25.7391 3.81296 25.6964 4.13956 25.7178 4.0283C25.7711 3.75016 25.8261 3.47919 25.9239 3.21181C25.9363 3.17951 25.9505 3.14721 25.9612 3.11491C25.9896 3.02519 25.9185 3.21361 25.9203 3.21002C25.9576 3.15618 25.9772 3.08261 26.0074 3.02339C26.0714 2.89419 26.1442 2.76857 26.2259 2.64834C26.2455 2.61963 26.2668 2.59272 26.2846 2.564C26.3432 2.4689 26.162 2.70756 26.2366 2.62322C26.2757 2.58015 26.3112 2.5317 26.3503 2.48684C26.4481 2.37917 26.5564 2.28586 26.6613 2.18716C26.743 2.11 26.5085 2.29483 26.6026 2.23202C26.6311 2.21228 26.6577 2.19075 26.6862 2.17281C26.7359 2.13871 26.7874 2.10641 26.839 2.07411C26.8976 2.03822 26.958 2.00592 27.0184 1.97541C27.0486 1.95926 27.0788 1.9467 27.1108 1.93055C27.2494 1.86236 26.958 1.98438 27.0611 1.95208C27.1819 1.9144 27.2974 1.86954 27.42 1.84083C27.484 1.82468 27.5497 1.81391 27.6154 1.79955C27.7594 1.76905 27.539 1.81032 27.5266 1.81032C27.5675 1.81032 27.6101 1.80135 27.651 1.79776C27.7754 1.78699 27.8997 1.7834 28.0241 1.78699C28.0899 1.78879 28.1574 1.79237 28.2231 1.79955C28.4648 1.82109 28.0614 1.76546 28.2587 1.80314C28.5252 1.85339 28.7704 1.93773 29.0281 2.02027C29.1347 2.05437 28.8539 1.93773 28.9534 1.98797C28.9836 2.00233 29.0138 2.01489 29.044 2.03104C29.1045 2.05975 29.1631 2.09026 29.2217 2.12256C29.3372 2.18537 29.4509 2.25535 29.5593 2.33251C29.586 2.35225 29.6126 2.37199 29.6393 2.38994C29.7299 2.44916 29.4794 2.25715 29.5966 2.35584C29.6535 2.40429 29.7086 2.45095 29.7637 2.5012C29.8721 2.60169 29.968 2.70936 30.0657 2.81882C30.1866 2.95699 29.9574 2.6627 30.0871 2.84933C30.1279 2.90854 30.167 2.96956 30.2026 3.03236C30.2381 3.09517 30.2736 3.15798 30.3038 3.22258C30.4069 3.43433 30.2559 3.06825 30.3181 3.2495C30.366 3.38767 30.4033 3.52405 30.4353 3.66582C30.4762 3.85065 30.4211 3.45766 30.4407 3.69273C30.446 3.76631 30.4495 3.84168 30.4495 3.91704C30.4495 3.99421 30.4424 4.06957 30.4371 4.14494C30.4318 4.23108 30.3874 4.21852 30.4495 4.0606C30.4335 4.09829 30.4336 4.15033 30.4264 4.18981C30.3909 4.36208 30.3376 4.52896 30.2736 4.69406C30.1031 5.13191 30.4602 5.69897 30.8938 5.79766C31.4055 5.9161 31.8035 5.63975 31.9865 5.17139C32.5302 3.78066 32.086 2.20511 31.0021 1.21455C29.9378 0.241941 28.4595 -0.204885 27.0451 0.0894102C25.5721 0.396267 24.4971 1.63267 24.1097 3.05928C23.7312 4.4536 23.916 6.03812 24.6214 7.29785C25.6254 9.08875 27.7114 9.80295 29.6411 9.92318C30.1066 9.95189 30.5508 9.48892 30.5295 9.02594C30.5064 8.51451 30.1386 8.161 29.6411 8.1287Z" fill="#4B6584"/>
<path d="M38.719 8.1287C38.6249 8.12331 38.5325 8.11613 38.4383 8.10716C38.3797 8.10178 38.1007 8.07486 38.3193 8.0964C38.1291 8.07666 37.9372 8.03538 37.7489 7.99231C37.5588 7.94925 37.3704 7.899 37.1856 7.84158C37.0932 7.81287 37.0008 7.78057 36.9102 7.74647C36.8516 7.72494 36.6135 7.61906 36.7858 7.69982C36.6117 7.61906 36.4393 7.53472 36.2723 7.43603C36.1906 7.38758 36.1088 7.33553 36.0307 7.28349C35.9773 7.2476 35.7819 7.08969 35.924 7.21172C35.8174 7.1202 35.7126 7.02868 35.6149 6.92639C35.5687 6.87794 35.5242 6.8277 35.4816 6.77566C35.4621 6.75233 35.4407 6.71464 35.4176 6.6967C35.4407 6.71644 35.5331 6.85641 35.4656 6.75771C35.3093 6.52802 35.176 6.29294 35.0569 6.04171C34.9947 5.90713 35.0836 6.09734 35.0854 6.1099C35.0818 6.08119 35.0587 6.03992 35.0481 6.01121C35.0232 5.94481 35.0001 5.87841 34.9788 5.81022C34.9326 5.66666 34.8935 5.51952 34.8597 5.37058C34.8455 5.30956 34.833 5.24855 34.8224 5.18574C34.8153 5.14985 34.81 5.11396 34.8046 5.07987C34.7762 4.92913 34.8135 5.14268 34.8135 5.15883C34.8099 5.0063 34.7815 4.85376 34.7762 4.70123C34.7709 4.56665 34.7726 4.43206 34.778 4.29568C34.7815 4.2239 34.7869 4.15212 34.7922 4.08034C34.7957 4.04445 34.7993 4.00856 34.8028 3.97447C34.8171 3.81296 34.7744 4.13956 34.7957 4.0283C34.849 3.75016 34.9041 3.47919 35.0019 3.21181C35.0143 3.17951 35.0285 3.14721 35.0392 3.11491C35.0676 3.02519 34.9965 3.21361 34.9983 3.21002C35.0356 3.15618 35.0552 3.08261 35.0854 3.02339C35.1493 2.89419 35.2222 2.76857 35.3039 2.64834C35.3235 2.61963 35.3448 2.59272 35.3626 2.564C35.4212 2.4689 35.24 2.70756 35.3146 2.62322C35.3537 2.58015 35.3892 2.5317 35.4283 2.48684C35.526 2.37917 35.6344 2.28586 35.7392 2.18716C35.821 2.11 35.5864 2.29483 35.6806 2.23202C35.709 2.21228 35.7357 2.19075 35.7641 2.17281C35.8139 2.13871 35.8654 2.10641 35.9169 2.07411C35.9756 2.03822 36.036 2.00592 36.0964 1.97541C36.1266 1.95926 36.1568 1.9467 36.1888 1.93055C36.3274 1.86236 36.036 1.98438 36.139 1.95208C36.2599 1.9144 36.3754 1.86954 36.498 1.84083C36.5619 1.82468 36.6277 1.81391 36.6934 1.79955C36.8373 1.76905 36.617 1.81032 36.6046 1.81032C36.6454 1.81032 36.6881 1.80135 36.729 1.79776C36.8533 1.78699 36.9777 1.7834 37.1021 1.78699C37.1678 1.78879 37.2354 1.79237 37.3011 1.79955C37.5428 1.82109 37.1394 1.76546 37.3366 1.80314C37.6032 1.85339 37.8484 1.93773 38.106 2.02027C38.2126 2.05437 37.9319 1.93773 38.0314 1.98797C38.0616 2.00233 38.0918 2.01489 38.122 2.03104C38.1824 2.05975 38.2411 2.09026 38.2997 2.12256C38.4152 2.18537 38.5289 2.25535 38.6373 2.33251C38.664 2.35225 38.6906 2.37199 38.7173 2.38994C38.8079 2.44916 38.5574 2.25715 38.6746 2.35584C38.7315 2.40429 38.7866 2.45095 38.8416 2.5012C38.95 2.60169 39.046 2.70936 39.1437 2.81882C39.2645 2.95699 39.0353 2.6627 39.165 2.84933C39.2059 2.90854 39.245 2.96956 39.2805 3.03236C39.3161 3.09517 39.3516 3.15798 39.3818 3.22258C39.4849 3.43433 39.3338 3.06825 39.396 3.2495C39.444 3.38767 39.4813 3.52405 39.5133 3.66582C39.5542 3.85065 39.4991 3.45766 39.5186 3.69273C39.524 3.76631 39.5275 3.84168 39.5275 3.91704C39.5275 3.99421 39.5204 4.06957 39.5151 4.14494C39.5097 4.23108 39.4653 4.21852 39.5275 4.0606C39.5115 4.09829 39.5115 4.15033 39.5044 4.18981C39.4689 4.36208 39.4156 4.52896 39.3516 4.69406C39.181 5.13191 39.5382 5.69897 39.9717 5.79766C40.4835 5.9161 40.8815 5.63975 41.0645 5.17139C41.6082 3.78066 41.164 2.20511 40.0801 1.21455C39.0158 0.241941 37.5374 -0.204885 36.1231 0.0894102C34.65 0.396267 33.575 1.63267 33.1877 3.05928C32.8092 4.4536 32.994 6.03812 33.6994 7.29785C34.7033 9.08875 36.7894 9.80295 38.719 9.92318C39.1846 9.95189 39.6288 9.48892 39.6075 9.02594C39.5844 8.51451 39.2166 8.161 38.719 8.1287Z" fill="#4B6584"/>
<path d="M62.0048 13.7022C61.1377 13.7022 60.2706 13.7022 59.4017 13.7022C57.3352 13.7022 55.267 13.7022 53.2005 13.7022C50.7022 13.7022 48.2039 13.7022 45.7057 13.7022C43.5344 13.7022 41.363 13.7022 39.1917 13.7022C38.1469 13.7022 37.0932 13.6646 36.0502 13.7022C36.036 13.7022 36.0218 13.7022 36.0058 13.7022C36.3025 14.0019 36.5975 14.2998 36.8942 14.5995C36.8942 13.3487 36.8942 12.098 36.8942 10.849C36.5975 11.1487 36.3025 11.4466 36.0058 11.7463C36.8729 11.7463 37.74 11.7463 38.6089 11.7463C40.6754 11.7463 42.7437 11.7463 44.8101 11.7463C47.3084 11.7463 49.8067 11.7463 52.3049 11.7463C54.4763 11.7463 56.6476 11.7463 58.8189 11.7463C59.8637 11.7463 60.9174 11.7839 61.9604 11.7463C61.9746 11.7463 61.9888 11.7463 62.0048 11.7463C61.7081 11.4466 61.4131 11.1487 61.1164 10.849C61.1164 12.0998 61.1164 13.3505 61.1164 14.5995C61.1164 15.0696 61.5251 15.5183 62.0048 15.4967C62.4864 15.4752 62.8933 15.1019 62.8933 14.5995C62.8933 13.3487 62.8933 12.098 62.8933 10.849C62.8933 10.3645 62.4864 9.95177 62.0048 9.95177C61.1377 9.95177 60.2706 9.95177 59.4017 9.95177C57.3352 9.95177 55.267 9.95177 53.2005 9.95177C50.7022 9.95177 48.2039 9.95177 45.7057 9.95177C43.5344 9.95177 41.363 9.95177 39.1917 9.95177C38.1451 9.95177 37.095 9.92845 36.0502 9.95177C36.036 9.95177 36.0218 9.95177 36.0058 9.95177C35.526 9.95177 35.1174 10.3627 35.1174 10.849C35.1174 12.0998 35.1174 13.3505 35.1174 14.5995C35.1174 15.084 35.5243 15.4967 36.0058 15.4967C36.8729 15.4967 37.74 15.4967 38.6089 15.4967C40.6754 15.4967 42.7437 15.4967 44.8101 15.4967C47.3084 15.4967 49.8067 15.4967 52.3049 15.4967C54.4763 15.4967 56.6476 15.4967 58.8189 15.4967C59.8655 15.4967 60.9156 15.5201 61.9604 15.4967C61.9746 15.4967 61.9888 15.4967 62.0048 15.4967C62.4704 15.4967 62.9146 15.084 62.8933 14.5995C62.8719 14.1132 62.5023 13.7022 62.0048 13.7022Z" fill="#4B6584"/>
</svg>
