<svg width="16" height="16" viewBox="0 0 16 16" fill="none" xmlns="http://www.w3.org/2000/svg">
<path d="M15.5 11.6901V13.9401C15.5009 14.1489 15.4581 14.3557 15.3744 14.5471C15.2907 14.7385 15.168 14.9103 15.0141 15.0515C14.8602 15.1927 14.6784 15.3002 14.4806 15.3671C14.2827 15.434 14.073 15.4589 13.865 15.4401C11.5571 15.1893 9.34026 14.4007 7.39251 13.1376C5.58038 11.9861 4.04401 10.4497 2.89251 8.63757C1.62499 6.68098 0.836193 4.45332 0.590011 2.13507C0.571269 1.92767 0.595917 1.71864 0.662386 1.52129C0.728855 1.32394 0.835689 1.14259 0.976085 0.988788C1.11648 0.834987 1.28736 0.712105 1.47785 0.627964C1.66834 0.543824 1.87427 0.500269 2.08251 0.500073H4.33251C4.69649 0.49649 5.04935 0.625382 5.32533 0.862722C5.60131 1.10006 5.78157 1.42966 5.83251 1.79007C5.92748 2.51012 6.1036 3.21712 6.35751 3.89757C6.45842 4.16602 6.48026 4.45776 6.42044 4.73823C6.36062 5.01871 6.22166 5.27615 6.02001 5.48007L5.06751 6.43257C6.13518 8.31023 7.68985 9.86491 9.56751 10.9326L10.52 9.98007C10.7239 9.77842 10.9814 9.63946 11.2619 9.57964C11.5423 9.51982 11.8341 9.54166 12.1025 9.64257C12.783 9.89648 13.49 10.0726 14.21 10.1676C14.5743 10.219 14.9071 10.4025 15.1449 10.6832C15.3828 10.9639 15.5091 11.3223 15.5 11.6901Z" fill="#A4B0BE" stroke="#A4B0BE" stroke-width="0.5" stroke-linecap="round" stroke-linejoin="round"/>
</svg>
