<svg width="162" height="52" viewBox="0 0 162 52" fill="none" xmlns="http://www.w3.org/2000/svg">
<path d="M25 5.03005L29.1811 18.4129C29.3768 19.0391 29.9567 19.4656 30.6129 19.4656H44.3031L33.1775 27.8721C32.6723 28.2539 32.4612 28.9118 32.65 29.5162L36.8686 43.019L25.9043 34.7343C25.3692 34.33 24.6308 34.33 24.0957 34.7343L13.1314 43.019L17.35 29.5162C17.5388 28.9118 17.3277 28.2539 16.8225 27.8721L5.6969 19.4656H19.3871C20.0433 19.4656 20.6232 19.0391 20.8189 18.4129L25 5.03005Z" stroke="#4B6584" stroke-width="3" stroke-linejoin="round"/>
<path d="M81 5.03005L85.1811 18.4129C85.3768 19.0391 85.9567 19.4656 86.6129 19.4656H100.303L89.1775 27.8721C88.6723 28.2539 88.4612 28.9118 88.65 29.5162L92.8686 43.019L81.9043 34.7343C81.3692 34.33 80.6308 34.33 80.0957 34.7343L69.1314 43.019L73.35 29.5162C73.5388 28.9118 73.3277 28.2539 72.8225 27.8721L61.6969 19.4656H75.3871C76.0433 19.4656 76.6232 19.0391 76.8189 18.4129L81 5.03005Z" stroke="#4B6584" stroke-width="3" stroke-linejoin="round"/>
<path d="M137 5.03005L141.181 18.4129C141.377 19.0391 141.957 19.4656 142.613 19.4656H156.303L145.177 27.8721C144.672 28.2539 144.461 28.9118 144.65 29.5162L148.869 43.019L137.904 34.7343C137.369 34.33 136.631 34.33 136.096 34.7343L125.131 43.019L129.35 29.5162C129.539 28.9118 129.328 28.2539 128.823 27.8721L117.697 19.4656H131.387C132.043 19.4656 132.623 19.0391 132.819 18.4129L137 5.03005Z" stroke="#4B6584" stroke-width="3" stroke-linejoin="round"/>
</svg>
