<svg width="62" height="81" viewBox="0 0 62 81" fill="none" xmlns="http://www.w3.org/2000/svg">
<path d="M48.7864 54.0018C48.8727 54.2123 48.9258 54.374 49.0055 54.5225C49.3132 55.0876 49.6363 55.6459 49.9417 56.211C50.2892 56.8514 50.6212 57.5006 50.9642 58.1432C51.3405 58.8457 51.7233 59.5437 52.0996 60.2461C52.4493 60.8975 52.7879 61.5557 53.1376 62.2071C53.6245 63.1156 54.1224 64.0175 54.6049 64.9282C55.0675 65.799 55.5123 66.6787 55.9771 67.5474C56.3976 68.3318 56.8381 69.1051 57.2608 69.8895C57.5507 70.4258 57.8273 70.9664 58.1084 71.5071C58.2545 71.7863 58.4138 72.0611 58.5422 72.3491C58.7325 72.7724 58.6816 73.4194 58.2589 73.7451C57.8605 74.0509 57.4179 74.0731 56.9421 73.9357C56.557 73.8249 56.163 73.7518 55.7713 73.6632C55.4725 73.5945 55.1737 73.5324 54.8771 73.4571C54.5341 73.3707 54.1955 73.2532 53.848 73.1867C53.6156 73.1424 53.3877 73.107 53.1597 73.0361C52.8211 72.9297 52.4603 72.8942 52.1129 72.8145C51.7587 72.7325 51.4091 72.6306 51.0572 72.5464C50.7252 72.4688 50.3888 72.4045 50.0192 72.327C49.8443 72.7524 49.6695 73.1734 49.4969 73.5967C49.3441 73.9778 49.1936 74.3589 49.0431 74.7401C48.9104 75.0813 48.7753 75.4203 48.647 75.7616C48.5186 76.1028 48.4035 76.4507 48.2729 76.7897C48.1247 77.1709 47.9609 77.5476 47.8104 77.9287C47.6378 78.3674 47.5072 78.8239 47.3014 79.2471C47.0402 79.7878 46.6462 80.0581 46.0243 79.9739C45.6326 79.9208 45.3471 79.677 45.159 79.3358C44.8204 78.7175 44.4972 78.0927 44.163 77.4744C43.7359 76.6812 43.2999 75.8923 42.875 75.0968C42.4611 74.3191 42.0605 73.5346 41.6488 72.7591C41.2416 71.9924 40.8233 71.2346 40.4139 70.4701C39.9889 69.6724 39.5773 68.8702 39.1501 68.0747C38.7274 67.2925 38.2848 66.5214 37.8643 65.737C37.3995 64.8684 36.9568 63.9887 36.4921 63.1223C36.0716 62.3379 35.6334 61.5645 35.2062 60.7845C35.0778 60.5497 34.9384 60.3192 34.8454 60.071C34.6927 59.6722 34.3829 59.4262 34.0509 59.2024C33.5861 58.89 33.1214 58.5775 32.6389 58.2939C32.2582 58.0679 31.8665 57.8308 31.4482 57.7045C31.1096 57.6026 30.7333 57.6203 30.3681 57.7776C29.567 58.1211 28.8388 58.5775 28.1505 59.1071C28.0686 59.1714 27.969 59.2157 27.8761 59.2645C27.4622 59.486 27.2497 59.8738 27.0417 60.2682C26.5282 61.2454 26.0192 62.2226 25.4969 63.1954C25.0764 63.9798 24.6337 64.7532 24.2132 65.5376C23.5869 66.7053 22.9694 67.8797 22.3497 69.0519C21.8407 70.0136 21.3383 70.9775 20.8226 71.9348C20.4065 72.7081 19.9683 73.4682 19.5478 74.2393C19.1561 74.9572 18.7732 75.6818 18.3903 76.4064C17.8768 77.3769 17.3656 78.3497 16.8521 79.3225C16.5932 79.8122 16.1195 80.0714 15.6017 79.9828C15.1657 79.9075 14.8713 79.6371 14.7053 79.225C14.4375 78.5602 14.1631 77.8955 13.9019 77.2285C13.7049 76.7255 13.5345 76.2136 13.3398 75.7106C13.1538 75.2298 12.9458 74.7556 12.7555 74.277C12.6138 73.9158 12.4899 73.5457 12.3482 73.1845C12.242 72.912 12.1247 72.6439 12.0118 72.378C11.9676 72.3669 11.9299 72.3447 11.9012 72.3514C11.536 72.4444 11.1752 72.5464 10.8101 72.6372C10.56 72.6993 10.3032 72.697 10.0487 72.7968C9.72117 72.9231 9.35378 72.943 9.0063 73.0228C8.64113 73.107 8.28038 73.2067 7.91741 73.2975C7.67396 73.3574 7.43272 73.415 7.18705 73.4659C6.82852 73.5413 6.46997 73.6055 6.11365 73.6853C5.76839 73.7629 5.42313 73.8426 5.08451 73.9401C4.57547 74.0864 4.10849 74.0753 3.69683 73.6853C3.40469 73.4083 3.25198 72.7591 3.43567 72.409C3.77208 71.7664 4.12619 71.1348 4.46703 70.4945C4.88532 69.7078 5.29476 68.919 5.71085 68.1324C6.11144 67.379 6.51203 66.6256 6.91704 65.8744C7.28222 65.1963 7.66068 64.5249 8.02586 63.8447C8.38661 63.1755 8.73408 62.4996 9.09041 61.8282C9.51756 61.0216 9.9447 60.2173 10.3763 59.4129C10.8366 58.5554 11.3036 57.7023 11.7662 56.8447C12.1933 56.0514 12.6183 55.256 13.0343 54.4582C13.0985 54.3342 13.2756 54.2344 13.1494 54.0195C12.7732 54.0195 12.3814 54.0084 11.9875 54.0217C11.3479 54.0461 10.7326 53.9242 10.1527 53.6738C9.43346 53.3636 8.8713 52.8761 8.52825 52.1515C8.33792 51.7505 8.25382 51.3339 8.15644 50.904C7.98159 50.1284 7.99045 49.3484 8.09225 48.5906C8.21398 47.6843 8.17414 46.778 8.24054 45.874C8.2671 45.5305 8.24054 45.176 8.18078 44.8369C8.11439 44.458 7.90856 44.1345 7.58986 43.9019C7.09853 43.5407 6.57178 43.246 6.01627 42.9911C5.39215 42.7053 4.79901 42.3441 4.17046 42.0671C3.62158 41.8256 3.11255 41.5264 2.63671 41.1697C2.18521 40.8329 1.77577 40.4451 1.47035 39.962C0.976806 39.1776 0.90377 38.3134 1.10296 37.4515C1.30879 36.5651 1.77356 35.7807 2.28702 35.0273C2.86245 34.1853 3.4401 33.3432 3.97348 32.4746C4.29661 31.9473 4.5135 31.3711 4.40063 30.7152C4.35415 30.4493 4.25013 30.2167 4.11955 29.9973C3.75216 29.3746 3.36707 28.7608 2.97754 28.1493C2.59466 27.5488 2.183 26.9682 1.8134 26.3588C1.28444 25.488 0.93033 24.564 1.02992 23.5114C1.08304 22.9398 1.29329 22.439 1.61642 21.9803C2.0148 21.4152 2.56589 21.0297 3.13911 20.6552C3.82963 20.2032 4.58654 19.8907 5.3169 19.5229C5.96537 19.1949 6.62047 18.8759 7.24681 18.508C7.6474 18.2709 7.98381 17.9385 8.15865 17.4821C8.18299 17.4156 8.18963 17.3425 8.19627 17.2716C8.28701 16.1836 8.2516 15.0912 8.14758 14.0098C8.08119 13.3406 8.03692 12.6759 8.05905 12.0111C8.08561 11.1757 8.24939 10.3647 8.72302 9.65563C9.04393 9.17479 9.46444 8.79366 9.99782 8.54327C10.5091 8.30396 11.038 8.171 11.6046 8.171C11.9233 8.171 12.2509 8.0447 12.5563 8.08902C13.3752 8.20646 14.2029 8.13555 15.0152 8.23748C15.5397 8.30395 16.0598 8.35492 16.5799 8.32168C16.9384 8.29952 17.308 8.25521 17.64 8.08902C18.0406 7.88516 18.3128 7.54391 18.5187 7.16057C18.875 6.50024 19.1893 5.81997 19.5345 5.15521C19.9152 4.41733 20.2715 3.66171 20.7119 2.95928C21.0926 2.35435 21.5707 1.80925 22.2147 1.45028C22.8897 1.07358 23.6223 0.898528 24.377 1.06029C25.0166 1.19989 25.6275 1.45249 26.2007 1.79152C27.066 2.30339 27.8783 2.88838 28.706 3.45342C29.1951 3.7858 29.713 4.08494 30.2508 4.32869C30.5386 4.45943 30.875 4.61232 31.2158 4.50153C31.55 4.39295 31.8798 4.26443 32.1896 4.10267C33.0173 3.67058 33.761 3.10775 34.5312 2.58259C35.1752 2.14385 35.848 1.73391 36.5518 1.40818C37.0919 1.16 37.6739 0.9783 38.3047 1.01154C38.9399 1.04699 39.4976 1.25971 40.0155 1.60096C40.7348 2.07294 41.2128 2.76429 41.6112 3.49996C42.045 4.29988 42.4035 5.14191 42.8263 5.94849C43.1228 6.51575 43.3663 7.12068 43.8045 7.60374C43.9506 7.7655 44.132 7.89624 44.2892 8.04913C44.4109 8.16879 44.5658 8.16214 44.7119 8.20646C45.2741 8.36821 45.8517 8.38151 46.4139 8.30396C47.1973 8.19538 47.983 8.2131 48.7687 8.16657C48.9568 8.15549 49.145 8.07572 49.3287 8.08458C49.9218 8.11118 50.5282 8.10231 51.1036 8.22418C52.2523 8.47014 53.1199 9.1349 53.6023 10.2273C53.7241 10.5021 53.7307 10.8256 53.8126 11.1203C54.0406 11.9446 53.983 12.7867 53.8989 13.6132C53.817 14.4131 53.7971 15.2108 53.775 16.0107C53.7661 16.3453 53.7883 16.6799 53.786 17.0145C53.7816 17.4976 54.0029 17.8654 54.3482 18.1823C54.7333 18.5346 55.1959 18.7695 55.6496 19.0066C56.4175 19.4077 57.1944 19.7866 57.9801 20.1544C58.8034 20.54 59.5492 21.0297 60.1689 21.6967C60.45 22.0002 60.6337 22.3636 60.7997 22.7448C61.0608 23.3453 60.9812 23.9657 60.9391 24.5795C60.9236 24.8099 60.813 25.036 60.7289 25.2575C60.3747 26.1949 59.7927 27.0037 59.2504 27.8346C58.8454 28.4506 58.4116 29.0489 58.0332 29.6826C57.6968 30.2455 57.4489 30.8548 57.6304 31.5373C57.7432 31.9605 57.9402 32.3483 58.1792 32.7095C58.7414 33.5604 59.3301 34.3936 59.879 35.2511C60.2707 35.8649 60.5961 36.5119 60.8329 37.2122C61.0409 37.8282 61.0365 38.4508 60.9192 39.0469C60.7775 39.7493 60.3637 40.352 59.8037 40.8085C59.3611 41.1697 58.8919 41.4999 58.4094 41.8012C58.0664 42.0162 57.6791 42.1624 57.3139 42.3419C56.5105 42.7385 55.6916 43.1064 54.9126 43.5451C54.4699 43.7955 54.0295 44.1035 53.8724 44.6508C53.8458 44.7417 53.8037 44.8325 53.8037 44.9234C53.8082 45.9404 53.7573 46.962 53.8458 47.9702C53.9144 48.748 53.9764 49.5213 53.9321 50.2946C53.8812 51.1743 53.6798 52.023 53.1154 52.7387C52.8653 53.0556 52.5555 53.3038 52.2036 53.4943C51.5463 53.8489 50.8447 54.0284 50.0922 54.0129C49.6828 53.9951 49.2689 54.0018 48.7864 54.0018ZM49.1914 51.7172C49.1914 51.7061 49.1936 51.6928 49.1936 51.6818C49.4814 51.6818 49.7669 51.6773 50.0546 51.6818C50.3689 51.6862 50.6676 51.6352 50.9598 51.5089C51.2276 51.3915 51.398 51.1943 51.4755 50.9306C51.5928 50.5295 51.6636 50.1218 51.6414 49.6963C51.6171 49.1845 51.5839 48.6726 51.5419 48.1607C51.4467 46.993 51.3692 45.8208 51.4976 44.6486C51.5463 44.201 51.6901 43.7733 51.8893 43.3678C52.1638 42.8072 52.5909 42.3729 53.0712 41.9984C53.6156 41.5752 54.2088 41.2273 54.8417 40.9415C55.6097 40.5936 56.3644 40.2169 57.1147 39.8313C57.5418 39.6119 57.9446 39.3438 58.3054 39.0181C58.7436 38.6259 58.7237 38.1982 58.5732 37.7417C58.3806 37.1678 58.0243 36.667 57.6946 36.1596C57.0837 35.2223 56.3843 34.3382 55.8731 33.3366C55.6496 32.9001 55.4304 32.437 55.3397 31.9628C55.1272 30.846 55.2888 29.7558 55.8753 28.7697C56.391 27.9033 56.9443 27.059 57.5086 26.2237C57.896 25.652 58.3054 25.0914 58.5466 24.4421C58.7325 23.9369 58.7657 23.476 58.27 23.055C58.031 22.8511 57.772 22.6606 57.4932 22.5165C56.5061 22.0047 55.5057 21.5216 54.512 21.0186C53.7905 20.653 53.1044 20.2275 52.5289 19.6514C52.135 19.257 51.8517 18.7739 51.6769 18.2488C51.5352 17.8233 51.4511 17.3735 51.4622 16.9148C51.4909 15.8866 51.4799 14.8563 51.5573 13.8325C51.6215 12.9861 51.7145 12.1507 51.5064 11.3087C51.4002 10.8744 51.128 10.6062 50.7318 10.5243C50.256 10.4268 49.7713 10.3514 49.2733 10.4002C48.2995 10.4932 47.3213 10.5575 46.3453 10.6328C45.5153 10.6993 44.7119 10.573 43.9107 10.3669C43.2755 10.203 42.7687 9.86171 42.3128 9.40967C41.7551 8.85792 41.37 8.18651 41.0136 7.50403C40.5865 6.68194 40.2235 5.8244 39.803 4.99788C39.5485 4.4971 39.2807 3.99853 38.8403 3.62404C38.6367 3.45121 38.422 3.30496 38.1453 3.35814C37.882 3.40911 37.5987 3.44456 37.3685 3.57086C36.7953 3.8833 36.2331 4.22011 35.6975 4.59238C35.0269 5.05993 34.3652 5.54298 33.657 5.9507C33.2519 6.18337 32.8337 6.39166 32.3888 6.5512C32.1476 6.63762 31.8953 6.62876 31.6695 6.71739C31.3287 6.85035 30.99 6.8304 30.647 6.8016C30.4832 6.7883 30.3261 6.72404 30.1645 6.68416C29.9034 6.61768 29.6267 6.59109 29.3855 6.48251C28.5511 6.1036 27.7809 5.61389 27.0218 5.09981C26.1387 4.50153 25.3043 3.81682 24.2774 3.44456C23.8812 3.30053 23.5271 3.32269 23.2084 3.57308C23.0181 3.72154 22.841 3.90546 22.7171 4.11154C22.4161 4.61232 22.1395 5.12862 21.8739 5.64935C21.4622 6.45592 21.0904 7.28466 20.6655 8.08237C20.2604 8.84019 19.7448 9.52047 19.0033 9.98358C18.7488 10.1431 18.4456 10.2251 18.1712 10.3536C17.7817 10.5331 17.3611 10.5309 16.9495 10.5819C16.56 10.6284 16.166 10.6572 15.7743 10.6395C14.9997 10.604 14.2273 10.5309 13.4526 10.4733C13.3818 10.4689 13.3088 10.4666 13.238 10.4556C12.605 10.3558 11.9764 10.3891 11.3501 10.5065C11.0137 10.5686 10.7392 10.7458 10.5954 11.0383C10.4737 11.2887 10.3962 11.5834 10.3851 11.8626C10.363 12.4476 10.3409 13.0415 10.425 13.6176C10.5356 14.3799 10.5555 15.1421 10.56 15.9066C10.5666 16.6312 10.6396 17.3668 10.3652 18.0693C10.2413 18.3861 10.1483 18.7207 9.97569 19.0088C9.58174 19.6625 9.01073 20.1433 8.36005 20.5311C7.83995 20.8413 7.31099 21.1316 6.75326 21.3776C6.07824 21.6745 5.4187 22.0135 4.77245 22.3681C4.38735 22.5786 3.99119 22.7891 3.68577 23.1303C3.53306 23.2987 3.35821 23.4405 3.36928 23.6909C3.38035 23.928 3.34272 24.1917 3.43567 24.3956C3.63929 24.8498 3.88938 25.2864 4.15718 25.7074C4.75696 26.6469 5.39215 27.5621 5.98528 28.506C6.31727 29.0356 6.574 29.6162 6.68687 30.23C6.8927 31.3445 6.66916 32.3904 6.11586 33.3809C5.70642 34.1166 5.22394 34.8035 4.75917 35.5037C4.30104 36.1929 3.80307 36.8576 3.48879 37.6376C3.24091 38.2514 3.3228 38.7278 3.83626 39.151C3.99783 39.284 4.17488 39.397 4.35194 39.5122C5.28149 40.1105 6.31505 40.5049 7.2955 41.0035C8.01922 41.3713 8.7208 41.7658 9.31837 42.3264C10.1085 43.0665 10.4914 43.9905 10.5511 45.0585C10.5688 45.3577 10.5755 45.6568 10.5688 45.956C10.5511 46.6362 10.5777 47.3254 10.4847 47.9968C10.3807 48.7369 10.3541 49.4748 10.3873 50.2149C10.4006 50.5184 10.4737 50.8397 10.6065 51.1101C10.7968 51.5001 11.1996 51.6507 11.6046 51.6707C12.5718 51.7172 13.5367 51.7039 14.5039 51.5976C15.5596 51.4823 16.6219 51.3649 17.671 51.6662C17.8635 51.7216 18.0517 51.7926 18.2464 51.8324C18.6935 51.9233 19.0587 52.1582 19.4039 52.4462C20.0325 52.967 20.4751 53.6317 20.8469 54.3386C21.2675 55.1363 21.6304 55.9628 22.0332 56.7694C22.3099 57.3256 22.5909 57.8795 23.0115 58.3493C23.2527 58.6174 23.5426 58.8235 23.9012 58.7703C24.2309 58.7238 24.5629 58.6196 24.8573 58.4357C25.3818 58.11 25.924 57.8064 26.4331 57.4563C27.2099 56.9201 27.9668 56.3617 28.8123 55.9318C29.297 55.6836 29.7993 55.4775 30.3261 55.3823C31.01 55.2582 31.7116 55.3202 32.3667 55.544C32.8602 55.7146 33.3405 55.9562 33.7831 56.2354C34.644 56.7783 35.4674 57.381 36.3172 57.9372C36.855 58.2895 37.3995 58.6374 38.0457 58.7615C38.1675 58.7858 38.3069 58.7681 38.4286 58.7327C38.8558 58.6108 39.0992 58.2673 39.3316 57.9261C39.8738 57.1284 40.2368 56.2309 40.6618 55.3712C40.9694 54.7529 41.2615 54.1281 41.6466 53.552C42.0295 52.9825 42.4744 52.475 43.0675 52.1138C43.3198 51.961 43.6031 51.8901 43.8797 51.7948C44.2516 51.6663 44.63 51.5377 45.0151 51.5266C45.7897 51.5067 46.5666 51.5333 47.3412 51.571C47.9565 51.5909 48.5739 51.664 49.1914 51.7172ZM23.8503 61.179C23.6046 61.1236 23.3877 61.046 23.1664 61.0283C22.7503 60.995 22.3873 60.8045 22.0642 60.5895C21.5795 60.2682 21.159 59.8472 20.8492 59.3442C20.5216 58.8168 20.2007 58.285 19.9108 57.7355C19.6363 57.2126 19.4239 56.6586 19.1561 56.1334C18.8706 55.5706 18.6028 54.9901 18.1889 54.507C18.0229 54.3142 17.8215 54.1126 17.5913 54.0239C17.1863 53.8644 16.7503 53.7979 16.301 53.8201C16.0819 53.8312 15.958 53.9065 15.8628 54.0993C15.6415 54.5535 15.4135 55.0056 15.1701 55.4487C14.7496 56.2176 14.3047 56.9732 13.8908 57.7466C13.4703 58.531 13.0808 59.3354 12.6625 60.122C12.2486 60.8975 11.8104 61.6598 11.3944 62.4331C10.9185 63.3217 10.4626 64.2214 9.98676 65.1099C9.45559 66.1026 8.90892 67.0865 8.37333 68.077C7.89528 68.9633 7.42165 69.8519 6.95467 70.7449C6.90598 70.8357 6.90376 70.9532 6.87057 71.0928C7.03213 71.0573 7.13394 71.0329 7.23353 71.013C7.61642 70.9354 7.9993 70.8623 8.38218 70.7825C8.62563 70.7316 8.86909 70.6784 9.11033 70.6163C9.46444 70.5277 9.81191 70.4236 10.1682 70.3416C10.5157 70.2618 10.8676 70.202 11.2151 70.1289C11.4696 70.0757 11.7374 70.0535 11.9698 69.9538C12.2818 69.8186 12.5983 69.8164 12.917 69.8364C13.2711 69.8563 13.5367 70.0424 13.7049 70.3549C13.7979 70.5277 13.8754 70.7116 13.9506 70.8955C14.0878 71.2346 14.2228 71.5736 14.3534 71.9171C14.5415 72.4112 14.7186 72.9075 14.9089 73.3995C15.1103 73.9246 15.3206 74.4476 15.5308 74.9705C15.6592 75.2918 15.7964 75.6131 15.8982 75.8591C15.9735 75.8214 16.0908 75.8037 16.124 75.7416C18.6891 70.9687 21.2453 66.1935 23.8038 61.4183C23.8215 61.3873 23.8303 61.3518 23.837 61.3164C23.848 61.2787 23.848 61.241 23.8503 61.179ZM46.062 75.9832C46.2191 75.6087 46.3541 75.3073 46.4714 75.0015C46.6662 74.4985 46.8477 73.9889 47.0446 73.4859C47.2327 73.005 47.4386 72.5308 47.6223 72.05C47.8082 71.5669 47.9543 71.0662 48.1645 70.5942C48.2685 70.3593 48.3991 70.1244 48.6603 69.976C49.0498 69.7522 49.4482 69.8031 49.8399 69.8785C50.4286 69.9937 51.0085 70.1621 51.5928 70.3039C51.8561 70.3682 52.1195 70.4346 52.3873 70.49C52.7458 70.5654 53.1066 70.6186 53.4629 70.7005C54.0096 70.8268 54.5518 70.9687 55.1804 71.1238C55.1206 70.9421 55.1007 70.8291 55.0498 70.7338C54.6957 70.0735 54.3349 69.4176 53.9808 68.7572C53.5492 67.9529 53.1221 67.1485 52.6949 66.3419C52.3342 65.6594 51.9756 64.977 51.6171 64.2945C51.2785 63.6519 50.9399 63.0071 50.5946 62.3667C50.1719 61.5867 49.7359 60.8133 49.3154 60.0334C48.8949 59.2512 48.4876 58.4601 48.0671 57.6757C47.7683 57.1173 47.4541 56.57 47.1575 56.0116C46.81 55.3623 46.4758 54.7042 46.1306 54.055C46.0575 53.9176 45.9535 53.8156 45.7654 53.8289C45.3891 53.8511 45.0195 53.8444 44.6433 53.9663C44.3069 54.0749 44.0546 54.2411 43.8355 54.4959C43.4172 54.9812 43.156 55.564 42.8617 56.1201C42.4323 56.9289 42.0782 57.7776 41.6533 58.5908C41.2482 59.3664 40.7193 60.0511 39.9911 60.5607C39.6835 60.7757 39.3493 60.9397 38.9775 61.015C38.7119 61.0704 38.4463 61.1214 38.1741 61.1768C38.1741 61.2388 38.1564 61.292 38.1763 61.3274C40.7414 66.1381 43.311 70.9465 45.8805 75.7549C45.9181 75.8214 45.9779 75.879 46.062 75.9832Z" fill="#4B6584" stroke="#4B6584" stroke-miterlimit="10"/>
<path d="M30.9989 50.1616C30.4257 50.1616 29.8481 50.1992 29.2793 50.1505C28.6884 50.0995 28.1063 49.9688 27.5198 49.8713C27.4733 49.8624 27.4268 49.8469 27.3804 49.8425C26.7961 49.807 26.2383 49.6298 25.6873 49.4658C24.9724 49.2531 24.2708 48.9982 23.5803 48.7057C22.3033 48.1651 21.1126 47.4892 19.9728 46.6982C18.4102 45.6124 17.069 44.3006 15.9005 42.8138C15.3605 42.1268 14.8735 41.389 14.4287 40.6378C14.006 39.922 13.6253 39.1775 13.3398 38.3887C13.1472 37.8591 12.9237 37.3428 12.7334 36.811C12.6426 36.5561 12.605 36.2836 12.5364 36.0199C12.4434 35.6676 12.3439 35.3153 12.2487 34.9629C12.2354 34.9164 12.2266 34.8699 12.2177 34.8233C12.169 34.5419 12.096 34.2627 12.0783 33.9813C12.0207 33.0639 11.8083 32.1621 11.8547 31.2336C11.8924 30.4714 11.8437 29.7069 12.003 28.9469C12.1159 28.4128 12.1314 27.8589 12.2221 27.3182C12.2819 26.9703 12.3992 26.6335 12.4921 26.2923C12.5541 26.064 12.6227 25.838 12.6825 25.6075C12.9193 24.6924 13.2889 23.8304 13.674 22.9707C14.2317 21.7253 14.9422 20.5797 15.7522 19.4895C16.6751 18.2531 17.7419 17.154 18.9414 16.1835C19.6032 15.6472 20.2981 15.1531 21.0262 14.7099C21.7987 14.2401 22.591 13.8125 23.4342 13.4801C23.9344 13.2829 24.4191 13.0458 24.9281 12.873C25.4062 12.7112 25.9064 12.6115 26.3955 12.4808C27.4888 12.1927 28.5998 12.0398 29.7264 11.9534C30.2841 11.9113 30.8418 11.8293 31.3995 11.8736C32.2295 11.9379 33.0572 12.0398 33.8827 12.1417C34.3276 12.1971 34.7725 12.2702 35.2129 12.3589C35.5249 12.4209 35.8282 12.5206 36.1336 12.6115C36.3593 12.678 36.5784 12.7755 36.8064 12.822C37.2734 12.9151 37.6895 13.1411 38.1299 13.2962C38.9178 13.5754 39.657 13.9587 40.3807 14.3642C40.9495 14.6833 41.5006 15.0401 42.034 15.4168C43.1738 16.2234 44.2339 17.1296 45.1568 18.18C45.6902 18.7871 46.1904 19.4186 46.664 20.0767C47.3589 21.0406 47.9145 22.0799 48.4346 23.1391C48.6603 23.6022 48.8152 24.0985 48.9945 24.5838C49.1538 25.0137 49.3132 25.4458 49.4482 25.8823C49.5367 26.1748 49.5832 26.4806 49.6496 26.782C49.7426 27.2118 49.8311 27.6417 49.924 28.0694C49.9373 28.127 49.9594 28.1846 49.9661 28.2422C50.1409 29.6449 50.1852 31.0519 50.1144 32.4634C50.0922 32.9266 50.0391 33.3897 49.9639 33.8484C49.8931 34.2804 49.7757 34.7059 49.6828 35.1358C49.612 35.4593 49.5566 35.785 49.477 36.1041C49.415 36.3567 49.3353 36.6049 49.2512 36.8509C49.1162 37.2386 48.9856 37.6286 48.8263 38.0075C48.585 38.5814 48.3372 39.1531 48.0672 39.7115C47.7153 40.4406 47.297 41.1319 46.8455 41.8033C46.1682 42.8071 45.3936 43.7289 44.5415 44.5887C43.8798 45.2534 43.1738 45.8672 42.4346 46.4389C42.0207 46.758 41.567 47.0261 41.1288 47.3142C40.3453 47.8283 39.5043 48.2404 38.6566 48.6326C38.1697 48.8586 37.6496 49.0093 37.1406 49.1866C36.6847 49.3439 36.231 49.5057 35.7684 49.632C35.4276 49.725 35.0757 49.7694 34.726 49.8314C34.2125 49.9245 33.6968 50.0131 33.1812 50.1017C33.0284 50.1283 32.8735 50.1549 32.7208 50.1571C32.1476 50.166 31.5744 50.1638 30.9989 50.1616ZM31.0144 47.8216C31.0144 47.8349 31.0144 47.8482 31.0144 47.8615C31.0742 47.8593 31.1339 47.8549 31.1937 47.8526C31.9772 47.8238 32.7651 47.8571 33.5397 47.682C33.9536 47.5889 34.3851 47.5646 34.7968 47.4649C35.308 47.3386 35.8104 47.1724 36.3151 47.0128C36.6957 46.8932 37.0786 46.7735 37.446 46.6206C37.747 46.4965 38.0259 46.3126 38.3246 46.1819C39.2608 45.7719 40.1195 45.2268 40.9406 44.6285C41.7086 44.0701 42.4346 43.4519 43.0808 42.7517C43.5567 42.2354 44.0214 41.7014 44.4486 41.143C45.2033 40.1569 45.834 39.0911 46.3298 37.9477C46.4648 37.6375 46.591 37.3206 46.7105 37.0037C46.8587 36.6071 47.007 36.2105 47.131 35.8072C47.2306 35.4792 47.297 35.1424 47.3744 34.8078C47.463 34.4289 47.5603 34.05 47.6267 33.6667C47.6909 33.29 47.7241 32.9088 47.7595 32.5299C47.8901 31.1428 47.775 29.7601 47.6223 28.3818C47.6201 28.3574 47.6135 28.3353 47.609 28.3109C47.5183 27.9076 47.4298 27.5021 47.3346 27.101C47.2815 26.8817 47.2106 26.6689 47.1509 26.4518C47.0823 26.2014 47.0424 25.9399 46.9495 25.6984C46.7592 25.1954 46.5511 24.6968 46.3364 24.2027C46.1572 23.795 45.9823 23.3806 45.7566 22.9973C45.3737 22.3414 44.982 21.6921 44.5216 21.0827C44.1764 20.6241 43.8311 20.1587 43.4482 19.7399C42.5319 18.7406 41.5249 17.8321 40.3674 17.1075C39.7854 16.7441 39.2254 16.3297 38.6057 16.0461C38.0369 15.7868 37.4681 15.5187 36.8728 15.3038C36.2619 15.0844 35.6445 14.896 35.0225 14.721C34.467 14.5637 33.8916 14.4484 33.3184 14.3797C32.5858 14.2933 31.8444 14.2402 31.1052 14.2313C30.4877 14.2246 29.868 14.2889 29.2505 14.3443C28.7437 14.3886 28.2391 14.464 27.7345 14.526C27.7234 14.5282 27.7101 14.5304 27.6991 14.5349C27.179 14.6878 26.6544 14.834 26.1365 14.9958C25.5766 15.1686 25.0122 15.3304 24.4678 15.5431C24.0495 15.7071 23.66 15.9464 23.2549 16.148C22.1196 16.7108 21.086 17.431 20.121 18.2442C19.2181 19.0065 18.4036 19.8574 17.691 20.8035C17.0336 21.6766 16.4316 22.5807 15.9735 23.5778C15.7743 24.0143 15.5508 24.442 15.3715 24.8874C15.2166 25.2685 15.1037 25.6674 14.9842 26.064C14.8271 26.5825 14.65 27.0988 14.5438 27.6284C14.4088 28.3043 14.2981 28.989 14.2406 29.6737C14.1277 31.0342 14.2162 32.3925 14.3866 33.7442C14.3889 33.7553 14.3889 33.7686 14.3911 33.7797C14.5394 34.3779 14.6766 34.9784 14.8426 35.5701C15.0086 36.1595 15.1613 36.7578 15.3981 37.3184C15.8075 38.2867 16.2745 39.2285 16.8477 40.117C17.4718 41.0898 18.1801 41.9895 18.9835 42.8115C20.11 43.9638 21.3759 44.9432 22.7924 45.7276C23.5205 46.1309 24.2664 46.501 25.0432 46.7912C25.4681 46.9486 25.8931 47.1258 26.3534 47.2056C26.9178 47.3053 27.4622 47.5269 28.0244 47.6399C28.5113 47.7396 29.0115 47.7862 29.5095 47.8128C30.0096 47.8438 30.5142 47.8216 31.0144 47.8216Z" fill="#4B6584" stroke="#4B6584" stroke-miterlimit="10"/>
<path d="M43.4571 27.5066C42.875 27.5464 42.5253 27.1631 42.3416 26.7044C42.076 26.0397 41.7595 25.4059 41.3966 24.7877C40.7193 23.6288 39.8429 22.6538 38.8403 21.7763C38.2051 21.2201 37.5058 20.7592 36.7688 20.356C36.3372 20.1189 35.8857 19.9239 35.4364 19.72C35.2682 19.6425 35.0845 19.5959 34.9119 19.5294C34.3298 19.3079 33.9779 18.6741 34.1815 18.1046C34.3232 17.7124 34.5821 17.3823 35.0602 17.3357C35.3855 17.3047 35.6821 17.369 35.9964 17.4687C36.5917 17.6593 37.1583 17.9185 37.7027 18.2021C38.4132 18.5744 39.0926 19.0109 39.7367 19.5029C40.5733 20.141 41.3213 20.8634 42.0096 21.6545C42.6338 22.3702 43.1804 23.1435 43.6297 23.9789C43.9241 24.524 44.1808 25.0891 44.4419 25.6497C44.5216 25.8203 44.577 26.0042 44.6212 26.1881C44.7252 26.6158 44.3933 27.1254 44.0878 27.3515C43.8953 27.4977 43.6828 27.5066 43.4571 27.5066Z" fill="#4B6584" stroke="#4B6584" stroke-miterlimit="10"/>
</svg>
