<svg width="77" height="79" viewBox="0 0 77 79" fill="none" xmlns="http://www.w3.org/2000/svg">
<path d="M42.9684 45.0245C42.8793 44.8951 42.8125 44.7678 42.7189 44.6669C41.581 43.4097 40.4386 42.1569 39.2984 40.9019C39.1603 40.7505 39.0356 40.5904 38.8976 40.439C38.7083 40.2327 38.6058 40.2218 38.3542 40.3358C37.891 40.5443 37.4323 40.7593 36.9602 40.948C36.2988 41.2135 35.6106 41.3868 34.9092 41.5338C34.181 41.6852 33.4572 41.6698 32.7268 41.672C31.8939 41.6764 31.1212 41.4416 30.4086 41.0423C29.5334 40.5509 28.7918 39.9102 28.313 39.0172C28.1037 38.6267 27.9478 38.2164 27.9055 37.771C27.881 37.5209 27.8031 37.2751 27.7942 37.025C27.7697 36.4217 27.9078 35.838 28.0414 35.2522C28.3643 33.8502 29.0702 32.6413 29.9253 31.5026C30.1124 31.2547 30.1102 31.2064 29.8786 31.0045C29.7895 30.9256 29.6781 30.8641 29.6047 30.772C29.2818 30.3727 29.2194 30.0084 29.5757 29.5696C29.8608 29.2208 30.4219 29.1593 30.7849 29.4336C30.9764 29.5784 31.1524 29.7408 31.3283 29.8922C31.7804 29.5631 32.2035 29.223 32.6578 28.929C33.7823 28.2027 35.0138 27.7464 36.3678 27.7025C37.2808 27.6718 38.1582 27.8363 38.9109 28.4178C39.4365 28.8237 39.8039 29.3349 39.913 29.9821C40.0021 30.5131 39.6436 31.3095 39.0067 31.5596C38.6994 31.6803 38.4076 31.6847 38.0803 31.6079C37.312 31.428 36.5348 31.2634 35.7532 31.1515C34.9648 31.0396 34.2678 31.3029 33.671 31.8185C33.4884 31.9765 33.4973 32.0511 33.6888 32.2595C34.2032 32.8168 34.7266 33.3675 35.2365 33.9292C35.8578 34.616 36.468 35.3115 37.0826 36.0026C37.3744 36.3295 37.43 36.3273 37.822 36.1518C38.3364 35.9214 38.8575 35.702 39.3853 35.5024C39.893 35.3115 40.4096 35.1294 40.933 34.9846C41.3405 34.8705 41.7614 34.7761 42.1845 34.7432C42.9283 34.6862 43.6721 34.7037 44.4003 34.899C45.0594 35.0767 45.6963 35.3093 46.2686 35.6801C46.8966 36.0882 47.4823 36.5489 47.9589 37.1325C48.4711 37.7622 48.7739 38.4665 48.8474 39.2805C48.8964 39.8268 48.8741 40.3666 48.8006 40.8997C48.7205 41.4746 48.5423 42.0362 48.3107 42.576C47.8609 43.6247 47.2953 44.6055 46.576 45.4984C46.5092 45.5818 46.4557 45.6784 46.3711 45.8078C46.5737 45.9877 46.7742 46.1698 46.979 46.3475C47.1973 46.5362 47.4266 46.714 47.6404 46.907C47.9166 47.155 48.0279 47.5718 47.8742 47.8922C47.7184 48.2235 47.4734 48.4604 47.0614 48.4582C46.7987 48.456 46.5648 48.4209 46.3622 48.2235C46.0526 47.9207 45.7208 47.6376 45.3957 47.348C45.1485 47.1286 45.0951 47.1242 44.8523 47.3436C44.3936 47.7539 43.9192 48.1379 43.3759 48.4407C42.8993 48.7062 42.4072 48.9102 41.8772 49.0484C41.287 49.1998 40.6925 49.3358 40.0823 49.2985C38.6548 49.2108 37.3499 48.7961 36.2876 47.8C35.8667 47.4051 35.5349 46.9421 35.477 46.3651C35.4503 46.1084 35.5171 45.8078 35.6396 45.5752C35.9224 45.0421 36.399 44.691 37.0002 44.5989C37.2808 44.555 37.6082 44.6362 37.8821 44.7415C38.2139 44.8688 38.5145 45.0794 38.8263 45.2593C39.2962 45.5292 39.7505 45.8166 40.3005 45.9329C40.8929 46.0579 41.4385 45.9482 41.9685 45.7091C42.3181 45.5555 42.6432 45.3449 42.9684 45.0245ZM40.1624 39.4758C40.4341 39.7808 40.6746 40.0616 40.9263 40.3337C41.9328 41.4131 42.9394 42.4926 43.9527 43.5655C44.2243 43.8529 44.3245 43.8332 44.5606 43.4975C44.8969 43.017 45.2064 42.5255 45.3667 41.9507C45.6184 41.0599 45.5917 40.2108 44.9637 39.4758C44.3602 38.7671 43.5674 38.4841 42.6232 38.5696C41.817 38.642 41.1111 38.9975 40.3807 39.2849C40.3117 39.3134 40.2582 39.3924 40.1624 39.4758ZM35.918 37.0821C34.711 35.7393 33.5307 34.4382 32.2525 33.2183C32.1634 33.2798 32.0921 33.3105 32.0476 33.3632C31.3817 34.1552 30.9631 35.0306 31.0878 36.0947C31.1435 36.5709 31.3506 36.9614 31.6913 37.2927C32.4106 37.9904 33.3036 38.0365 34.2077 37.8522C34.6954 37.7534 35.1519 37.5033 35.6173 37.3081C35.7153 37.2642 35.7955 37.1742 35.918 37.0821Z" fill="#4B6584"/>
<path d="M51.4729 13.5333C51.4752 13.8185 51.3972 14.0752 51.2235 14.3078C50.0232 15.9226 48.863 17.5704 47.5046 19.0645C46.2352 20.4621 44.8746 21.772 43.4071 22.9677C42.7457 23.5075 42.0776 24.0428 41.3717 24.5233C40.7637 24.938 40.0132 24.7076 39.6681 24.0735C39.3496 23.4855 39.5723 22.9151 40.0288 22.5772C41.0198 21.8466 41.9729 21.0765 42.9016 20.2691C43.9972 19.3146 45.0193 18.2878 45.9747 17.1974C47.1772 15.8239 48.2372 14.3429 49.3039 12.8685C49.6201 12.4297 50.168 12.2739 50.7559 12.4626C51.1656 12.5965 51.4707 13.0484 51.4729 13.5333Z" fill="#4B6584"/>
<path d="M37.2808 54.8012C37.2898 55.2751 36.9958 55.5581 36.6662 55.8192C35.8757 56.4489 35.074 57.0655 34.3035 57.7193C32.8671 58.937 31.5555 60.2797 30.3596 61.73C29.765 62.4497 29.2127 63.2022 28.6471 63.946C28.3153 64.3848 28.0013 64.8368 27.6673 65.2734C27.3622 65.6727 26.8344 65.8592 26.3712 65.7188C25.8724 65.5674 25.5873 65.2142 25.4983 64.7139C25.4448 64.4133 25.5584 64.1413 25.7298 63.9021C26.0817 63.4063 26.438 62.9104 26.8121 62.4277C27.5314 61.4974 28.2351 60.5584 28.9923 59.6588C30.2616 58.1515 31.6868 56.7934 33.2056 55.534C33.9004 54.9592 34.6197 54.4107 35.3345 53.8599C36.0182 53.3356 36.811 53.6164 37.1428 54.2527C37.2274 54.415 37.2363 54.6169 37.2808 54.8012Z" fill="#4B6584"/>
<path d="M3.26699 49.7483C3.40951 49.1976 3.60993 48.6578 3.81258 48.1269C3.91947 47.8438 4.03304 47.5608 4.15107 47.2822C4.18447 47.2032 4.21788 47.1264 4.24906 47.0474C3.98851 47.6727 4.13994 47.2997 4.20452 47.1549C4.28023 46.9838 4.35595 46.8104 4.43612 46.6393C4.80356 45.8385 5.20217 45.053 5.62751 44.2807C6.14416 43.346 6.69866 42.4311 7.29102 41.5403C7.62283 41.0423 7.96354 40.5508 8.31762 40.0659C8.50246 39.8114 8.69175 39.5591 8.88326 39.309C8.96566 39.2015 9.04805 39.0961 9.13045 38.9908C8.76523 39.4669 9.18612 38.925 9.27742 38.8109C11.128 36.5181 13.2302 34.4228 15.5239 32.5601C15.682 32.4306 15.8424 32.3034 16.0027 32.1761C16.1541 32.0576 16.3724 31.9413 16.4948 31.7943C16.3011 32.0269 16.2944 31.9457 16.4058 31.8624C16.4904 31.7987 16.575 31.7351 16.6574 31.6737C16.8556 31.5267 17.056 31.3797 17.2587 31.2349C17.9713 30.7236 18.6973 30.2344 19.4388 29.7648C21.0288 28.7578 22.6834 27.8472 24.3848 27.0333C26.2175 26.1578 28.1015 25.4053 29.9031 24.4618C31.5332 23.6083 33.1143 22.6605 34.6241 21.6118C39.2739 18.3843 43.3225 14.2375 46.0014 9.26582C47.1862 7.06738 48.2462 4.63637 48.6559 2.15929C48.6849 1.98377 48.7071 1.80166 48.7294 1.62833C47.7785 2.01668 46.8276 2.40503 45.879 2.79118C46.8165 3.68635 47.7562 4.57933 48.6938 5.4745C50.9474 7.62248 53.1988 9.76826 55.4525 11.9162C58.176 14.514 60.9017 17.1096 63.6252 19.7073C65.9791 21.9518 68.3329 24.1942 70.6868 26.4387C71.8225 27.5225 72.9293 28.6569 74.1051 29.6968C74.1207 29.7122 74.1385 29.7275 74.1541 29.7429C74.0115 29.2098 73.8668 28.6766 73.7243 28.1412C73.5795 28.6985 73.3724 29.2427 73.1631 29.778C73.1163 29.8965 73.0696 30.0172 73.0206 30.1356C72.9916 30.2059 72.9627 30.2739 72.9337 30.3441C72.9181 30.3792 72.9025 30.4165 72.8892 30.4516C72.7756 30.7258 73.0718 30.0325 72.9783 30.241C72.8313 30.5766 72.6821 30.9123 72.524 31.2436C72.1387 32.0532 71.7223 32.8497 71.2747 33.6286C70.7402 34.561 70.1657 35.4716 69.5555 36.3558C69.2036 36.8648 68.8407 37.365 68.4688 37.8587C68.3752 37.9816 68.2795 38.1044 68.1859 38.2273C67.9967 38.473 68.4465 37.8982 68.2527 38.1417C68.2038 38.2032 68.1548 38.2668 68.1035 38.3282C67.8831 38.6025 67.6604 38.8745 67.4355 39.1444C65.4624 41.4942 63.2311 43.6313 60.8149 45.5357C60.6501 45.6651 60.4853 45.7924 60.3205 45.9197C60.0354 46.1391 60.5543 45.7441 60.365 45.8867C60.2938 45.9394 60.2225 45.9942 60.1535 46.0469C59.7793 46.3277 59.3985 46.602 59.0155 46.8719C58.2495 47.4116 57.4678 47.9294 56.6706 48.4253C54.9492 49.4981 53.1632 50.4723 51.3304 51.3499C49.4153 52.267 47.4601 53.0854 45.5895 54.0969C43.9081 55.0074 42.278 56.0167 40.7303 57.1356C36.1963 60.4157 32.2191 64.6261 29.932 69.7427C29.2306 71.3092 28.6471 72.924 28.2997 74.6047C28.1193 75.4735 27.9545 76.3775 27.9434 77.2683C27.9434 77.3012 27.9412 77.3341 27.9412 77.367C28.8921 76.9786 29.843 76.5903 30.7916 76.2041C29.8652 75.2739 28.9411 74.3458 28.0147 73.4155C25.7922 71.1842 23.5675 68.9506 21.3451 66.7193C18.6549 64.0184 15.9648 61.3175 13.2725 58.6166C10.9454 56.28 8.61826 53.9433 6.29113 51.6088C5.15986 50.4723 4.05086 49.3051 2.89064 48.1949C2.87282 48.1795 2.85723 48.162 2.84165 48.1466C2.22924 47.5323 1.08684 47.495 0.478892 48.1466C-0.137962 48.8092 -0.17582 49.8163 0.478892 50.4745C1.40529 51.4048 2.32946 52.3329 3.25585 53.2631C5.47831 55.4945 7.70299 57.728 9.92545 59.9594C12.6156 62.6603 15.3057 65.3611 17.998 68.062C20.3251 70.3987 22.6523 72.7332 24.9794 75.0698C26.1107 76.2041 27.2085 77.3867 28.3799 78.4838C28.3977 78.4991 28.4133 78.5167 28.4289 78.532C29.4466 79.5523 31.2815 78.7865 31.2793 77.3692C31.2793 77.2288 31.2882 77.0883 31.2994 76.9501C31.3127 76.7834 31.3283 76.6144 31.3484 76.4477C31.3706 76.2656 31.4441 75.8334 31.3283 76.5815C31.3484 76.4565 31.3639 76.3336 31.384 76.2085C31.6134 74.8087 32.012 73.4352 32.5242 72.1122C32.6043 71.9038 32.689 71.6976 32.7758 71.4913C32.9139 71.16 32.5843 71.9301 32.7669 71.5133C32.8226 71.386 32.8805 71.2609 32.9384 71.1337C33.1588 70.6576 33.3927 70.1902 33.6421 69.7295C34.1921 68.7115 34.8112 67.7307 35.4882 66.7917C35.6686 66.5394 35.8556 66.2914 36.0449 66.0457C36.1162 65.9535 36.3144 65.7144 35.9781 66.1291C36.0293 66.0676 36.0783 66.004 36.1273 65.9404C36.2453 65.7912 36.3656 65.6442 36.4881 65.4994C36.9245 64.9772 37.3788 64.4682 37.8487 63.9745C38.9354 62.8336 40.109 61.7739 41.3427 60.7909C41.5031 60.6637 41.6656 60.5386 41.826 60.4114C42.1177 60.1832 41.5187 60.6395 41.8193 60.4179C41.9039 60.3543 41.9863 60.2929 42.0709 60.2293C42.4451 59.9528 42.8236 59.6829 43.2067 59.4197C43.9527 58.9062 44.7165 58.417 45.4959 57.9518C47.302 56.8702 49.1815 55.9157 51.11 55.0645C54.702 53.476 58.1448 51.5803 61.3159 49.2765C66.1372 45.7748 70.3527 41.4723 73.4838 36.4238C74.4725 34.8287 75.3277 33.1634 76.0603 31.4411C76.381 30.6863 76.6972 29.9162 76.9154 29.1242C76.9243 29.0913 76.9355 29.0562 76.9444 29.0233C77.0914 28.4594 76.9466 27.8341 76.5146 27.4216C75.5771 26.5264 74.6373 25.6334 73.6998 24.7383C71.4461 22.5903 69.1947 20.4445 66.9411 18.2965C64.2176 15.6988 61.4918 13.1032 58.7683 10.5055C56.4145 8.26095 54.0606 6.01863 51.7068 3.77411C50.5688 2.69025 49.4554 1.56909 48.2885 0.515947C48.2729 0.500589 48.2551 0.485231 48.2395 0.469872C47.754 0.00692734 47.037 -0.129104 46.4156 0.129794C45.7498 0.406245 45.4781 0.959146 45.389 1.63272C45.5115 0.722189 45.4158 1.41551 45.3712 1.63053C45.2911 2.02765 45.1931 2.42258 45.084 2.81312C44.9125 3.42307 44.7121 4.02643 44.4916 4.61882C44.3535 4.98742 44.2043 5.35383 44.0529 5.71585C44.3246 5.06641 44.0395 5.73998 43.9616 5.91331C43.8591 6.13711 43.7545 6.3609 43.6454 6.5825C43.1955 7.50181 42.6967 8.39917 42.1533 9.26802C41.8482 9.75729 41.5276 10.24 41.1935 10.7117C41.0332 10.9399 40.8684 11.1659 40.7014 11.3897C40.6079 11.5147 40.5143 11.6398 40.4186 11.7627C40.3696 11.8263 40.3206 11.8877 40.2738 11.9492C40.6145 11.5016 40.3651 11.8329 40.2872 11.9294C39.4476 12.9782 38.5413 13.9765 37.5815 14.9221C37.0448 15.4509 36.4903 15.9621 35.9202 16.4557C35.6218 16.7146 35.3189 16.9691 35.0139 17.2171C34.858 17.3443 34.6999 17.4716 34.5417 17.5966C34.4883 17.6383 34.4349 17.68 34.3814 17.7217C34.2901 17.7919 33.8937 18.0376 34.3124 17.7787C33.5909 18.2285 32.9295 18.7924 32.2213 19.2619C31.4642 19.7644 30.6892 20.2427 29.9009 20.6968C28.1705 21.6951 26.3712 22.5684 24.534 23.3604C21.1179 24.8326 17.8644 26.6734 14.8915 28.896C10.2973 32.3297 6.34458 36.5554 3.41396 41.4613C2.45862 43.0608 1.63243 44.7261 0.91982 46.444C0.603598 47.2032 0.294058 47.9777 0.0802748 48.7719C0.0713671 48.8048 0.0602315 48.8377 0.0513238 48.8728C-0.166914 49.7044 0.327462 50.6983 1.21823 50.898C2.08227 51.091 3.03316 50.639 3.26699 49.7483Z" fill="#4B6584"/>
</svg>
