<svg width="65" height="80" viewBox="0 0 65 80" fill="none" xmlns="http://www.w3.org/2000/svg">
<path d="M20.5306 56.3401C21.7565 58.2605 22.8548 60.2806 24.2432 62.0721C25.6219 63.8499 27.2945 65.3992 28.7969 67.0989C27.7585 66.1045 26.6892 65.1394 25.6915 64.1059C23.1275 61.4548 21.0276 58.4539 19.1713 55.2636C18.2315 53.6499 17.2744 52.0576 16.9012 50.1899C16.47 48.0311 16.6401 45.968 17.8525 44.0749C19.2737 41.8556 21.7739 40.9862 24.3128 41.6563C26.3799 42.2014 27.6909 43.6705 28.8839 45.253C29.727 46.3725 30.3457 47.6638 31.0805 48.9005C31.1366 48.8165 31.2449 48.6524 31.357 48.4922C32.6564 46.6069 34.2981 45.1495 36.5682 44.6669C40.2363 43.8874 43.8928 45.5304 44.8964 49.4338C45.4126 51.4422 44.8906 53.2611 43.8174 54.9588C42.9047 56.4026 41.6401 57.5083 40.3562 58.5965C38.2176 60.4076 36.0828 62.2245 34.3252 64.438C34.0699 64.7584 33.8514 65.1081 33.6097 65.4383C33.0625 66.1865 32.5114 66.9309 31.8811 67.6361C31.9275 67.5131 31.9565 67.3822 32.0203 67.2689C33.1592 65.2683 34.5185 63.4299 35.9069 61.5954C37.0013 60.1478 38.3143 58.9756 39.5847 57.7311C39.6388 57.6783 39.6717 57.606 39.7142 57.5416C39.6794 57.5025 39.6446 57.4634 39.6098 57.4243C38.8209 58.1003 38.0049 58.747 37.2488 59.4601C35.6652 60.9507 33.9249 62.2909 32.7667 64.1977C32.2098 65.114 31.6026 65.997 31.0187 66.8957C30.9626 66.8566 30.9065 66.8195 30.8485 66.7804C31.7786 65.4187 32.6719 64.0297 33.6445 62.7012C35.4119 60.2845 37.6646 58.3406 39.8186 56.2971C41.1122 55.0702 42.1854 53.6264 42.5625 51.8095C43.1232 49.1017 40.8454 46.7808 38.1228 47.0289C35.1257 47.3004 33.6523 49.2756 32.5133 51.706C32.1962 52.38 32.0725 53.1458 31.8346 53.8609C31.3396 55.3515 31.4189 57.018 30.4772 58.3699C29.9513 57.2055 30.2452 55.9943 30.2781 54.7967C30.2916 54.2789 30.28 53.7612 30.28 53.2415C30.193 53.2415 30.106 53.2435 30.019 53.2435C30.019 53.9996 30.019 54.7556 30.019 55.5117C29.9745 55.5137 29.9281 55.5156 29.8836 55.5176C29.8449 55.3495 29.8063 55.1835 29.7657 55.0077C29.6883 55.0565 29.611 55.1053 29.4969 55.1796C29.4775 55.0819 29.4466 55.0096 29.4485 54.9373C29.5278 52.3077 28.8259 49.8949 27.4743 47.6658C26.7202 46.4232 25.7785 45.3507 24.5758 44.5282C22.9109 43.3912 20.9792 43.7799 19.8944 45.4796C18.9508 46.9546 18.9141 48.5645 19.3608 50.1782C20.1284 52.9583 21.4278 55.4863 23.0907 57.8307C23.7424 58.7489 24.2548 59.7785 24.9644 60.644C26.1556 62.0975 27.4608 63.4553 28.708 64.8619C29.203 65.4207 29.6748 65.999 30.1156 66.6241C29.4563 66.0498 28.7582 65.5125 28.1472 64.8913C26.7859 63.5061 25.5445 61.992 24.1136 60.687C22.6885 59.3878 21.8571 57.6764 20.695 56.2033C20.6408 56.2502 20.5847 56.2951 20.5306 56.3401Z" fill="#4B6584"/>
<mask id="path-2-inside-1_62_1954" fill="white">
<path d="M30.1757 79.9931C20.5926 79.9931 11.0114 79.9911 1.42828 79.997C1.05896 79.997 0.734108 79.9344 0.440195 79.6922C0.198491 79.4929 0.0534681 79.2409 0.0341318 78.9478C0.00512724 78.5356 -0.0335458 78.1058 0.0534679 77.7092C0.241031 76.8437 0.0438007 75.9607 0.196558 75.1108C0.358983 74.2043 0.287439 73.2978 0.35705 72.3933C0.416993 71.6177 0.401523 70.8343 0.504005 70.0645C0.637426 69.0662 0.525276 68.0523 0.670298 67.0696C0.799852 66.1904 0.749578 65.3171 0.819189 64.4458C0.8888 63.5764 0.850127 62.6933 0.983548 61.8376C1.12664 60.9214 0.970012 59.9934 1.12857 59.0986C1.28519 58.2214 1.21365 57.3481 1.28133 56.4748C1.35094 55.6054 1.3142 54.7224 1.44569 53.8667C1.58684 52.9504 1.43215 52.0224 1.59071 51.1276C1.74733 50.2505 1.67579 49.3772 1.74347 48.5039C1.81308 47.6267 1.77247 46.7358 1.90976 45.8723C2.05285 44.9619 1.89236 44.0437 2.05285 43.1567C2.21141 42.2795 2.13793 41.4062 2.20754 40.5329C2.27715 39.6635 2.23848 38.7805 2.3719 37.9248C2.51499 37.0085 2.3603 36.0805 2.51692 35.1857C2.67161 34.3085 2.602 33.4352 2.66968 32.562C2.73736 31.6848 2.69868 30.7939 2.83597 29.9304C2.97906 29.02 2.82244 28.1037 2.98099 27.2148C3.11248 26.4685 3.04094 25.7261 3.13182 24.9896C3.17629 24.6301 3.34065 24.3077 3.61523 24.0498C3.86853 23.8095 4.0967 23.5419 4.34421 23.2938C4.56657 23.0711 4.80635 22.864 5.02871 22.6393C5.27042 22.3951 5.49279 22.1333 5.73642 21.891C6.01487 21.6117 6.31072 21.3518 6.58916 21.0744C6.77672 20.8869 6.94301 20.6778 7.12864 20.4883C7.34908 20.2636 7.57918 20.0468 7.80928 19.8319C7.98718 19.6639 8.15154 19.4646 8.36037 19.3493C8.60788 19.2126 8.89405 19.07 9.16476 19.068C12.7459 19.0504 16.327 19.0563 19.908 19.0563C19.9777 19.0563 20.0473 19.0524 20.1169 19.0563C20.3199 19.0719 20.405 18.9957 20.4031 18.7749C20.3915 17.9857 20.3934 17.1964 20.4011 16.4071C20.4089 15.4225 20.405 14.4378 20.4514 13.4551C20.4688 13.0976 20.6138 12.744 20.7008 12.3884C20.7105 12.3513 20.7221 12.3122 20.724 12.2731C20.7492 11.9371 20.871 11.6343 21.0218 11.3373C21.1146 11.1537 21.1456 10.9388 21.2152 10.7415C21.2635 10.6047 21.3196 10.468 21.3892 10.341C21.5265 10.0948 21.6715 9.8506 21.8243 9.61421C21.9867 9.36023 22.1491 9.10625 22.329 8.86595C22.5068 8.62761 22.6925 8.39317 22.8955 8.17631C23.1798 7.87545 23.4756 7.5863 23.7811 7.30693C24.0557 7.05491 24.338 6.80484 24.6377 6.58603C24.8407 6.43755 25.0921 6.35549 25.3068 6.21874C25.6567 5.99602 26.0319 5.81237 26.1653 5.34154C26.2388 5.08561 26.4437 4.8668 26.5907 4.63041C26.7609 4.35494 26.9155 4.06775 27.105 3.80596C27.2501 3.60473 27.428 3.42695 27.6039 3.25112C27.8843 2.96784 28.1685 2.68651 28.4625 2.4169C28.6751 2.22154 28.8956 2.03594 29.1276 1.86597C29.4331 1.64325 29.7445 1.42835 30.0674 1.23298C30.3555 1.06106 30.6591 0.910628 30.9646 0.771918C31.1347 0.693771 31.3262 0.662512 31.5041 0.598041C31.74 0.51208 31.9701 0.412443 32.2021 0.318667C32.2292 0.306945 32.2601 0.29913 32.2891 0.293269C32.7397 0.226845 33.1883 0.140883 33.6388 0.10181C34.2827 0.0451538 34.9285 -0.00368792 35.5724 0.000219412C35.9978 0.00217308 36.4271 0.0764131 36.8467 0.160421C37.218 0.23466 37.5795 0.35774 37.9411 0.471053C38.2176 0.558968 38.4961 0.646883 38.7571 0.769964C39.0066 0.887184 39.2347 1.05325 39.4764 1.18805C39.6988 1.31308 39.9366 1.41663 40.1513 1.55143C40.3891 1.70186 40.6192 1.86988 40.8397 2.04571C41.0698 2.23131 41.2921 2.42667 41.5048 2.63181C41.7523 2.87015 41.994 3.11827 42.2222 3.3742C42.4098 3.5852 42.5838 3.81182 42.7482 4.04431C42.9028 4.26312 43.0421 4.49365 43.1794 4.72614C43.3108 4.95081 43.4346 5.18134 43.5564 5.41187C43.6396 5.57403 43.7169 5.73814 43.7884 5.90615C43.8677 6.09175 43.9296 6.28125 44.0089 6.46685C44.1191 6.72669 44.2293 6.97871 44.2641 7.27176C44.3047 7.61366 44.4285 7.94578 44.5097 8.28181C44.5348 8.38731 44.558 8.49671 44.56 8.60416C44.5735 9.13556 44.589 9.66696 44.589 10.1984C44.5909 12.996 44.5909 15.7937 44.5909 18.5913C44.5909 19.0524 44.5909 19.0524 45.0395 19.0524C50.1907 19.0524 55.3419 19.0504 60.4912 19.0563C60.9939 19.0563 61.4077 19.2966 61.7055 19.7029C61.8003 19.8338 61.8583 20.0175 61.8679 20.1816C61.9434 21.6097 62.0014 23.0378 62.069 24.466C62.1155 25.4545 62.1 26.4529 62.2469 27.4258C62.3784 28.3049 62.2295 29.1919 62.3842 30.0496C62.5486 30.9639 62.4732 31.8782 62.5447 32.7905C62.6047 33.5505 62.5911 34.3183 62.6917 35.0724C62.8251 36.0707 62.7149 37.0847 62.858 38.0674C62.9856 38.9544 62.9372 39.8335 63.0069 40.7146C63.0745 41.584 63.0359 42.467 63.1731 43.3228C63.3182 44.2332 63.1577 45.1514 63.3182 46.0383C63.4787 46.9312 63.4033 47.8201 63.4729 48.709C63.5405 49.5549 63.5038 50.4146 63.6353 51.2468C63.7803 52.1709 63.6256 53.1067 63.7822 54.0093C63.9369 54.9021 63.8673 55.791 63.9369 56.68C64.0046 57.5415 63.9698 58.4148 64.1013 59.2647C64.2425 60.1731 64.0916 61.0933 64.2463 61.9803C64.4029 62.8731 64.3314 63.762 64.401 64.6509C64.4687 65.5203 64.4319 66.4034 64.5654 67.2591C64.7065 68.1597 64.5538 69.0721 64.7104 69.9512C64.8689 70.844 64.78 71.7349 64.8689 72.6219C64.9096 73.0243 64.9386 73.4268 64.9888 73.8273C65.0565 74.3665 64.809 74.7611 64.4513 75.1167C64.1013 75.4664 63.761 75.8259 63.4091 76.1756C63.0707 76.5116 62.7168 76.834 62.3784 77.17C62.1039 77.4416 61.8428 77.7307 61.5702 78.0042C61.224 78.3539 60.8721 78.6958 60.5241 79.0436C60.3036 79.2643 60.0987 79.5007 59.8647 79.7059C59.6559 79.8915 59.4161 80.0282 59.1144 79.995C59.0004 79.9833 58.8824 79.9931 58.7664 79.9931C49.2316 79.9931 39.7046 79.9931 30.1757 79.9931ZM59.7274 23.0847C59.5805 23.1297 59.4992 23.1336 59.447 23.1746C59.3291 23.2703 59.2266 23.3856 59.1183 23.495C58.6194 23.9991 58.1264 24.507 57.6217 25.0052C57.3568 25.267 57.1731 25.5268 57.2234 25.9469C57.3123 26.6834 57.233 27.4258 57.3471 28.1721C57.496 29.145 57.4786 30.1453 57.5463 31.1319C57.6004 31.9114 57.5463 32.6909 57.6662 33.4782C57.8092 34.416 57.6855 35.3791 57.8266 36.3325C57.9562 37.2156 57.9388 38.1182 58.0045 39.011C58.0664 39.8296 57.9891 40.6501 58.1341 41.4726C58.2868 42.3381 58.138 43.2309 58.2772 44.1179C58.4299 45.0908 58.4087 46.0911 58.4744 47.0777C58.5266 47.8572 58.4744 48.6367 58.5943 49.4221C58.7374 50.352 58.6117 51.3074 58.7529 52.253C58.8843 53.1419 58.8669 54.0542 58.9327 54.9549C58.9926 55.7735 58.9192 56.594 59.0622 57.4165C59.2131 58.282 59.0661 59.1748 59.2053 60.0618C59.3562 61.0269 59.3349 62.0193 59.4026 62.9981C59.4567 63.7854 59.3987 64.5728 59.5244 65.366C59.6694 66.2803 59.5379 67.22 59.6791 68.1499C59.8164 69.0545 59.8144 69.9825 59.855 70.8987C59.884 71.5532 59.884 72.2116 59.9014 72.868C59.9034 72.9638 59.9594 73.0595 59.9633 73.1552C59.9807 73.5342 60.0078 73.9152 59.9865 74.2942C59.9788 74.431 59.8647 74.5736 59.7719 74.6928C59.5863 74.935 59.3987 75.189 59.039 75.1734C59.0081 75.1714 58.9791 75.2203 58.9462 75.2281C58.894 75.2398 58.8379 75.2456 58.7877 75.2359C58.7006 75.2183 58.6175 75.1734 58.5305 75.1636C58.2211 75.1284 57.7725 74.7592 57.7164 74.4544C57.6584 74.1379 57.6062 73.8175 57.5849 73.4971C57.5269 72.6199 57.5018 71.7388 57.4341 70.8616C57.3645 69.9805 57.4322 69.0994 57.2814 68.2125C57.1267 67.302 57.2698 66.3584 57.1305 65.4265C57.0068 64.5982 57.0358 63.7483 56.972 62.9122C56.9024 62.0154 56.9758 61.1167 56.8154 60.2161C56.6607 59.3506 56.8154 58.4558 56.6742 57.5708C56.5369 56.6995 56.5737 55.8008 56.506 54.9158C56.4383 54.0347 56.506 53.1536 56.3532 52.2666C56.1985 51.3699 56.3455 50.4439 56.2063 49.5276C56.0786 48.6856 56.1096 47.8181 56.0438 46.9663C55.9742 46.0774 56.0458 45.1866 55.8891 44.2937C55.7325 43.4068 55.8853 42.4866 55.7441 41.5781C55.6126 40.7283 55.6474 39.855 55.5798 38.9934C55.5102 38.1045 55.5604 37.2156 55.4289 36.3208C55.2878 35.3538 55.3961 34.3554 55.2646 33.3727C55.1621 32.603 55.1621 31.8215 55.1196 31.044C55.0538 29.8346 54.9842 28.6253 54.9262 27.4141C54.9088 27.0331 54.9243 26.6521 54.9243 26.2477C49.9084 26.2477 44.9293 26.2477 39.927 26.2477C39.927 26.3434 39.927 26.4353 39.927 26.5271C39.927 28.5589 39.9289 30.5907 39.925 32.6225C39.925 32.984 39.9347 33.3219 39.6485 33.6443C39.4494 33.869 39.2695 33.9842 38.995 34.0546C38.79 34.1073 38.6082 34.0663 38.4284 34.0292C38.2602 33.994 38.0707 33.9159 37.9585 33.7928C37.7072 33.5193 37.5873 33.193 37.5911 32.7905C37.6105 30.704 37.6008 28.6175 37.6008 26.531C37.6008 26.4392 37.6008 26.3493 37.6008 26.2477C32.6333 26.2477 27.6987 26.2477 22.7447 26.2477C22.7447 26.361 22.7447 26.4548 22.7447 26.5466C22.7447 28.5003 22.7408 30.454 22.7486 32.4076C22.7505 32.8609 22.7234 33.3044 22.4334 33.6697C22.3174 33.8162 22.1491 33.9881 21.9828 34.0135C21.6154 34.0702 21.2345 34.1249 20.8768 33.8944C20.637 33.74 20.4978 33.5251 20.4456 33.2731C20.3915 33.0172 20.4031 32.7456 20.4031 32.4799C20.3992 30.5184 20.4011 28.5569 20.4011 26.5955C20.4011 26.2282 20.4011 26.2262 20.0434 26.2262C15.2634 26.2262 10.4835 26.2262 5.70355 26.2262C5.62041 26.2262 5.53919 26.2262 5.48699 26.2262C5.41738 26.7869 5.3323 27.3105 5.28782 27.84C5.21241 28.7425 5.30136 29.649 5.15827 30.5595C5.02678 31.4093 5.05965 32.2826 4.99391 33.1442C4.92623 34.0331 4.99584 34.9239 4.83922 35.8168C4.68453 36.7057 4.83535 37.6239 4.69419 38.5324C4.56271 39.3822 4.59558 40.2555 4.52984 41.1171C4.46216 42.006 4.53177 42.8969 4.37515 43.7897C4.22045 44.6708 4.37321 45.5812 4.23206 46.4818C4.09863 47.3395 4.13344 48.2206 4.06576 49.09C3.99809 49.9789 4.0677 50.8698 3.91107 51.7626C3.75638 52.6437 3.90914 53.5541 3.76798 54.4547C3.63456 55.3124 3.66937 56.1935 3.60169 57.0629C3.53401 57.9518 3.60749 58.8427 3.44507 59.7355C3.28844 60.599 3.447 61.4938 3.30585 62.3808C3.16469 63.2677 3.20336 64.182 3.13568 65.0827C3.06994 65.9482 3.10475 66.8136 2.99066 67.685C2.84757 68.779 2.95586 69.9004 2.81277 71.0081C2.72962 71.6548 2.71802 72.3112 2.68128 72.9638C2.62327 74.0012 2.65808 75.0444 2.49952 76.0779C2.43571 76.4901 2.47825 76.9199 2.47632 77.3419C2.47632 77.4338 2.48405 77.5236 2.48985 77.6369C2.61554 77.6369 2.72189 77.6369 2.82824 77.6369C16.0852 77.6369 29.3423 77.6369 42.5993 77.6369C47.8588 77.6369 53.1182 77.6369 58.3777 77.635C58.4783 77.635 58.5866 77.6838 58.6678 77.5314C58.7413 77.3927 58.896 77.299 59.0139 77.1837C59.2556 76.9492 59.5031 76.7187 59.739 76.4784C59.9633 76.2498 60.1721 76.0076 60.3965 75.779C60.6382 75.5348 60.8895 75.3004 61.137 75.0601C61.4348 74.7709 61.7326 74.4818 62.0284 74.1907C62.1889 74.0324 62.3533 73.8742 62.5022 73.7042C62.6317 73.5577 62.5679 73.3799 62.5505 73.208C62.4538 72.321 62.5428 71.4301 62.3881 70.5354C62.2295 69.6152 62.39 68.6657 62.2392 67.726C62.1077 66.9094 62.1464 66.0654 62.0806 65.2351C62.0091 64.3462 62.0806 63.4553 61.924 62.5625C61.7655 61.6501 61.924 60.7084 61.7771 59.7746C61.6398 58.9111 61.6765 58.0202 61.6108 57.143C61.545 56.2619 61.6146 55.3808 61.458 54.4958C61.3033 53.6147 61.4561 52.7043 61.3149 51.8017C61.1776 50.9381 61.2144 50.0473 61.1486 49.1701C61.0829 48.289 61.1506 47.4079 60.9939 46.5229C60.8393 45.6418 60.9939 44.7313 60.8509 43.8288C60.7136 42.9652 60.7503 42.0744 60.6846 41.1972C60.6169 40.3161 60.6768 39.435 60.5337 38.5499C60.3848 37.622 60.5183 36.6627 60.379 35.7171C60.2611 34.9122 60.2804 34.0858 60.2263 33.2711C60.1625 32.3275 60.2186 31.382 60.06 30.4364C59.9227 29.6217 60.0387 28.7855 59.9324 27.9533C59.7796 26.7596 59.7874 25.5444 59.7371 24.337C59.7139 23.9404 59.7274 23.5438 59.7274 23.0847ZM37.5718 19.0309C37.5834 18.9918 37.5969 18.9684 37.595 18.9469C37.5312 17.3058 37.7207 15.6608 37.4925 14.0197C37.4152 13.4707 37.3127 12.9393 37.1735 12.4021C37.0536 11.9391 36.8216 11.5405 36.634 11.1224C36.4658 10.7415 36.1564 10.423 35.8973 10.087C35.6807 9.80567 35.499 9.49308 35.1915 9.29185C35.1103 9.2391 35.0446 9.16291 34.9711 9.09649C34.7874 8.92847 34.623 8.7331 34.418 8.5983C34.0681 8.36972 33.6949 8.17826 33.3294 7.97313C33.2192 7.91061 33.1128 7.8266 32.993 7.79144C32.7532 7.71915 32.5057 7.67422 32.2601 7.61756C32.2311 7.6117 32.206 7.59216 32.1789 7.5824C31.9237 7.49643 31.6704 7.33623 31.4151 7.33623C30.4715 7.34014 29.5163 7.14478 28.5823 7.45345C28.3039 7.54528 28.008 7.58826 27.7721 7.64101C27.689 7.86568 27.5942 8.04541 27.5614 8.23297C27.4937 8.61002 27.4183 8.99294 27.4164 9.37391C27.4009 12.5525 27.4028 15.7311 27.399 18.9097C27.399 18.9469 27.4106 18.984 27.4183 19.027C30.8118 19.0309 34.1937 19.0309 37.5718 19.0309ZM42.2435 19.0367C42.2493 18.9605 42.2551 18.9137 42.2551 18.8687C42.2512 15.6725 42.2473 12.4783 42.2396 9.28208C42.2396 9.11211 42.2299 8.93629 42.1932 8.77022C42.1217 8.45373 42.0211 8.14505 41.9418 7.83246C41.878 7.58435 41.8277 7.33428 41.7697 7.08421C41.7639 7.05491 41.7446 7.02951 41.7291 7.00216C41.5454 6.66613 41.3733 6.32228 41.1742 5.99602C40.9634 5.64827 40.7584 5.28879 40.4916 4.98597C40.1648 4.61478 39.78 4.29633 39.4165 3.9603C39.2676 3.82159 39.1129 3.68483 38.9447 3.57152C38.79 3.46602 38.616 3.38983 38.4458 3.30778C38.1732 3.17688 37.9005 3.04598 37.6221 2.93072C37.4403 2.85648 37.247 2.81154 37.0613 2.74512C36.8351 2.66307 36.6205 2.52436 36.3884 2.497C35.7561 2.41886 35.12 2.3622 34.4838 2.34657C34.1357 2.33876 33.7857 2.42277 33.4377 2.47747C33.1825 2.51849 32.9291 2.58101 32.6758 2.63376C32.6623 2.63572 32.6526 2.6533 32.6391 2.65916C32.4206 2.75293 32.2021 2.84866 31.9817 2.93853C31.8192 3.003 31.6394 3.03426 31.4925 3.12218C31.1753 3.30778 30.866 3.509 30.5701 3.72781C30.2298 3.97984 29.8953 4.24358 29.5917 4.53663C29.5105 4.61478 29.2726 4.72614 29.466 4.95862C29.6284 4.9215 29.8025 4.84336 29.9765 4.84922C30.2936 4.85703 30.6107 4.91369 30.9278 4.95081C31.3262 4.9977 31.7264 4.92932 32.1267 5.09147C32.5579 5.26535 33.0336 5.33177 33.4899 5.44313C33.5131 5.44899 33.5363 5.44899 33.5576 5.45876C33.7509 5.55449 33.9424 5.65217 34.1357 5.74986C34.2382 5.80065 34.3426 5.84949 34.4471 5.89834C34.6133 5.97453 34.7874 6.03509 34.9421 6.12692C35.1412 6.24609 35.3249 6.38871 35.5144 6.52155C35.7929 6.71692 36.0848 6.89471 36.3439 7.11156C36.6495 7.36945 36.9318 7.65859 37.216 7.94187C37.3958 8.12161 37.5815 8.29939 37.7342 8.50257C37.9276 8.7585 38.09 9.03983 38.266 9.30944C38.4574 9.60444 38.6662 9.89163 38.8306 10.2023C38.9679 10.4601 39.053 10.7473 39.1632 11.0208C39.3082 11.3803 39.4726 11.7339 39.5905 12.1012C39.6543 12.2985 39.6659 12.5076 39.7297 12.7147C39.8516 13.1074 39.9057 13.5352 39.9115 13.9494C39.9328 15.5514 39.925 17.1534 39.9289 18.7554C39.9289 18.8453 39.9289 18.9371 39.9289 19.0367C40.714 19.0367 41.4681 19.0367 42.2435 19.0367ZM39.927 23.8721C40.0759 23.8721 40.19 23.8721 40.3021 23.8721C45.2503 23.8721 50.1985 23.8721 55.1486 23.8721C55.2259 23.8721 55.3033 23.874 55.3806 23.8682C55.4251 23.8642 55.4831 23.8642 55.5102 23.8369C55.8872 23.4579 56.2585 23.075 56.6317 22.692C56.9024 22.4146 57.1711 22.1372 57.4399 21.8578C57.5269 21.766 57.6081 21.6683 57.6932 21.5726C57.5675 21.5531 57.4438 21.5179 57.3181 21.5179C51.6506 21.5159 45.9831 21.5159 40.3156 21.5159C40.2692 21.5159 40.2228 21.5198 40.1764 21.5159C39.9927 21.4964 39.9154 21.5589 39.9231 21.7621C39.9386 22.1919 39.927 22.6217 39.927 23.0515C39.927 23.3114 39.927 23.5751 39.927 23.8721ZM22.766 23.8721C22.8955 23.8721 22.9961 23.8721 23.0947 23.8721C25.6393 23.8721 28.184 23.8721 30.7287 23.8721C32.8866 23.8721 35.0445 23.8721 37.2025 23.8721C37.6008 23.8721 37.6008 23.8721 37.6008 23.4598C37.6008 22.9441 37.6008 22.4283 37.6008 21.9125C37.6008 21.514 37.6008 21.514 37.1948 21.514C32.4921 21.514 27.7895 21.514 23.0869 21.514C23.0637 21.514 23.0405 21.5159 23.0173 21.514C22.8124 21.4866 22.7312 21.555 22.7389 21.7816C22.7544 22.3677 22.7428 22.9538 22.7447 23.5399C22.7447 23.6376 22.7563 23.7373 22.766 23.8721ZM7.24466 23.8721C7.38195 23.8721 7.46896 23.8721 7.55791 23.8721C11.7094 23.8721 15.859 23.8721 20.0105 23.8721C20.3296 23.8721 20.3953 23.8056 20.3973 23.4716C20.3992 22.9245 20.3992 22.3775 20.3973 21.8305C20.3973 21.5531 20.3624 21.514 20.0917 21.514C16.6209 21.512 13.15 21.512 9.67911 21.5198C9.56502 21.5198 9.42967 21.5843 9.33879 21.6605C9.07388 21.8832 8.81864 22.1177 8.575 22.3638C8.16314 22.7761 7.76094 23.198 7.35875 23.62C7.31234 23.6689 7.2988 23.7509 7.24466 23.8721ZM25.0515 19.0348C25.1482 18.1146 25.0902 9.49699 24.9761 9.35828C24.8137 9.55755 24.6513 9.75097 24.4927 9.95024C24.2742 10.2257 23.99 10.4738 23.8623 10.7884C23.7173 11.142 23.4389 11.4096 23.3402 11.7925C23.2436 12.1696 23.0212 12.5134 22.9245 12.8905C22.824 13.2891 22.764 13.7071 22.7582 14.1194C22.737 15.6823 22.7447 17.2433 22.7428 18.8062C22.7428 18.8804 22.7505 18.9566 22.7563 19.0367C23.5336 19.0348 24.2877 19.0348 25.0515 19.0348Z"/>
</mask>
<path d="M30.1757 79.9931C20.5926 79.9931 11.0114 79.9911 1.42828 79.997C1.05896 79.997 0.734108 79.9344 0.440195 79.6922C0.198491 79.4929 0.0534681 79.2409 0.0341318 78.9478C0.00512724 78.5356 -0.0335458 78.1058 0.0534679 77.7092C0.241031 76.8437 0.0438007 75.9607 0.196558 75.1108C0.358983 74.2043 0.287439 73.2978 0.35705 72.3933C0.416993 71.6177 0.401523 70.8343 0.504005 70.0645C0.637426 69.0662 0.525276 68.0523 0.670298 67.0696C0.799852 66.1904 0.749578 65.3171 0.819189 64.4458C0.8888 63.5764 0.850127 62.6933 0.983548 61.8376C1.12664 60.9214 0.970012 59.9934 1.12857 59.0986C1.28519 58.2214 1.21365 57.3481 1.28133 56.4748C1.35094 55.6054 1.3142 54.7224 1.44569 53.8667C1.58684 52.9504 1.43215 52.0224 1.59071 51.1276C1.74733 50.2505 1.67579 49.3772 1.74347 48.5039C1.81308 47.6267 1.77247 46.7358 1.90976 45.8723C2.05285 44.9619 1.89236 44.0437 2.05285 43.1567C2.21141 42.2795 2.13793 41.4062 2.20754 40.5329C2.27715 39.6635 2.23848 38.7805 2.3719 37.9248C2.51499 37.0085 2.3603 36.0805 2.51692 35.1857C2.67161 34.3085 2.602 33.4352 2.66968 32.562C2.73736 31.6848 2.69868 30.7939 2.83597 29.9304C2.97906 29.02 2.82244 28.1037 2.98099 27.2148C3.11248 26.4685 3.04094 25.7261 3.13182 24.9896C3.17629 24.6301 3.34065 24.3077 3.61523 24.0498C3.86853 23.8095 4.0967 23.5419 4.34421 23.2938C4.56657 23.0711 4.80635 22.864 5.02871 22.6393C5.27042 22.3951 5.49279 22.1333 5.73642 21.891C6.01487 21.6117 6.31072 21.3518 6.58916 21.0744C6.77672 20.8869 6.94301 20.6778 7.12864 20.4883C7.34908 20.2636 7.57918 20.0468 7.80928 19.8319C7.98718 19.6639 8.15154 19.4646 8.36037 19.3493C8.60788 19.2126 8.89405 19.07 9.16476 19.068C12.7459 19.0504 16.327 19.0563 19.908 19.0563C19.9777 19.0563 20.0473 19.0524 20.1169 19.0563C20.3199 19.0719 20.405 18.9957 20.4031 18.7749C20.3915 17.9857 20.3934 17.1964 20.4011 16.4071C20.4089 15.4225 20.405 14.4378 20.4514 13.4551C20.4688 13.0976 20.6138 12.744 20.7008 12.3884C20.7105 12.3513 20.7221 12.3122 20.724 12.2731C20.7492 11.9371 20.871 11.6343 21.0218 11.3373C21.1146 11.1537 21.1456 10.9388 21.2152 10.7415C21.2635 10.6047 21.3196 10.468 21.3892 10.341C21.5265 10.0948 21.6715 9.8506 21.8243 9.61421C21.9867 9.36023 22.1491 9.10625 22.329 8.86595C22.5068 8.62761 22.6925 8.39317 22.8955 8.17631C23.1798 7.87545 23.4756 7.5863 23.7811 7.30693C24.0557 7.05491 24.338 6.80484 24.6377 6.58603C24.8407 6.43755 25.0921 6.35549 25.3068 6.21874C25.6567 5.99602 26.0319 5.81237 26.1653 5.34154C26.2388 5.08561 26.4437 4.8668 26.5907 4.63041C26.7609 4.35494 26.9155 4.06775 27.105 3.80596C27.2501 3.60473 27.428 3.42695 27.6039 3.25112C27.8843 2.96784 28.1685 2.68651 28.4625 2.4169C28.6751 2.22154 28.8956 2.03594 29.1276 1.86597C29.4331 1.64325 29.7445 1.42835 30.0674 1.23298C30.3555 1.06106 30.6591 0.910628 30.9646 0.771918C31.1347 0.693771 31.3262 0.662512 31.5041 0.598041C31.74 0.51208 31.9701 0.412443 32.2021 0.318667C32.2292 0.306945 32.2601 0.29913 32.2891 0.293269C32.7397 0.226845 33.1883 0.140883 33.6388 0.10181C34.2827 0.0451538 34.9285 -0.00368792 35.5724 0.000219412C35.9978 0.00217308 36.4271 0.0764131 36.8467 0.160421C37.218 0.23466 37.5795 0.35774 37.9411 0.471053C38.2176 0.558968 38.4961 0.646883 38.7571 0.769964C39.0066 0.887184 39.2347 1.05325 39.4764 1.18805C39.6988 1.31308 39.9366 1.41663 40.1513 1.55143C40.3891 1.70186 40.6192 1.86988 40.8397 2.04571C41.0698 2.23131 41.2921 2.42667 41.5048 2.63181C41.7523 2.87015 41.994 3.11827 42.2222 3.3742C42.4098 3.5852 42.5838 3.81182 42.7482 4.04431C42.9028 4.26312 43.0421 4.49365 43.1794 4.72614C43.3108 4.95081 43.4346 5.18134 43.5564 5.41187C43.6396 5.57403 43.7169 5.73814 43.7884 5.90615C43.8677 6.09175 43.9296 6.28125 44.0089 6.46685C44.1191 6.72669 44.2293 6.97871 44.2641 7.27176C44.3047 7.61366 44.4285 7.94578 44.5097 8.28181C44.5348 8.38731 44.558 8.49671 44.56 8.60416C44.5735 9.13556 44.589 9.66696 44.589 10.1984C44.5909 12.996 44.5909 15.7937 44.5909 18.5913C44.5909 19.0524 44.5909 19.0524 45.0395 19.0524C50.1907 19.0524 55.3419 19.0504 60.4912 19.0563C60.9939 19.0563 61.4077 19.2966 61.7055 19.7029C61.8003 19.8338 61.8583 20.0175 61.8679 20.1816C61.9434 21.6097 62.0014 23.0378 62.069 24.466C62.1155 25.4545 62.1 26.4529 62.2469 27.4258C62.3784 28.3049 62.2295 29.1919 62.3842 30.0496C62.5486 30.9639 62.4732 31.8782 62.5447 32.7905C62.6047 33.5505 62.5911 34.3183 62.6917 35.0724C62.8251 36.0707 62.7149 37.0847 62.858 38.0674C62.9856 38.9544 62.9372 39.8335 63.0069 40.7146C63.0745 41.584 63.0359 42.467 63.1731 43.3228C63.3182 44.2332 63.1577 45.1514 63.3182 46.0383C63.4787 46.9312 63.4033 47.8201 63.4729 48.709C63.5405 49.5549 63.5038 50.4146 63.6353 51.2468C63.7803 52.1709 63.6256 53.1067 63.7822 54.0093C63.9369 54.9021 63.8673 55.791 63.9369 56.68C64.0046 57.5415 63.9698 58.4148 64.1013 59.2647C64.2425 60.1731 64.0916 61.0933 64.2463 61.9803C64.4029 62.8731 64.3314 63.762 64.401 64.6509C64.4687 65.5203 64.4319 66.4034 64.5654 67.2591C64.7065 68.1597 64.5538 69.0721 64.7104 69.9512C64.8689 70.844 64.78 71.7349 64.8689 72.6219C64.9096 73.0243 64.9386 73.4268 64.9888 73.8273C65.0565 74.3665 64.809 74.7611 64.4513 75.1167C64.1013 75.4664 63.761 75.8259 63.4091 76.1756C63.0707 76.5116 62.7168 76.834 62.3784 77.17C62.1039 77.4416 61.8428 77.7307 61.5702 78.0042C61.224 78.3539 60.8721 78.6958 60.5241 79.0436C60.3036 79.2643 60.0987 79.5007 59.8647 79.7059C59.6559 79.8915 59.4161 80.0282 59.1144 79.995C59.0004 79.9833 58.8824 79.9931 58.7664 79.9931C49.2316 79.9931 39.7046 79.9931 30.1757 79.9931ZM59.7274 23.0847C59.5805 23.1297 59.4992 23.1336 59.447 23.1746C59.3291 23.2703 59.2266 23.3856 59.1183 23.495C58.6194 23.9991 58.1264 24.507 57.6217 25.0052C57.3568 25.267 57.1731 25.5268 57.2234 25.9469C57.3123 26.6834 57.233 27.4258 57.3471 28.1721C57.496 29.145 57.4786 30.1453 57.5463 31.1319C57.6004 31.9114 57.5463 32.6909 57.6662 33.4782C57.8092 34.416 57.6855 35.3791 57.8266 36.3325C57.9562 37.2156 57.9388 38.1182 58.0045 39.011C58.0664 39.8296 57.9891 40.6501 58.1341 41.4726C58.2868 42.3381 58.138 43.2309 58.2772 44.1179C58.4299 45.0908 58.4087 46.0911 58.4744 47.0777C58.5266 47.8572 58.4744 48.6367 58.5943 49.4221C58.7374 50.352 58.6117 51.3074 58.7529 52.253C58.8843 53.1419 58.8669 54.0542 58.9327 54.9549C58.9926 55.7735 58.9192 56.594 59.0622 57.4165C59.2131 58.282 59.0661 59.1748 59.2053 60.0618C59.3562 61.0269 59.3349 62.0193 59.4026 62.9981C59.4567 63.7854 59.3987 64.5728 59.5244 65.366C59.6694 66.2803 59.5379 67.22 59.6791 68.1499C59.8164 69.0545 59.8144 69.9825 59.855 70.8987C59.884 71.5532 59.884 72.2116 59.9014 72.868C59.9034 72.9638 59.9594 73.0595 59.9633 73.1552C59.9807 73.5342 60.0078 73.9152 59.9865 74.2942C59.9788 74.431 59.8647 74.5736 59.7719 74.6928C59.5863 74.935 59.3987 75.189 59.039 75.1734C59.0081 75.1714 58.9791 75.2203 58.9462 75.2281C58.894 75.2398 58.8379 75.2456 58.7877 75.2359C58.7006 75.2183 58.6175 75.1734 58.5305 75.1636C58.2211 75.1284 57.7725 74.7592 57.7164 74.4544C57.6584 74.1379 57.6062 73.8175 57.5849 73.4971C57.5269 72.6199 57.5018 71.7388 57.4341 70.8616C57.3645 69.9805 57.4322 69.0994 57.2814 68.2125C57.1267 67.302 57.2698 66.3584 57.1305 65.4265C57.0068 64.5982 57.0358 63.7483 56.972 62.9122C56.9024 62.0154 56.9758 61.1167 56.8154 60.2161C56.6607 59.3506 56.8154 58.4558 56.6742 57.5708C56.5369 56.6995 56.5737 55.8008 56.506 54.9158C56.4383 54.0347 56.506 53.1536 56.3532 52.2666C56.1985 51.3699 56.3455 50.4439 56.2063 49.5276C56.0786 48.6856 56.1096 47.8181 56.0438 46.9663C55.9742 46.0774 56.0458 45.1866 55.8891 44.2937C55.7325 43.4068 55.8853 42.4866 55.7441 41.5781C55.6126 40.7283 55.6474 39.855 55.5798 38.9934C55.5102 38.1045 55.5604 37.2156 55.4289 36.3208C55.2878 35.3538 55.3961 34.3554 55.2646 33.3727C55.1621 32.603 55.1621 31.8215 55.1196 31.044C55.0538 29.8346 54.9842 28.6253 54.9262 27.4141C54.9088 27.0331 54.9243 26.6521 54.9243 26.2477C49.9084 26.2477 44.9293 26.2477 39.927 26.2477C39.927 26.3434 39.927 26.4353 39.927 26.5271C39.927 28.5589 39.9289 30.5907 39.925 32.6225C39.925 32.984 39.9347 33.3219 39.6485 33.6443C39.4494 33.869 39.2695 33.9842 38.995 34.0546C38.79 34.1073 38.6082 34.0663 38.4284 34.0292C38.2602 33.994 38.0707 33.9159 37.9585 33.7928C37.7072 33.5193 37.5873 33.193 37.5911 32.7905C37.6105 30.704 37.6008 28.6175 37.6008 26.531C37.6008 26.4392 37.6008 26.3493 37.6008 26.2477C32.6333 26.2477 27.6987 26.2477 22.7447 26.2477C22.7447 26.361 22.7447 26.4548 22.7447 26.5466C22.7447 28.5003 22.7408 30.454 22.7486 32.4076C22.7505 32.8609 22.7234 33.3044 22.4334 33.6697C22.3174 33.8162 22.1491 33.9881 21.9828 34.0135C21.6154 34.0702 21.2345 34.1249 20.8768 33.8944C20.637 33.74 20.4978 33.5251 20.4456 33.2731C20.3915 33.0172 20.4031 32.7456 20.4031 32.4799C20.3992 30.5184 20.4011 28.5569 20.4011 26.5955C20.4011 26.2282 20.4011 26.2262 20.0434 26.2262C15.2634 26.2262 10.4835 26.2262 5.70355 26.2262C5.62041 26.2262 5.53919 26.2262 5.48699 26.2262C5.41738 26.7869 5.3323 27.3105 5.28782 27.84C5.21241 28.7425 5.30136 29.649 5.15827 30.5595C5.02678 31.4093 5.05965 32.2826 4.99391 33.1442C4.92623 34.0331 4.99584 34.9239 4.83922 35.8168C4.68453 36.7057 4.83535 37.6239 4.69419 38.5324C4.56271 39.3822 4.59558 40.2555 4.52984 41.1171C4.46216 42.006 4.53177 42.8969 4.37515 43.7897C4.22045 44.6708 4.37321 45.5812 4.23206 46.4818C4.09863 47.3395 4.13344 48.2206 4.06576 49.09C3.99809 49.9789 4.0677 50.8698 3.91107 51.7626C3.75638 52.6437 3.90914 53.5541 3.76798 54.4547C3.63456 55.3124 3.66937 56.1935 3.60169 57.0629C3.53401 57.9518 3.60749 58.8427 3.44507 59.7355C3.28844 60.599 3.447 61.4938 3.30585 62.3808C3.16469 63.2677 3.20336 64.182 3.13568 65.0827C3.06994 65.9482 3.10475 66.8136 2.99066 67.685C2.84757 68.779 2.95586 69.9004 2.81277 71.0081C2.72962 71.6548 2.71802 72.3112 2.68128 72.9638C2.62327 74.0012 2.65808 75.0444 2.49952 76.0779C2.43571 76.4901 2.47825 76.9199 2.47632 77.3419C2.47632 77.4338 2.48405 77.5236 2.48985 77.6369C2.61554 77.6369 2.72189 77.6369 2.82824 77.6369C16.0852 77.6369 29.3423 77.6369 42.5993 77.6369C47.8588 77.6369 53.1182 77.6369 58.3777 77.635C58.4783 77.635 58.5866 77.6838 58.6678 77.5314C58.7413 77.3927 58.896 77.299 59.0139 77.1837C59.2556 76.9492 59.5031 76.7187 59.739 76.4784C59.9633 76.2498 60.1721 76.0076 60.3965 75.779C60.6382 75.5348 60.8895 75.3004 61.137 75.0601C61.4348 74.7709 61.7326 74.4818 62.0284 74.1907C62.1889 74.0324 62.3533 73.8742 62.5022 73.7042C62.6317 73.5577 62.5679 73.3799 62.5505 73.208C62.4538 72.321 62.5428 71.4301 62.3881 70.5354C62.2295 69.6152 62.39 68.6657 62.2392 67.726C62.1077 66.9094 62.1464 66.0654 62.0806 65.2351C62.0091 64.3462 62.0806 63.4553 61.924 62.5625C61.7655 61.6501 61.924 60.7084 61.7771 59.7746C61.6398 58.9111 61.6765 58.0202 61.6108 57.143C61.545 56.2619 61.6146 55.3808 61.458 54.4958C61.3033 53.6147 61.4561 52.7043 61.3149 51.8017C61.1776 50.9381 61.2144 50.0473 61.1486 49.1701C61.0829 48.289 61.1506 47.4079 60.9939 46.5229C60.8393 45.6418 60.9939 44.7313 60.8509 43.8288C60.7136 42.9652 60.7503 42.0744 60.6846 41.1972C60.6169 40.3161 60.6768 39.435 60.5337 38.5499C60.3848 37.622 60.5183 36.6627 60.379 35.7171C60.2611 34.9122 60.2804 34.0858 60.2263 33.2711C60.1625 32.3275 60.2186 31.382 60.06 30.4364C59.9227 29.6217 60.0387 28.7855 59.9324 27.9533C59.7796 26.7596 59.7874 25.5444 59.7371 24.337C59.7139 23.9404 59.7274 23.5438 59.7274 23.0847ZM37.5718 19.0309C37.5834 18.9918 37.5969 18.9684 37.595 18.9469C37.5312 17.3058 37.7207 15.6608 37.4925 14.0197C37.4152 13.4707 37.3127 12.9393 37.1735 12.4021C37.0536 11.9391 36.8216 11.5405 36.634 11.1224C36.4658 10.7415 36.1564 10.423 35.8973 10.087C35.6807 9.80567 35.499 9.49308 35.1915 9.29185C35.1103 9.2391 35.0446 9.16291 34.9711 9.09649C34.7874 8.92847 34.623 8.7331 34.418 8.5983C34.0681 8.36972 33.6949 8.17826 33.3294 7.97313C33.2192 7.91061 33.1128 7.8266 32.993 7.79144C32.7532 7.71915 32.5057 7.67422 32.2601 7.61756C32.2311 7.6117 32.206 7.59216 32.1789 7.5824C31.9237 7.49643 31.6704 7.33623 31.4151 7.33623C30.4715 7.34014 29.5163 7.14478 28.5823 7.45345C28.3039 7.54528 28.008 7.58826 27.7721 7.64101C27.689 7.86568 27.5942 8.04541 27.5614 8.23297C27.4937 8.61002 27.4183 8.99294 27.4164 9.37391C27.4009 12.5525 27.4028 15.7311 27.399 18.9097C27.399 18.9469 27.4106 18.984 27.4183 19.027C30.8118 19.0309 34.1937 19.0309 37.5718 19.0309ZM42.2435 19.0367C42.2493 18.9605 42.2551 18.9137 42.2551 18.8687C42.2512 15.6725 42.2473 12.4783 42.2396 9.28208C42.2396 9.11211 42.2299 8.93629 42.1932 8.77022C42.1217 8.45373 42.0211 8.14505 41.9418 7.83246C41.878 7.58435 41.8277 7.33428 41.7697 7.08421C41.7639 7.05491 41.7446 7.02951 41.7291 7.00216C41.5454 6.66613 41.3733 6.32228 41.1742 5.99602C40.9634 5.64827 40.7584 5.28879 40.4916 4.98597C40.1648 4.61478 39.78 4.29633 39.4165 3.9603C39.2676 3.82159 39.1129 3.68483 38.9447 3.57152C38.79 3.46602 38.616 3.38983 38.4458 3.30778C38.1732 3.17688 37.9005 3.04598 37.6221 2.93072C37.4403 2.85648 37.247 2.81154 37.0613 2.74512C36.8351 2.66307 36.6205 2.52436 36.3884 2.497C35.7561 2.41886 35.12 2.3622 34.4838 2.34657C34.1357 2.33876 33.7857 2.42277 33.4377 2.47747C33.1825 2.51849 32.9291 2.58101 32.6758 2.63376C32.6623 2.63572 32.6526 2.6533 32.6391 2.65916C32.4206 2.75293 32.2021 2.84866 31.9817 2.93853C31.8192 3.003 31.6394 3.03426 31.4925 3.12218C31.1753 3.30778 30.866 3.509 30.5701 3.72781C30.2298 3.97984 29.8953 4.24358 29.5917 4.53663C29.5105 4.61478 29.2726 4.72614 29.466 4.95862C29.6284 4.9215 29.8025 4.84336 29.9765 4.84922C30.2936 4.85703 30.6107 4.91369 30.9278 4.95081C31.3262 4.9977 31.7264 4.92932 32.1267 5.09147C32.5579 5.26535 33.0336 5.33177 33.4899 5.44313C33.5131 5.44899 33.5363 5.44899 33.5576 5.45876C33.7509 5.55449 33.9424 5.65217 34.1357 5.74986C34.2382 5.80065 34.3426 5.84949 34.4471 5.89834C34.6133 5.97453 34.7874 6.03509 34.9421 6.12692C35.1412 6.24609 35.3249 6.38871 35.5144 6.52155C35.7929 6.71692 36.0848 6.89471 36.3439 7.11156C36.6495 7.36945 36.9318 7.65859 37.216 7.94187C37.3958 8.12161 37.5815 8.29939 37.7342 8.50257C37.9276 8.7585 38.09 9.03983 38.266 9.30944C38.4574 9.60444 38.6662 9.89163 38.8306 10.2023C38.9679 10.4601 39.053 10.7473 39.1632 11.0208C39.3082 11.3803 39.4726 11.7339 39.5905 12.1012C39.6543 12.2985 39.6659 12.5076 39.7297 12.7147C39.8516 13.1074 39.9057 13.5352 39.9115 13.9494C39.9328 15.5514 39.925 17.1534 39.9289 18.7554C39.9289 18.8453 39.9289 18.9371 39.9289 19.0367C40.714 19.0367 41.4681 19.0367 42.2435 19.0367ZM39.927 23.8721C40.0759 23.8721 40.19 23.8721 40.3021 23.8721C45.2503 23.8721 50.1985 23.8721 55.1486 23.8721C55.2259 23.8721 55.3033 23.874 55.3806 23.8682C55.4251 23.8642 55.4831 23.8642 55.5102 23.8369C55.8872 23.4579 56.2585 23.075 56.6317 22.692C56.9024 22.4146 57.1711 22.1372 57.4399 21.8578C57.5269 21.766 57.6081 21.6683 57.6932 21.5726C57.5675 21.5531 57.4438 21.5179 57.3181 21.5179C51.6506 21.5159 45.9831 21.5159 40.3156 21.5159C40.2692 21.5159 40.2228 21.5198 40.1764 21.5159C39.9927 21.4964 39.9154 21.5589 39.9231 21.7621C39.9386 22.1919 39.927 22.6217 39.927 23.0515C39.927 23.3114 39.927 23.5751 39.927 23.8721ZM22.766 23.8721C22.8955 23.8721 22.9961 23.8721 23.0947 23.8721C25.6393 23.8721 28.184 23.8721 30.7287 23.8721C32.8866 23.8721 35.0445 23.8721 37.2025 23.8721C37.6008 23.8721 37.6008 23.8721 37.6008 23.4598C37.6008 22.9441 37.6008 22.4283 37.6008 21.9125C37.6008 21.514 37.6008 21.514 37.1948 21.514C32.4921 21.514 27.7895 21.514 23.0869 21.514C23.0637 21.514 23.0405 21.5159 23.0173 21.514C22.8124 21.4866 22.7312 21.555 22.7389 21.7816C22.7544 22.3677 22.7428 22.9538 22.7447 23.5399C22.7447 23.6376 22.7563 23.7373 22.766 23.8721ZM7.24466 23.8721C7.38195 23.8721 7.46896 23.8721 7.55791 23.8721C11.7094 23.8721 15.859 23.8721 20.0105 23.8721C20.3296 23.8721 20.3953 23.8056 20.3973 23.4716C20.3992 22.9245 20.3992 22.3775 20.3973 21.8305C20.3973 21.5531 20.3624 21.514 20.0917 21.514C16.6209 21.512 13.15 21.512 9.67911 21.5198C9.56502 21.5198 9.42967 21.5843 9.33879 21.6605C9.07388 21.8832 8.81864 22.1177 8.575 22.3638C8.16314 22.7761 7.76094 23.198 7.35875 23.62C7.31234 23.6689 7.2988 23.7509 7.24466 23.8721ZM25.0515 19.0348C25.1482 18.1146 25.0902 9.49699 24.9761 9.35828C24.8137 9.55755 24.6513 9.75097 24.4927 9.95024C24.2742 10.2257 23.99 10.4738 23.8623 10.7884C23.7173 11.142 23.4389 11.4096 23.3402 11.7925C23.2436 12.1696 23.0212 12.5134 22.9245 12.8905C22.824 13.2891 22.764 13.7071 22.7582 14.1194C22.737 15.6823 22.7447 17.2433 22.7428 18.8062C22.7428 18.8804 22.7505 18.9566 22.7563 19.0367C23.5336 19.0348 24.2877 19.0348 25.0515 19.0348Z" fill="#4B6584" stroke="#4B6584" stroke-width="2" mask="url(#path-2-inside-1_62_1954)"/>
</svg>
