<svg width="26" height="23" viewBox="0 0 26 23" fill="none" xmlns="http://www.w3.org/2000/svg">
<path d="M17.5001 17.9167H9.25558C8.06667 17.9167 7.0125 17.1367 6.69075 16.0192L3.90408 6.57666C3.80508 6.23475 3.476 6.00008 3.10017 6.00008H0.916667C0.40975 6.00008 0 5.58941 0 5.08341C0 4.57741 0.40975 4.16675 0.916667 4.16675H3.10017C4.28908 4.16675 5.34233 4.94683 5.66408 6.06425L6.18567 7.83341H20.2061C20.7781 7.83341 21.3207 8.10566 21.6572 8.56216C21.9908 9.015 22.0871 9.5815 21.9212 10.1168L20.0301 16.1192C19.6597 17.2027 18.645 17.9167 17.5001 17.9167ZM20.207 9.66675H20.2162H20.207Z" fill="#A4B0BE"/>
<path d="M10.0833 22.4999C9.07225 22.4999 8.25 21.6777 8.25 20.6666C8.25 19.6555 9.07225 18.8333 10.0833 18.8333C11.0944 18.8333 11.9167 19.6555 11.9167 20.6666C11.9167 21.6777 11.0944 22.4999 10.0833 22.4999ZM10.0833 20.6657V20.6666V20.6657Z" fill="#A4B0BE"/>
<path d="M16.5 22.4999C15.4889 22.4999 14.6666 21.6777 14.6666 20.6666C14.6666 19.6555 15.4889 18.8333 16.5 18.8333C17.511 18.8333 18.3333 19.6555 18.3333 20.6666C18.3333 21.6777 17.511 22.4999 16.5 22.4999ZM16.5 20.6657V20.6666V20.6657Z" fill="#A4B0BE"/>
<circle cx="21.5" cy="7" r="4.5" fill="#6A4D67"/>
</svg>
